<svg width="193" height="193" viewBox="0 0 193 193" fill="none" xmlns="http://www.w3.org/2000/svg">
<rect x="45.6592" y="45.6574" width="101.599" height="101.599" rx="50.7995" fill="#0066FF"/>
<path fill-rule="evenodd" clip-rule="evenodd" d="M96.4648 100.934C96.4648 99.1739 97.164 97.4861 98.4084 96.2416C99.6529 94.9972 101.341 94.2981 103.101 94.2981L111.948 94.2981C113.122 94.2981 114.247 94.7641 115.076 95.5938C115.906 96.4234 116.372 97.5486 116.372 98.7219L116.372 103.146C116.372 104.319 115.906 105.444 115.076 106.274C114.247 107.104 113.122 107.57 111.948 107.57L103.101 107.57C101.341 107.57 99.6529 106.871 98.4084 105.626C97.164 104.382 96.4648 102.694 96.4648 100.934ZM103.101 98.7219C102.514 98.7219 101.951 98.955 101.537 99.3698C101.122 99.7846 100.889 100.347 100.889 100.934C100.889 101.52 101.122 102.083 101.537 102.498C101.951 102.913 102.514 103.146 103.101 103.146L111.948 103.146L111.948 98.7219L103.101 98.7219Z" fill="white" fill-opacity="0.9"/>
<path fill-rule="evenodd" clip-rule="evenodd" d="M97.1131 77.2504C97.5279 76.8357 98.0904 76.6028 98.6769 76.6028C99.2634 76.6028 99.826 76.8357 100.241 77.2504L106.228 83.2381L99.9731 83.2381L97.1131 80.378C96.6984 79.9632 96.4655 79.4007 96.4655 78.8142C96.4655 78.2277 96.6984 77.6652 97.1131 77.2504ZM97.3807 83.2381L91.393 77.2504C90.9782 76.8357 90.4157 76.6028 89.8292 76.6028C89.2427 76.6028 88.6802 76.8357 88.2654 77.2504L82.2777 83.2381L97.3807 83.2381ZM80.0657 85.45L79.9419 85.5717C78.9768 85.805 78.1183 86.3561 77.5045 87.1365C76.8906 87.9168 76.5571 88.881 76.5576 89.8739L76.5576 111.993C76.5576 113.166 77.0237 114.292 77.8533 115.121C78.683 115.951 79.8082 116.417 80.9815 116.417L107.525 116.417C108.698 116.417 109.823 115.951 110.653 115.121C111.482 114.292 111.948 113.166 111.948 111.993L103.101 111.993C100.168 111.993 97.3545 110.828 95.2804 108.754C93.2063 106.68 92.0411 103.867 92.0411 100.934C92.0411 98.0003 93.2063 95.1872 95.2804 93.1132C97.3545 91.0391 100.168 89.8739 103.101 89.8739L111.948 89.8739C111.949 88.881 111.615 87.9168 111.002 87.1365C110.388 86.3561 109.529 85.805 108.564 85.5717L108.44 85.45L80.0657 85.45Z" fill="white" fill-opacity="0.9"/>
</svg>
