<svg width="23049" height="17184" viewBox="0 0 23049 17184" fill="none" xmlns="http://www.w3.org/2000/svg">
<path d="M23048.8 15092.4H0V15103.9H23048.8V15092.4Z" fill="#EBEBEB"/>
<path d="M20739.3 15834.1H19212.6V15845.6H20739.3V15834.1Z" fill="#EBEBEB"/>
<path d="M15268.5 15959.5H14867.9V15971H15268.5V15959.5Z" fill="#EBEBEB"/>
<path d="M19166.5 15406.3H18281.9V15417.8H19166.5V15406.3Z" fill="#EBEBEB"/>
<path d="M4409.24 15483.7H2418.29V15495.3H4409.24V15483.7Z" fill="#EBEBEB"/>
<path d="M5111.77 15483.7H4819.97V15495.3H5111.77V15483.7Z" fill="#EBEBEB"/>
<path d="M10378.9 15678.3H6060.46V15689.8H10378.9V15678.3Z" fill="#EBEBEB"/>
<path d="M10925.1 13036.4H2024.15C1954.42 13036.3 1887.59 13008.5 1838.32 12959.2C1789.06 12909.8 1761.39 12842.9 1761.39 12773.2V260.913C1762 191.583 1789.93 125.292 1839.13 76.44C1888.33 27.5875 1954.82 0.118765 2024.15 0H10925.1C10995 0 11061.9 27.7318 11111.3 77.0947C11160.6 126.458 11188.4 193.408 11188.4 263.218V12773.2C11188.4 12843 11160.6 12910 11111.3 12959.3C11061.9 13008.7 10995 13036.4 10925.1 13036.4ZM2024.15 9.21957C1957.47 9.34168 1893.57 35.9131 1846.47 83.1015C1799.37 130.29 1772.91 194.239 1772.92 260.913V12773.2C1772.91 12839.9 1799.37 12903.8 1846.47 12951C1893.57 12998.2 1957.47 13024.8 2024.15 13024.9H10925.1C10991.9 13024.8 11055.8 12998.2 11103 12951C11150.2 12903.9 11176.7 12839.9 11176.8 12773.2V260.913C11176.7 194.197 11150.2 130.249 11103 83.0734C11055.8 35.8981 10991.9 9.34142 10925.1 9.21957H2024.15Z" fill="#EBEBEB"/>
<path d="M20896.5 13036.4H11995.1C11925.3 13036.3 11858.4 13008.5 11809.1 12959.2C11759.7 12909.9 11732 12843 11731.9 12773.2V260.913C11732.6 191.541 11760.6 125.251 11809.9 76.4112C11859.2 27.5714 11925.7 0.11747 11995.1 0H20896.5C20965.8 0.239915 21032.2 27.7623 21081.3 76.6018C21130.3 125.441 21158.2 191.663 21158.8 260.913V12773.2C21158.8 12842.9 21131.2 12909.7 21082.1 12959C21032.9 13008.3 20966.2 13036.2 20896.5 13036.4ZM11995.1 9.21957C11928.4 9.34142 11864.4 35.8981 11817.2 83.0734C11770.1 130.249 11743.5 194.197 11743.4 260.913V12773.2C11743.5 12839.9 11770.1 12903.9 11817.2 12951C11864.4 12998.2 11928.4 13024.8 11995.1 13024.9H20896.5C20963.2 13024.8 21027.2 12998.2 21074.4 12951C21121.5 12903.9 21148.1 12839.9 21148.2 12773.2V260.913C21148.1 194.197 21121.5 130.249 21074.4 83.0734C21027.2 35.8981 20963.2 9.34142 20896.5 9.21957H11995.1Z" fill="#EBEBEB"/>
<path d="M3936.74 8425.27H4196.27L4196.27 2962.7H3936.74L3936.74 8425.27Z" fill="#E0E0E0"/>
<path d="M9025.46 2963.16H4086.56V8425.73H9025.46V2963.16Z" fill="#E0E0E0"/>
<path d="M9183.11 2963.16H4060.28V8425.73H9183.11V2963.16Z" fill="#F0F0F0"/>
<path d="M8966.46 3137.41H4269.11V8174.5H8966.46V3137.41Z" fill="white"/>
<path d="M8966.46 3137.41H8830.47V8174.5H8966.46V3137.41Z" fill="#E0E0E0"/>
<path d="M4256.66 6759.3V6895.29H8844.76V6759.3H4256.66Z" fill="#E0E0E0"/>
<path d="M8966.46 6531.58H4196.27V6759.76H8966.46V6531.58Z" fill="#F0F0F0"/>
<path d="M12617.4 15007.1H19412.6V6402.04H12617.4V15007.1Z" fill="#F0F0F0"/>
<path d="M12857.6 8555.27H19172.5V6715.05L12857.6 6715.05V8555.27Z" fill="#E0E0E0"/>
<path d="M18813.4 8555.27H19172V7013.3H18813.4V8555.27Z" fill="#EBEBEB"/>
<path d="M17078.7 8555.27H17437.4V7013.3H17078.7V8555.27Z" fill="#EBEBEB"/>
<path d="M14848 8494.27L15201.4 8555.19L15463.4 7035.63L15109.9 6974.71L14848 8494.27Z" fill="#EBEBEB"/>
<path d="M18369.5 8555.27H18728.1V7216.13H18369.5V8555.27Z" fill="#EBEBEB"/>
<path d="M17544.3 8555.27H17902.9V7216.13H17544.3V8555.27Z" fill="#EBEBEB"/>
<path d="M15463 8555.27H15821.6V7216.13H15463V8555.27Z" fill="#EBEBEB"/>
<path d="M16317.9 8477.4L16668 8555.2L16958.6 7247.96L16608.5 7170.15L16317.9 8477.4Z" fill="#EBEBEB"/>
<path d="M18059.2 8555.27H18238.5V6936.32H18059.2V8555.27Z" fill="#EBEBEB"/>
<path d="M15925.4 8555.27H16104.7V6936.32H15925.4V8555.27Z" fill="#EBEBEB"/>
<path d="M19172 8847.06H12857.1V10687.3H19172V8847.06Z" fill="#E0E0E0"/>
<path d="M13215.7 9144.85H12857.1V10686.8H13215.7V9144.85Z" fill="#EBEBEB"/>
<path d="M14950.4 9144.85H14591.8V10686.8H14950.4V9144.85Z" fill="#EBEBEB"/>
<path d="M16919.8 9105.85L16566.4 9166.77L16828.3 10686.3L17181.7 10625.4L16919.8 9105.85Z" fill="#EBEBEB"/>
<path d="M13660.6 9348.15H13301.9V10687.3H13660.6V9348.15Z" fill="#EBEBEB"/>
<path d="M14484.8 9348.15H14126.2V10687.3H14484.8V9348.15Z" fill="#EBEBEB"/>
<path d="M16566.1 9348.15H16207.5V10687.3H16566.1V9348.15Z" fill="#EBEBEB"/>
<path d="M15422.2 9301.51L15072.1 9379.31L15362.6 10686.6L15712.7 10608.7L15422.2 9301.51Z" fill="#EBEBEB"/>
<path d="M13970.8 9068.33H13791.5V10687.3H13970.8V9068.33Z" fill="#EBEBEB"/>
<path d="M16104.2 9068.33H15924.9V10687.3H16104.2V9068.33Z" fill="#EBEBEB"/>
<path d="M18813.4 10686.8H19172V9144.85H18813.4V10686.8Z" fill="#EBEBEB"/>
<path d="M18369.5 10686.8H18728.1V9347.68H18369.5V10686.8Z" fill="#EBEBEB"/>
<path d="M17544.3 10686.8H17902.9V9347.68H17544.3V10686.8Z" fill="#EBEBEB"/>
<path d="M18059.2 10686.8H18238.5V9067.87H18059.2V10686.8Z" fill="#EBEBEB"/>
<path d="M12857.6 12818.4H19172.5V10978.2H12857.6V12818.4Z" fill="#E0E0E0"/>
<path d="M15188.7 12818.4H15547.4V11276.4H15188.7V12818.4Z" fill="#EBEBEB"/>
<path d="M12958.2 12756.8L13311.6 12817.8L13573.5 11298.2L13220.1 11237.3L12958.2 12756.8Z" fill="#EBEBEB"/>
<path d="M16479.5 12818.4H16838.1V11479.2H16479.5V12818.4Z" fill="#EBEBEB"/>
<path d="M15654.8 12818.4H16013.4V11479.2H15654.8V12818.4Z" fill="#EBEBEB"/>
<path d="M13573 12818.4H13931.6V11479.2H13573V12818.4Z" fill="#EBEBEB"/>
<path d="M14428.3 12739.9L14778.4 12817.8L15068.9 11510.5L14718.8 11432.7L14428.3 12739.9Z" fill="#EBEBEB"/>
<path d="M16169.2 12818.4H16348.5V11199.4H16169.2V12818.4Z" fill="#EBEBEB"/>
<path d="M14035.4 12818.4H14214.7V11199.4H14035.4V12818.4Z" fill="#EBEBEB"/>
<path d="M17085.3 12756.9L17438.8 12817.9L17700.7 11298.3L17347.3 11237.4L17085.3 12756.9Z" fill="#EBEBEB"/>
<path d="M17700.6 12818.4H18059.2V11479.2H17700.6V12818.4Z" fill="#EBEBEB"/>
<path d="M18555.5 12739.8L18905.6 12817.6L19196.1 11510.3L18846 11432.5L18555.5 12739.8Z" fill="#EBEBEB"/>
<path d="M18162 12818.4H18341.3V11199.4H18162V12818.4Z" fill="#EBEBEB"/>
<path d="M8131.63 9716.46H4187.51C4085.67 9716.28 3984.8 9736.17 3890.65 9775.01C3796.51 9813.84 3710.94 9870.85 3638.84 9942.77C3566.75 10014.7 3509.53 10100.1 3470.48 10194.2C3431.42 10288.2 3411.29 10389.1 3411.23 10490.9V13571.1H8906.53V10490.9C8906.53 10389.2 8886.48 10288.4 8847.53 10194.4C8808.59 10100.4 8751.5 10015 8679.54 9943.13C8607.58 9871.21 8522.15 9814.17 8428.13 9775.28C8334.12 9736.39 8233.37 9716.4 8131.63 9716.46Z" fill="#E6E6E6"/>
<path d="M10072.8 11999.2H9367.05C9244.79 11999.2 9127.54 12047.8 9041.09 12134.2C8954.64 12220.7 8906.07 12337.9 8906.07 12460.2V15007.1H10532.4V12459.7C10532.3 12337.8 10483.8 12220.9 10397.7 12134.6C10311.6 12048.2 10194.7 11999.6 10072.8 11999.2Z" fill="#E0E0E0"/>
<path d="M10072.8 11999.2H10057.6C9935.33 11999.2 9818.08 12047.8 9731.63 12134.2C9645.18 12220.7 9596.61 12337.9 9596.61 12460.2V15007.1H10531.9V12459.7C10531.8 12337.9 10483.4 12221 10397.4 12134.7C10311.4 12048.4 10194.7 11999.7 10072.8 11999.2Z" fill="#EBEBEB"/>
<path d="M9400.7 13836.7H3987.45V15006.6H9400.7V13836.7Z" fill="#E6E6E6"/>
<path d="M9408.07 12766.8H4187.51C3929.1 12766.8 3719.62 12976.2 3719.62 13234.6V13526.4C3719.62 13784.8 3929.1 13994.3 4187.51 13994.3H9408.07C9666.48 13994.3 9875.96 13784.8 9875.96 13526.4V13234.6C9875.96 12976.2 9666.48 12766.8 9408.07 12766.8Z" fill="#F5F5F5"/>
<path d="M4843.94 12766.8H4196.27C3937.86 12766.8 3728.38 12976.2 3728.38 13234.6V13526.4C3728.38 13784.8 3937.86 13994.3 4196.27 13994.3H4843.94C5102.35 13994.3 5311.83 13784.8 5311.83 13526.4V13234.6C5311.83 12976.2 5102.35 12766.8 4843.94 12766.8Z" fill="#E0E0E0"/>
<path d="M4126.2 11999.2H3420.45C3298.19 11999.2 3180.94 12047.8 3094.49 12134.2C3008.04 12220.7 2959.47 12337.9 2959.47 12460.2V15007.1H4586.72V12459.7C4586.59 12337.6 4538.04 12220.6 4451.7 12134.2C4365.36 12047.9 4248.3 11999.3 4126.2 11999.2Z" fill="#E0E0E0"/>
<path d="M4126.2 11999.2H4111.45C3989.19 11999.2 3871.94 12047.8 3785.49 12134.2C3699.04 12220.7 3650.47 12337.9 3650.47 12460.2V15007.1H4586.72V12459.7C4586.59 12337.6 4538.04 12220.6 4451.7 12134.2C4365.36 12047.9 4248.3 11999.3 4126.2 11999.2Z" fill="#F0F0F0"/>
<path d="M15842.8 4357.61C16361.2 4357.61 16781.4 3937.41 16781.4 3419.06C16781.4 2900.72 16361.2 2480.52 15842.8 2480.52C15324.5 2480.52 14904.3 2900.72 14904.3 3419.06C14904.3 3937.41 15324.5 4357.61 15842.8 4357.61Z" fill="#E0E0E0"/>
<path d="M16631.3 3547.22C16701.9 3112.22 16406.5 2702.34 15971.5 2631.73C15536.5 2561.12 15126.6 2856.51 15056 3291.52C14985.4 3726.52 15280.8 4136.4 15715.8 4207.01C16150.8 4277.62 16560.7 3982.22 16631.3 3547.22Z" fill="#F0F0F0"/>
<path d="M15805.5 2871.42V3429.2L15435.8 3219.92" fill="#F0F0F0"/>
<path d="M15805.5 3469.31C15798.5 3469.33 15791.7 3467.42 15785.7 3463.78L15416.9 3254.95C15408.2 3249.42 15402 3240.76 15399.6 3230.78C15397.1 3220.8 15398.6 3210.25 15403.7 3201.32C15408.7 3192.38 15417.1 3185.74 15426.9 3182.77C15436.8 3179.8 15447.4 3180.72 15456.5 3185.35L15766.3 3360.98V2871.42C15767.4 2861.58 15772 2852.49 15779.4 2845.88C15786.8 2839.27 15796.3 2835.61 15806.2 2835.61C15816.1 2835.61 15825.6 2839.27 15833 2845.88C15840.4 2852.49 15845 2861.58 15846.1 2871.42V3429.2C15846.1 3436.2 15844.3 3443.09 15840.8 3449.16C15837.3 3455.23 15832.3 3460.28 15826.2 3463.78C15820 3467.59 15812.8 3469.51 15805.5 3469.31Z" fill="#E0E0E0"/>
<path d="M11524.4 17174.6C16460.7 17174.6 20462.3 16890.4 20462.3 16539.8C20462.3 16189.3 16460.7 15905.1 11524.4 15905.1C6588.16 15905.1 2586.54 16189.3 2586.54 16539.8C2586.54 16890.4 6588.16 17174.6 11524.4 17174.6Z" fill="#F5F5F5"/>
<path d="M17916.3 6952.45H16671.7C16558.3 6952.45 16449.7 6997.47 16369.5 7077.61C16289.4 7157.75 16244.4 7266.44 16244.4 7379.78V7895.15C16244.4 8008.48 16289.4 8117.18 16369.5 8197.31C16449.7 8277.45 16558.3 8322.48 16671.7 8322.48H17203.6L17346.5 8773.77L17490.8 8322.48H17914C18027.3 8322.48 18136 8277.45 18216.2 8197.31C18296.3 8117.18 18341.3 8008.48 18341.3 7895.15V7379.78C18341.3 7266.84 18296.6 7158.5 18217 7078.43C18137.4 6998.35 18029.3 6953.06 17916.3 6952.45Z" fill="#407BFF"/>
<path d="M16810.9 7606.12C16810.9 7623.17 16805.8 7639.83 16796.4 7654.01C16786.9 7668.18 16773.4 7679.23 16757.7 7685.76C16741.9 7692.28 16724.6 7693.99 16707.9 7690.66C16691.2 7687.34 16675.8 7679.13 16663.7 7667.07C16651.7 7655.02 16643.5 7639.66 16640.1 7622.93C16636.8 7606.21 16638.5 7588.88 16645.1 7573.13C16651.6 7557.38 16662.6 7543.91 16676.8 7534.44C16691 7524.97 16707.6 7519.91 16724.7 7519.91C16736 7519.91 16747.2 7522.14 16757.7 7526.48C16768.1 7530.81 16777.6 7537.16 16785.6 7545.16C16793.7 7553.17 16800 7562.67 16804.3 7573.13C16808.7 7583.59 16810.9 7594.8 16810.9 7606.12ZM17105 7519.91C17087.9 7519.91 17071.3 7524.97 17057.1 7534.44C17042.9 7543.91 17031.9 7557.38 17025.4 7573.13C17018.8 7588.88 17017.1 7606.21 17020.5 7622.93C17023.8 7639.66 17032 7655.02 17044 7667.07C17056.1 7679.13 17071.5 7687.34 17088.2 7690.66C17104.9 7693.99 17122.2 7692.28 17138 7685.76C17153.7 7679.23 17167.2 7668.18 17176.7 7654.01C17186.1 7639.83 17191.2 7623.17 17191.2 7606.12C17190.7 7583.58 17181.4 7562.12 17165.3 7546.35C17149.2 7530.58 17127.5 7521.75 17105 7521.76V7519.91ZM17485.3 7519.91C17468.3 7519.91 17451.6 7524.97 17437.4 7534.44C17423.2 7543.91 17412.2 7557.38 17405.7 7573.13C17399.1 7588.88 17397.4 7606.21 17400.8 7622.93C17404.1 7639.66 17412.3 7655.02 17424.3 7667.07C17436.4 7679.13 17451.8 7687.34 17468.5 7690.66C17485.2 7693.99 17502.5 7692.28 17518.3 7685.76C17534 7679.23 17547.5 7668.18 17557 7654.01C17566.4 7639.83 17571.5 7623.17 17571.5 7606.12C17571 7583.58 17561.7 7562.12 17545.6 7546.35C17529.5 7530.58 17507.8 7521.75 17485.3 7521.76V7519.91ZM17865.6 7519.91C17848.6 7519.91 17831.9 7524.97 17817.7 7534.44C17803.5 7543.91 17792.5 7557.38 17786 7573.13C17779.4 7588.88 17777.7 7606.21 17781.1 7622.93C17784.4 7639.66 17792.6 7655.02 17804.7 7667.07C17816.7 7679.13 17832.1 7687.34 17848.8 7690.66C17865.5 7693.99 17882.8 7692.28 17898.6 7685.76C17914.3 7679.23 17927.8 7668.18 17937.3 7654.01C17946.8 7639.83 17951.8 7623.17 17951.8 7606.12C17951.3 7583.58 17942 7562.12 17925.9 7546.35C17909.8 7530.58 17888.2 7521.75 17865.6 7521.76V7519.91Z" fill="white"/>
<path d="M5139.89 8473.67H3897.56C3841.44 8473.67 3785.87 8484.72 3734.03 8506.2C3682.18 8527.67 3635.07 8559.15 3595.39 8598.83C3555.71 8638.51 3524.23 8685.62 3502.76 8737.47C3481.28 8789.31 3470.23 8844.88 3470.23 8901V9416.37C3470.23 9529.7 3515.25 9638.39 3595.39 9718.53C3675.53 9798.67 3784.22 9843.69 3897.56 9843.69H4429.52L4572.43 10294.5L4716.71 9843.69H5139.89C5253.22 9843.69 5361.91 9798.67 5442.05 9718.53C5522.19 9638.39 5567.21 9529.7 5567.21 9416.37V8901C5567.21 8844.88 5556.16 8789.31 5534.68 8737.47C5513.21 8685.62 5481.73 8638.51 5442.05 8598.83C5402.37 8559.15 5355.26 8527.67 5303.42 8506.2C5251.57 8484.72 5196.01 8473.67 5139.89 8473.67Z" fill="#407BFF"/>
<path d="M4034.46 9127.34C4034.46 9144.39 4029.41 9161.06 4019.94 9175.23C4010.46 9189.41 3997 9200.46 3981.25 9206.98C3965.5 9213.51 3948.17 9215.21 3931.44 9211.89C3914.72 9208.56 3899.36 9200.35 3887.31 9188.29C3875.25 9176.24 3867.04 9160.88 3863.71 9144.16C3860.39 9127.44 3862.1 9110.1 3868.62 9094.35C3875.14 9078.6 3886.19 9065.14 3900.37 9055.66C3914.55 9046.19 3931.21 9041.14 3948.26 9041.14C3971.12 9041.14 3993.05 9050.22 4009.22 9066.39C4025.38 9082.55 4034.46 9104.48 4034.46 9127.34ZM4328.57 9041.14C4311.52 9041.14 4294.85 9046.19 4280.68 9055.66C4266.5 9065.14 4255.45 9078.6 4248.93 9094.35C4242.4 9110.1 4240.69 9127.44 4244.02 9144.16C4247.35 9160.88 4255.56 9176.24 4267.61 9188.29C4279.67 9200.35 4295.03 9208.56 4311.75 9211.89C4328.47 9215.21 4345.8 9213.51 4361.56 9206.98C4377.31 9200.46 4390.77 9189.41 4400.24 9175.23C4409.71 9161.06 4414.77 9144.39 4414.77 9127.34C4414.41 9104.76 4405.15 9083.24 4389.01 9067.44C4372.87 9051.65 4351.15 9042.86 4328.57 9042.98V9041.14ZM4708.87 9041.14C4691.79 9040.95 4675.03 9045.85 4660.73 9055.21C4646.44 9064.58 4635.24 9077.97 4628.58 9093.71C4621.91 9109.44 4620.07 9126.8 4623.29 9143.59C4626.51 9160.37 4634.65 9175.81 4646.67 9187.96C4658.69 9200.11 4674.04 9208.41 4690.79 9211.81C4707.54 9215.21 4724.92 9213.56 4740.72 9207.07C4756.53 9200.57 4770.05 9189.52 4779.56 9175.33C4789.07 9161.13 4794.15 9144.43 4794.15 9127.34C4793.79 9104.92 4784.66 9083.53 4768.72 9067.76C4752.78 9052 4731.3 9043.1 4708.87 9042.98V9041.14ZM5089.18 9041.14C5072.13 9041.14 5055.46 9046.19 5041.29 9055.66C5027.11 9065.14 5016.06 9078.6 5009.54 9094.35C5003.01 9110.1 5001.31 9127.44 5004.63 9144.16C5007.96 9160.88 5016.17 9176.24 5028.22 9188.29C5040.28 9200.35 5055.64 9208.56 5072.36 9211.89C5089.08 9215.21 5106.42 9213.51 5122.17 9206.98C5137.92 9200.46 5151.38 9189.41 5160.85 9175.23C5170.33 9161.06 5175.38 9144.39 5175.38 9127.34C5175.02 9104.76 5165.76 9083.24 5149.62 9067.44C5133.48 9051.65 5111.76 9042.86 5089.18 9042.98V9041.14Z" fill="white"/>
<path d="M19038.3 16604.4H13187.6C12094.6 16604.4 12024.6 15317.3 12923 14711.6C13087.3 14602.4 13269.1 14522.2 13460.5 14474.7C15239.4 14006.8 17738.8 10861.5 19499.3 12177.6L19504.4 12181.3C21257.9 13506.6 20032.2 16604.4 19038.3 16604.4Z" fill="#263238"/>
<path opacity="0.5" d="M19038.3 16604.4H13187.6C12094.6 16604.4 12024.6 15317.3 12923 14711.6C13087.3 14602.4 13269.1 14522.2 13460.5 14474.7C15239.4 14006.8 17738.8 10861.5 19499.3 12177.6L19504.4 12181.3C21257.9 13506.6 20032.2 16604.4 19038.3 16604.4Z" fill="white"/>
<path opacity="0.2" d="M19494.7 12175.3C19347.2 12165.6 19168.3 12207.1 18975.6 12368.5C18475.5 12787.9 19236.1 14807.5 18039.9 15647.4C17372.4 16116.2 14492.6 16322.7 13531.5 15747.9C12822.1 15323.3 12812.8 15056.4 12923 14711.6C13087.3 14602.4 13269.1 14522.2 13460.5 14474.7C15237.1 14004.5 17736.5 10859.2 19494.7 12175.3Z" fill="black"/>
<path d="M14945.8 11794.5L14596.8 11548.8L14857.7 11281.9C14857.7 11281.9 15125.6 11420.2 15100.2 11666.9L14945.8 11794.5Z" fill="#E4897B"/>
<path d="M14459.9 11277.8L14701.9 11125.7L14857.7 11281.9L14596.8 11548.8L14459.9 11277.8Z" fill="#E4897B"/>
<path d="M16662.5 11159.8C16331.9 11257 16169.2 11838.3 15896.3 12387.4L15102.1 11598.2L14849.4 11822.2C14849.4 11822.2 15576.9 12977.9 15920.3 12977.9C16349 12977.9 16793.8 11787.2 16793.8 11787.2L16662.5 11159.8Z" fill="#263238"/>
<path opacity="0.1" d="M16793.8 11787.2C16793.8 11787.2 16723.3 11975.7 16609.5 12202C16501.1 12422.4 16353.6 12679.2 16194.6 12834.5C16104.7 12921.6 16010.2 12977 15918 12977C15574.6 12977 14847.1 11821.3 14847.1 11821.3L15099.8 11597.2L15894 12386.4C16166.9 11837.4 16329.2 11256.1 16660.6 11158.9L16793.8 11787.2Z" fill="white"/>
<path opacity="0.2" d="M16611.3 12203C16503 12423.3 16355.5 12680.1 16196.4 12835.4C16213.5 12308.5 16473 11794.5 16473 11794.5C16544.6 11920.7 16591.5 12059.3 16611.3 12203Z" fill="black"/>
<path d="M16346.2 14370.9C16346.2 14370.9 13541.2 13968 13392.8 14583.5C13236.5 15234.3 15488.8 15673.2 16834.9 15719.3C18180.9 15765.4 18567.2 15442.7 18351 13783.2H16507.1L16346.2 14370.9Z" fill="#407BFF"/>
<path opacity="0.6" d="M16346.2 14370.9C16346.2 14370.9 13541.2 13968 13392.8 14583.5C13236.5 15234.3 15488.8 15673.2 16834.9 15719.3C18180.9 15765.4 18567.2 15442.7 18351 13783.2H16507.1L16346.2 14370.9Z" fill="white"/>
<path d="M14784 15654.3L14196.2 15654.8L13914.1 15655.2L13880.5 15357.9L14141.4 15322.9L14778.9 15238L14784 15654.3Z" fill="#E4897B"/>
<path d="M13944.1 15320.6L14015.5 15659.8C14016.5 15664.3 14016.6 15668.9 14015.8 15673.4C14014.9 15677.9 14013.2 15682.2 14010.7 15686C14008.1 15689.8 14004.8 15693 14001 15695.5C13997.1 15698 13992.8 15699.6 13988.3 15700.4L13819.2 15730.8C13819.2 15730.8 13594.7 15788 13531.5 15747.9C13347.1 15629.9 13170.1 14884 13245.2 14828.7C13272.4 14808.4 13319.9 14839.3 13343.9 14863.7C13419.5 14940.7 13580.4 15156 13644.4 15219.6C13718.7 15294.3 13851 15296.6 13909 15293.4C13917.2 15293 13925.2 15295.5 13931.6 15300.5C13938 15305.5 13942.4 15312.6 13944.1 15320.6Z" fill="#263238"/>
<path opacity="0.2" d="M14784 15654.3L14196.2 15654.8L14141.4 15322.9L14778.9 15238L14784 15654.3Z" fill="black"/>
<path d="M15643.2 15129.7L16201 15315.5L16468.9 15404.5L16406.6 15696.7L16148 15647.4L15516.5 15526.6L15643.2 15129.7Z" fill="#E4897B"/>
<path d="M16334.7 15711.9L16373.9 15367.6C16374.5 15363.1 16375.9 15358.7 16378.2 15354.8C16380.4 15350.8 16383.4 15347.3 16387 15344.6C16390.6 15341.8 16394.7 15339.7 16399.1 15338.5C16403.5 15337.3 16408.1 15337 16412.6 15337.6L16582.7 15362.5C16582.7 15362.5 16813.2 15379.1 16859.3 15437.2C16997.6 15607.3 16929.4 16371.1 16840.9 16399.7C16808.1 16410.3 16773.1 16366.1 16757.9 16335.6C16711.8 16238.4 16626 15983 16585.5 15902.8C16539.4 15808.3 16413.5 15764.5 16357.8 15748.8C16350.2 15746.4 16343.7 15741.3 16339.5 15734.6C16335.3 15727.8 16333.6 15719.8 16334.7 15711.9Z" fill="#263238"/>
<path opacity="0.2" d="M15643.2 15129.7L16201 15315.5L16148 15647.4L15516.5 15526.6L15643.2 15129.7Z" fill="black"/>
<path d="M16051.2 15699L15892.2 15714.2L15987.1 15163.8L16169.7 15260.2L16051.2 15699Z" fill="#407BFF"/>
<path opacity="0.6" d="M16051.2 15699L15892.2 15714.2L15987.1 15163.8L16169.7 15260.2L16051.2 15699Z" fill="white"/>
<path d="M16583.6 15898.6C16587.8 15923.6 16584.1 15949.2 16573 15971.9C16568.6 15978.7 16562.4 15984.2 16555.1 15987.9C16547.8 15991.5 16539.7 15993.2 16531.5 15992.7C16526.6 15992.9 16521.7 15991.8 16517.4 15989.5C16513 15987.3 16509.3 15983.9 16506.7 15979.8C16482.7 15939.2 16538.9 15814.3 16545.8 15800.4C16546.3 15798.9 16547.3 15797.6 16548.6 15796.7C16550 15795.8 16551.6 15795.5 16553.2 15795.8C16555 15796 16556.6 15796.7 16558 15797.8C16559.3 15799 16560.2 15800.6 16560.6 15802.3C16571.5 15833.5 16579.2 15865.8 16583.6 15898.6ZM16517.3 15958.5C16517.6 15962.6 16518.8 15966.6 16520.9 15970.1C16521.8 15971.8 16523.2 15973.3 16525 15974.2C16526.7 15975.1 16528.7 15975.4 16530.6 15975.1C16536.2 15975.8 16541.9 15974.9 16546.9 15972.4C16552 15970 16556.3 15966.1 16559.2 15961.3C16572.6 15917.5 16570.2 15870.3 16552.3 15828.1C16532.9 15869.1 16521 15913.3 16517.3 15958.5Z" fill="#407BFF"/>
<path d="M16562 15803.2V15806.9C16546.8 15847 16477.6 15926.3 16438.4 15920.7C16432 15919.6 16426.2 15916.4 16421.8 15911.5C16417.5 15906.7 16414.9 15900.5 16414.5 15894C16412.7 15887.6 16412.3 15880.8 16413.5 15874.2C16414.6 15867.6 16417.1 15861.3 16420.9 15855.8C16449.5 15809.7 16548.6 15794.9 16554.1 15795.4C16555.7 15795.1 16557.2 15795.3 16558.7 15795.9C16560.1 15796.6 16561.2 15797.7 16562 15799.1C16562.3 15800.4 16562.3 15801.8 16562 15803.2ZM16429.2 15887.6V15891.2C16432 15902.8 16436.6 15903.2 16438.9 15904.2C16461.9 15907.4 16515 15855.8 16538 15816.1C16498.7 15820.9 16462 15838.6 16433.8 15866.4C16429.9 15872.7 16428.1 15880.1 16428.7 15887.6H16429.2Z" fill="#407BFF"/>
<path d="M14249.7 15280C14249.7 15280 16859.3 14265.8 17658.6 14435.5C18458 14605.1 18461.7 15023.2 18056.5 15413.2C17651.3 15803.2 17046 15652.9 17046 15652.9C17046 15652.9 17521.7 15368 17488.5 15191.9C17455.3 15015.8 17152.9 15418.3 17152.9 15418.3C17152.9 15418.3 15575.9 15804.1 14273.7 15702.2L14249.7 15280Z" fill="#407BFF"/>
<path d="M13662.4 15225.1C13647.3 15205 13638.9 15180.7 13638.5 15155.5C13639.2 15147.4 13642 15139.7 13646.7 15133C13651.4 15126.4 13657.8 15121.1 13665.2 15117.7C13669.5 15115.3 13674.3 15114.1 13679.3 15114.1C13684.2 15114.1 13689 15115.3 13693.3 15117.7C13733 15143.1 13739.4 15280 13739.4 15295.7C13739.6 15297.2 13739.2 15298.8 13738.4 15300.2C13737.6 15301.5 13736.3 15302.5 13734.8 15303C13733.4 15304 13731.7 15304.5 13730 15304.5C13728.2 15304.5 13726.6 15304 13725.1 15303C13701.6 15279.3 13680.5 15253.2 13662.4 15225.1ZM13693.8 15141.2C13691.4 15137.9 13688.5 15135.1 13685 15132.9C13683.5 15131.8 13681.6 15131.3 13679.7 15131.3C13677.8 15131.3 13676 15131.8 13674.4 15132.9C13669.1 15134.9 13664.4 15138.3 13661 15142.8C13657.6 15147.3 13655.5 15152.7 13655 15158.3C13663.3 15203.4 13687.3 15244.1 13722.8 15273.1C13721 15227.8 13711.2 15183.1 13693.8 15141.2Z" fill="#407BFF"/>
<path d="M13725.1 15299.8V15295.7C13720.5 15253.3 13744.9 15150.9 13782.7 15137.6C13789 15135.6 13795.7 15135.8 13801.8 15138.2C13807.9 15140.5 13813.1 15144.8 13816.4 15150.5C13825.1 15160.7 13829.4 15173.9 13828.4 15187.3C13823.8 15241.3 13742.6 15299.8 13736.2 15302.6C13734.9 15303.5 13733.4 15303.9 13731.8 15303.9C13730.2 15303.9 13728.7 15303.5 13727.4 15302.6C13726.4 15301.9 13725.6 15300.9 13725.1 15299.8ZM13804.4 15163.8V15160.6C13797 15151.8 13792.4 15153.7 13790.1 15154.1C13768 15161.5 13744 15231.6 13744 15277.7C13766.6 15258.8 13810.4 15219.1 13813.2 15185.5C13813.6 15178 13811.7 15170.6 13807.6 15164.3L13804.4 15163.8Z" fill="#407BFF"/>
<path opacity="0.7" d="M14249.7 15280C14249.7 15280 16859.3 14265.8 17658.6 14435.5C18458 14605.1 18461.7 15023.2 18056.5 15413.2C17651.3 15803.2 17046 15652.9 17046 15652.9C17046 15652.9 17521.7 15368 17488.5 15191.9C17455.3 15015.8 17152.9 15418.3 17152.9 15418.3C17152.9 15418.3 15575.9 15804.1 14273.7 15702.2L14249.7 15280Z" fill="white"/>
<path d="M14217.9 15272.2L14364.5 15204.9L14448.9 15753.9L14245.1 15720.7L14217.9 15272.2Z" fill="#407BFF"/>
<path opacity="0.6" d="M14217.9 15272.2L14364.5 15204.9L14448.9 15753.9L14245.1 15720.7L14217.9 15272.2Z" fill="white"/>
<path d="M18536.3 11247.8C18254.7 12815.1 18357 13829.3 18357 13829.3C18357 13829.3 17046.5 13811.3 16508 13780.9C16220.8 11881.2 16662.5 11159.3 16662.5 11159.3C16803.3 11131.1 16945.7 11111.6 17088.9 11100.8C17118.8 11098.5 17149.7 11097.1 17181.1 11095.7C17435.1 11095.5 17688.8 11109.8 17941.2 11138.6C17987.3 11143.6 18037.6 11150.1 18084.6 11157C18324.7 11193.4 18536.3 11247.8 18536.3 11247.8Z" fill="#263238"/>
<path opacity="0.1" d="M18536.3 11247.8C18501.3 11442.4 18472.3 11628.6 18448.3 11804.7C18410.5 12081.3 18385.1 12337.6 18368.5 12565.3C18363.5 12634 18358.9 12700.8 18355.6 12764.4C18342.3 12997.7 18338.6 13197.3 18339 13358.6C18339 13662 18357 13829.3 18357 13829.3C18357 13829.3 17046.5 13811.3 16508 13780.9C16220.4 11881.2 16662.9 11159.3 16662.9 11159.3C16803.6 11131.1 16945.8 11111.5 17088.9 11100.8C17118.8 11098.5 17149.7 11097.1 17181.1 11095.7C17435.1 11095.3 17688.9 11109.6 17941.2 11138.6C17987.3 11143.6 18037.6 11150.1 18084.6 11157C18324.7 11193 18536.3 11247.8 18536.3 11247.8Z" fill="white"/>
<path opacity="0.2" d="M17365.9 12977.9C17701.8 12938 18033.1 12866.7 18355.6 12764.9C18342.3 12998.2 18338.6 13197.8 18339 13359.1C17713.5 13416.7 17458.1 13296.4 17458.1 13296.4L17365.9 12977.9Z" fill="black"/>
<path opacity="0.2" d="M18448.3 11805.2C18410.5 12081.7 18385.1 12338 18368.5 12565.8C18189.2 12200.7 18322.4 11762.7 18322.4 11762.7L18448.3 11805.2Z" fill="black"/>
<path d="M17436.9 13621.4H16483.6C16465.1 13621.1 16447.3 13613.9 16433.9 13601.2C16420.4 13588.5 16412.1 13571.2 16410.8 13552.7L16278 12287.3C16277.1 12278.8 16278 12270.2 16280.6 12262.1C16283.3 12254 16287.6 12246.5 16293.4 12240.2C16299.1 12233.9 16306.2 12228.9 16314 12225.5C16321.8 12222.1 16330.3 12220.4 16338.9 12220.5H17292.2C17310.3 12220.9 17327.7 12227.9 17341 12240.2C17354.4 12252.5 17362.7 12269.3 17364.5 12287.3L17497.8 13552.7C17498.9 13561.3 17498.3 13570.1 17495.7 13578.5C17493.2 13586.8 17488.9 13594.5 17483.1 13601.1C17477.4 13607.6 17470.2 13612.8 17462.2 13616.3C17454.3 13619.8 17445.6 13621.5 17436.9 13621.4Z" fill="#263238"/>
<path opacity="0.6" d="M17436.9 13621.4H16483.6C16465.1 13621.1 16447.3 13613.9 16433.9 13601.2C16420.4 13588.5 16412.1 13571.2 16410.8 13552.7L16278 12287.3C16277.1 12278.8 16278 12270.2 16280.6 12262.1C16283.3 12254 16287.6 12246.5 16293.4 12240.2C16299.1 12233.9 16306.2 12228.9 16314 12225.5C16321.8 12222.1 16330.3 12220.4 16338.9 12220.5H17292.2C17310.3 12220.9 17327.7 12227.9 17341 12240.2C17354.4 12252.5 17362.7 12269.3 17364.5 12287.3L17497.8 13552.7C17498.9 13561.3 17498.3 13570.1 17495.7 13578.5C17493.2 13586.8 17488.9 13594.5 17483.1 13601.1C17477.4 13607.6 17470.2 13612.8 17462.2 13616.3C17454.3 13619.8 17445.6 13621.5 17436.9 13621.4Z" fill="white"/>
<path opacity="0.2" d="M17397.3 13621.4H16483.6C16465.1 13621.1 16447.3 13613.9 16433.9 13601.2C16420.4 13588.5 16412.1 13571.2 16410.8 13552.7L16278 12287.3C16277.1 12278.8 16278 12270.2 16280.6 12262.1C16283.3 12254 16287.6 12246.5 16293.4 12240.2C16299.1 12233.9 16306.2 12228.9 16314 12225.5C16321.8 12222.1 16330.3 12220.4 16338.9 12220.5H17252.5C17270.7 12220.9 17288.1 12227.9 17301.4 12240.2C17314.7 12252.5 17323.1 12269.3 17324.9 12287.3L17458.1 13552.7C17459.3 13561.3 17458.6 13570.1 17456.1 13578.5C17453.6 13586.8 17449.3 13594.5 17443.5 13601.1C17437.7 13607.6 17430.6 13612.8 17422.6 13616.3C17414.6 13619.8 17406 13621.5 17397.3 13621.4Z" fill="white"/>
<path d="M16841.3 12818.4C16828.2 12818.3 16815.2 12821 16803.2 12826.3C16791.2 12831.7 16780.4 12839.5 16771.7 12849.3C16763 12859.1 16756.4 12870.7 16752.5 12883.3C16748.6 12895.8 16747.5 12909.1 16749.1 12922.1C16751.8 12950.1 16764.8 12976.1 16785.4 12995.1C16806.1 13014.2 16833 13024.9 16861.1 13025.4C16874.2 13025.5 16887.2 13022.8 16899.2 13017.4C16911.2 13012.1 16921.9 13004.3 16930.6 12994.6C16939.3 12984.8 16945.8 12973.3 16949.8 12960.8C16953.7 12948.3 16954.9 12935.1 16953.3 12922.1C16925.2 12921.5 16898.2 12910.7 16877.6 12891.6C16856.9 12872.4 16844 12846.4 16841.3 12818.4Z" fill="#263238"/>
<path opacity="0.3" d="M17047.8 12322.8H16544C16531.6 12322.7 16519.5 12319 16509.1 12312.3C16498.7 12305.7 16490.3 12296.2 16485 12285L16455 12222.3H17119.8L17102.2 12285C17098.8 12296.6 17091.6 12306.6 17081.7 12313.5C17071.8 12320.3 17059.9 12323.6 17047.8 12322.8Z" fill="black"/>
<path d="M17343.8 12937.3L17123.4 12919.3L17132.7 13212.5L17317 13309.3L17742.1 13270.6L17776.6 13072.8C17637 12868.2 17343.8 12937.3 17343.8 12937.3Z" fill="#E4897B"/>
<path d="M18536.3 11247.8C18762.7 11316.1 19083.5 12630.8 19032.3 12921.2C18981.2 13211.6 18422.9 13336.1 17713.5 13319.9V12977L18536.3 12736.8L18398 12229.7C18398 12229.7 18283.7 11856.8 18334.9 11595.9C18363 11461.3 18433.6 11339.2 18536.3 11247.8Z" fill="#263238"/>
<path opacity="0.1" d="M18536.3 11247.8C18762.7 11316.1 19083.5 12630.8 19032.3 12921.2C18981.2 13211.6 18422.9 13336.1 17713.5 13319.9V12977L18536.3 12736.8L18398 12229.7C18398 12229.7 18283.7 11856.8 18334.9 11595.9C18363 11461.3 18433.6 11339.2 18536.3 11247.8Z" fill="white"/>
<path d="M17831.5 11123.8C17716.7 11243.7 17536.5 11344.2 17247.4 11333.6C17025.7 11324.8 16994.8 11185.6 17033.5 11109.1C17168.2 11081.4 17229 11022.9 17247.9 10948.2C17266.8 10873.5 17240.5 10773 17201.8 10679.9L17575.7 10365.1L17638.8 10311.6C17638.8 10329.6 17636.5 10348.5 17635.6 10368.3C17631.2 10441.4 17631.2 10514.6 17635.6 10587.7C17648 10793.8 17696.9 11017.3 17831.5 11123.8Z" fill="#E4897B"/>
<path opacity="0.2" d="M17636 10587.7C17566.4 10730.1 17444.3 10902.1 17247.9 10948.2C17268.2 10868.9 17240.5 10773 17201.8 10679.9L17575.7 10365.1C17595.5 10365.1 17615.8 10365.1 17635.6 10368.3C17631.4 10441.4 17631.5 10514.6 17636 10587.7Z" fill="black"/>
<path d="M16779.5 9739.05C16724.7 9864.44 16717.8 10133.6 16908.6 10066.8C17099.5 9999.96 16871.7 9523.77 16779.5 9739.05Z" fill="#263238"/>
<path d="M17693.7 10017C17677.1 10352.6 17684.9 10550.4 17517.1 10723.2C17264.5 10983.2 16847.8 10830.2 16763 10495.5C16687.4 10193.6 16727 9695.26 17054.3 9560.65C17126.9 9530.92 17205.8 9520.07 17283.8 9529.11C17361.7 9538.16 17436.1 9566.81 17499.9 9612.39C17563.8 9657.97 17615 9718.99 17648.9 9789.74C17682.8 9860.5 17698.2 9938.7 17693.7 10017Z" fill="#E4897B"/>
<path d="M17184.8 10112C17184.8 10139.2 17170.9 10161.8 17152.9 10161.8C17135 10161.8 17120.2 10139.6 17119.8 10112C17119.3 10084.3 17134 10062.7 17151.6 10062.7C17169.1 10062.7 17184.3 10084.8 17184.8 10112Z" fill="#263238"/>
<path d="M16875 10112.9C16875 10140.1 16861.1 10162.2 16843.2 10162.2C16825.2 10162.2 16810.4 10140.1 16810.4 10112.9C16810.4 10085.7 16824.3 10063.6 16842.2 10063.6C16860.2 10063.6 16875 10085.2 16875 10112.9Z" fill="#263238"/>
<path d="M16973.6 10126.3C16941 10207.3 16897.3 10283.3 16843.6 10352.2C16862.7 10364.7 16884.1 10373.1 16906.6 10376.8C16929 10380.5 16952 10379.5 16974.1 10373.8L16973.6 10126.3Z" fill="#DE5753"/>
<path d="M17278.8 10011.9C17276 10012.4 17273.2 10012 17270.6 10011C17268 10009.9 17265.7 10008.2 17264 10006C17252.1 9989.58 17236.5 9976.21 17218.5 9966.93C17200.5 9957.64 17180.6 9952.7 17160.3 9952.48C17156.1 9952.74 17151.9 9951.36 17148.6 9948.61C17145.3 9945.87 17143.3 9941.97 17142.8 9937.73C17142.6 9935.61 17142.8 9933.47 17143.5 9931.44C17144.1 9929.41 17145.2 9927.53 17146.5 9925.9C17147.9 9924.27 17149.6 9922.93 17151.5 9921.96C17153.4 9920.98 17155.4 9920.39 17157.6 9920.21C17183.2 9920.05 17208.5 9925.94 17231.4 9937.39C17254.3 9948.84 17274.2 9965.55 17289.4 9986.13C17292 9989.5 17293.2 9993.77 17292.7 9998C17292.1 10002.2 17290 10006.1 17286.6 10008.7C17284.3 10010.5 17281.6 10011.6 17278.8 10011.9Z" fill="#263238"/>
<path d="M16740.4 10006.9C16737.4 10007.7 16734.2 10007.7 16731.1 10006.9C16729.2 10005.9 16727.5 10004.6 16726.1 10003C16724.7 10001.4 16723.6 9999.59 16723 9997.58C16722.3 9995.56 16722 9993.44 16722.1 9991.31C16722.3 9989.19 16722.8 9987.12 16723.8 9985.21C16734 9961.76 16749.7 9941.14 16769.6 9925.08C16789.5 9909.03 16813 9898.03 16838.1 9893.02C16840.2 9892.76 16842.4 9892.93 16844.4 9893.51C16846.5 9894.09 16848.4 9895.07 16850.1 9896.4C16851.7 9897.73 16853.1 9899.38 16854.2 9901.25C16855.2 9903.12 16855.8 9905.18 16856.1 9907.31C16856.4 9909.37 16856.3 9911.47 16855.8 9913.5C16855.3 9915.53 16854.4 9917.43 16853.2 9919.11C16851.9 9920.78 16850.4 9922.19 16848.6 9923.25C16846.8 9924.31 16844.8 9925 16842.7 9925.28C16822.9 9929.01 16804.4 9937.56 16788.7 9950.19C16773 9962.81 16760.7 9979.12 16752.8 9997.66C16751.6 10000.1 16749.9 10002.2 16747.7 10003.8C16745.5 10005.4 16743 10006.4 16740.4 10006.9Z" fill="#263238"/>
<path d="M17166.3 9747.81C17166.3 9747.81 17258.5 9681.43 17300.9 9752.88C17343.3 9824.33 17340.6 10014.7 17340.6 10014.7L17359 9981.06C17359 9981.06 17478.4 10405.2 17651.3 10298.2C17824.1 10191.3 18078.1 9760.72 17674.3 9541.29C17674.3 9541.29 17631.4 9438.95 17364.5 9388.25C17097.6 9337.54 16774.9 9502.57 16719.2 9679.12C16663.4 9855.68 16741.3 9955.71 16741.3 9955.71C16749.8 9917.28 16767.4 9881.42 16792.5 9851.07C16796 9869.06 16804 9885.88 16815.7 9900.04C16827.3 9914.2 16842.3 9925.24 16859.3 9932.2C16856.6 9896.12 16864.1 9860.02 16881 9828.02C16889.8 9859.39 16905.5 9888.37 16927.1 9912.84C16946.4 9731.21 17070 9694.33 17108.7 9695.72C17122.5 9697.25 17135.6 9703.11 17145.9 9712.46C17156.3 9721.81 17163.4 9734.17 17166.3 9747.81Z" fill="#263238"/>
<path d="M17826.9 10295C17814.6 10334.9 17794.4 10372 17767.7 10404.1C17741 10436.3 17708.1 10462.8 17671.1 10482.1C17571.5 10533.3 17498.7 10449 17507 10343.9C17514.3 10248.4 17574.7 10106.9 17684 10100C17707.9 10098.9 17731.7 10103.8 17753.3 10114.1C17774.8 10124.4 17793.5 10139.9 17807.7 10159.2C17821.8 10178.5 17831 10201 17834.3 10224.7C17837.7 10248.4 17835.1 10272.5 17826.9 10295Z" fill="#E4897B"/>
<path d="M16984.7 10486.3C17013.5 10516.4 17040 10548.6 17064 10582.6L17083.8 10573C17172.8 10526.9 17199.5 10477.5 17201.8 10434.7C17202.4 10414 17198.1 10393.5 17189.4 10374.7C17184.7 10364.1 17178.5 10354.1 17170.9 10345.2C17128.4 10397.5 17075.1 10440 17014.6 10469.7C16996.7 10480.8 16984.7 10486.3 16984.7 10486.3Z" fill="#263238"/>
<path d="M17014.6 10470.6L17039.1 10498.3C17122.5 10455.9 17177.4 10414.4 17189.4 10375.7C17184.7 10365 17178.5 10355 17170.9 10346.2C17128.4 10398.5 17075.1 10440.9 17014.6 10470.6Z" fill="white"/>
<path d="M17083.8 10573C17172.8 10526.9 17199.5 10477.5 17201.8 10434.7C17168.3 10452.5 17138.2 10476 17112.8 10504.3C17096.1 10523.5 17086 10547.6 17083.8 10573Z" fill="#A24E3F"/>
<path d="M8961.85 11578.8L8985.82 11834.7C8985.82 11834.7 10483.1 12062.4 10722.8 12295.6C10962.5 12528.9 11813 16218.1 11813 16218.1L11470 16264.2C11470 16264.2 10279.8 13544.4 10216.2 13150.7C10216.2 13150.7 9167.9 13189.9 8452.47 13189.9C7737.03 13189.9 7651.75 11576.5 7651.75 11576.5L8961.85 11578.8Z" fill="#407BFF"/>
<path opacity="0.3" d="M11813 16218.5L11470 16264.6C11470 16264.6 10983.2 15152.3 10615.8 14247.4C10407.9 13737.1 10238.8 13292.7 10216.2 13150.7C10216.2 13150.7 9490.59 13177.5 8833.23 13186.7C8700.47 13186.7 8570.94 13189.5 8450.62 13189.5C7735.19 13189.5 7649.91 11576 7649.91 11576H8960L8983.97 11831.9C8983.97 11831.9 10481.7 12059.2 10720.9 12292.9C10960.2 12526.6 11813 16218.5 11813 16218.5Z" fill="white"/>
<path d="M12077.6 16549.1C11847.1 16549.1 11816.2 16545.4 11686.2 16540.8C11575.1 16537.1 11547.9 16550.9 11459.4 16549.1C11384.7 16549.1 11387.5 16475.8 11410.6 16393.7C11422.1 16352.2 11439.6 16265.1 11456.7 16198.7L11795 16173.8C11841.1 16266 11949.9 16394.6 12079.9 16412.2C12209.9 16429.7 12169.8 16549.1 12077.6 16549.1Z" fill="#263238"/>
<path opacity="0.2" d="M10615.8 14249.3C10407.9 13738.9 10238.8 13294.6 10216.2 13152.6C10216.2 13152.6 9490.58 13179.3 8833.23 13188.5L8762.24 11935.1C8762.24 11935.1 9687.88 12067.9 10310.2 12604C10389 12670.4 10542.5 13697 10615.8 14249.3Z" fill="black"/>
<path d="M10293.1 13429.6H7614.41V13265.1C7614.41 13210.2 7636.22 13157.5 7675.04 13118.7C7713.85 13079.9 7766.5 13058.1 7821.39 13058.1H10086.2C10141.1 13058.1 10193.7 13079.9 10232.5 13118.7C10271.3 13157.5 10293.1 13210.2 10293.1 13265.1V13429.6Z" fill="#263238"/>
<path opacity="0.2" d="M10293.1 13429.6H7614.41V13265.1C7614.41 13210.2 7636.22 13157.5 7675.04 13118.7C7713.85 13079.9 7766.5 13058.1 7821.39 13058.1H10086.2C10141.1 13058.1 10193.7 13079.9 10232.5 13118.7C10271.3 13157.5 10293.1 13210.2 10293.1 13265.1V13429.6Z" fill="white"/>
<path d="M10200 15838.2L9167.44 15748.3V14392.1H8804.65V15747.9L7768.38 15840.1C7724.32 15844.4 7683.45 15865 7653.72 15897.8C7623.99 15930.6 7607.51 15973.3 7607.5 16017.6V16155.8H10361.4V16017.6C10361.8 15972.9 10345.5 15929.7 10315.6 15896.5C10285.7 15863.3 10244.5 15842.5 10200 15838.2Z" fill="#263238"/>
<path d="M7941.24 16324.1C7941.24 16371.1 7927.32 16417 7901.23 16456C7875.15 16495 7838.07 16525.5 7794.69 16543.4C7751.31 16561.4 7703.58 16566.1 7657.53 16556.9C7611.47 16547.8 7569.17 16525.2 7535.97 16492C7502.77 16458.8 7480.16 16416.5 7471 16370.4C7461.84 16324.4 7466.54 16276.6 7484.51 16233.3C7502.48 16189.9 7532.91 16152.8 7571.95 16126.7C7610.99 16100.6 7656.89 16086.7 7703.84 16086.7C7766.8 16086.7 7827.19 16111.7 7871.71 16156.2C7916.23 16200.8 7941.24 16261.1 7941.24 16324.1Z" fill="#263238"/>
<path d="M10264.1 16561.5C10395.2 16561.5 10501.5 16455.2 10501.5 16324.1C10501.5 16193 10395.2 16086.7 10264.1 16086.7C10133 16086.7 10026.7 16193 10026.7 16324.1C10026.7 16455.2 10133 16561.5 10264.1 16561.5Z" fill="#263238"/>
<path d="M8741.96 13341.1H9230.14V14497.7C9230.14 14543.1 9212.12 14586.6 9180.04 14618.6C9147.97 14650.7 9104.47 14668.7 9059.11 14668.7H8913.44C8868.09 14668.7 8824.59 14650.7 8792.51 14618.6C8760.44 14586.6 8742.42 14543.1 8742.42 14497.7V13341.1H8741.96Z" fill="#263238"/>
<path opacity="0.2" d="M8741.96 13341.1H9230.14V14497.7C9230.14 14543.1 9212.12 14586.6 9180.04 14618.6C9147.97 14650.7 9104.47 14668.7 9059.11 14668.7H8913.44C8868.09 14668.7 8824.59 14650.7 8792.51 14618.6C8760.44 14586.6 8742.42 14543.1 8742.42 14497.7V13341.1H8741.96Z" fill="white"/>
<path d="M7595.51 13472.5H10311.6C10357.7 13472.5 10395 13435.1 10395 13389.1V13370.2C10395 13324.1 10357.7 13286.7 10311.6 13286.7H7595.51C7549.43 13286.7 7512.08 13324.1 7512.08 13370.2V13389.1C7512.08 13435.1 7549.43 13472.5 7595.51 13472.5Z" fill="#263238"/>
<path opacity="0.2" d="M7941.24 16324.1C7941.24 16371.1 7927.32 16417 7901.23 16456C7875.15 16495 7838.07 16525.5 7794.69 16543.4C7751.31 16561.4 7703.58 16566.1 7657.53 16556.9C7611.47 16547.8 7569.17 16525.2 7535.97 16492C7502.77 16458.8 7480.16 16416.5 7471 16370.4C7461.84 16324.4 7466.54 16276.6 7484.51 16233.3C7502.48 16189.9 7532.91 16152.8 7571.95 16126.7C7610.99 16100.6 7656.89 16086.7 7703.84 16086.7C7766.8 16086.7 7827.19 16111.7 7871.71 16156.2C7916.23 16200.8 7941.24 16261.1 7941.24 16324.1Z" fill="white"/>
<path opacity="0.2" d="M10264.1 16561.5C10395.2 16561.5 10501.5 16455.2 10501.5 16324.1C10501.5 16193 10395.2 16086.7 10264.1 16086.7C10133 16086.7 10026.7 16193 10026.7 16324.1C10026.7 16455.2 10133 16561.5 10264.1 16561.5Z" fill="white"/>
<path d="M10520.9 11149.2H9693.42C9450.94 11149.2 9275.77 10931.1 9302.51 10662.9L9337.54 10304.2C9364.28 10035.5 9581.86 9817.42 9824.33 9817.42H10651.8C10894.3 9817.42 11069.4 10035.5 11043.2 10304.2L11007.7 10662.9C10981.4 10931.1 10763.3 11149.2 10520.9 11149.2Z" fill="#263238"/>
<path opacity="0.2" d="M10520.9 11149.2H9693.42C9450.94 11149.2 9275.77 10931.1 9302.51 10662.9L9337.54 10304.2C9364.28 10035.5 9581.86 9817.42 9824.33 9817.42H10651.8C10894.3 9817.42 11069.4 10035.5 11043.2 10304.2L11007.7 10662.9C10981.4 10931.1 10763.3 11149.2 10520.9 11149.2Z" fill="white"/>
<path d="M10444.8 10974.5H9957.1C9813.73 10974.5 9710.01 10845.9 9726.61 10686.8L9747.81 10475.2C9763.02 10316.2 9892.1 10187.6 10035.5 10187.6H10524.1C10667.5 10187.6 10771.2 10316.2 10754.6 10475.2L10733.4 10686.8C10716.8 10845.9 10588.2 10974.5 10444.8 10974.5Z" fill="#263238"/>
<path d="M10056.7 10658.2C10056.7 10658.2 9945.11 12900.9 9462.01 13285.8H9978.76C9978.76 13285.8 10439.7 12522 10473.4 10658.2H10056.7Z" fill="#263238"/>
<path d="M10472.5 9723.84L10561.4 9677.75C10578.1 9669.21 10596.6 9664.76 10615.4 9664.76C10634.1 9664.76 10652.6 9669.21 10669.3 9677.75L10828.8 9756.11C10860.2 9771.55 10887.4 9794.31 10908.2 9822.46C10929 9850.62 10942.7 9883.36 10948.2 9917.92L10955.6 9961.71C10813.1 10051.1 10593.7 10042.8 10593.7 10042.8L10530.6 10047.9C10517.7 10049.2 10504.7 10048 10492.3 10044.3C10479.9 10040.5 10468.3 10034.4 10458.3 10026.1C10448.3 10017.9 10440.1 10007.7 10434 9996.3C10428 9984.84 10424.3 9972.3 10423.1 9959.4L10412.1 9834.94C10410 9812.52 10414.6 9789.98 10425.4 9770.19C10436.1 9750.41 10452.5 9734.27 10472.5 9723.84Z" fill="#B97964"/>
<path opacity="0.2" d="M10472.5 9723.84L10561.4 9677.75C10578.1 9669.21 10596.6 9664.76 10615.4 9664.76C10634.1 9664.76 10652.6 9669.21 10669.3 9677.75L10828.8 9756.11C10860.2 9771.55 10887.4 9794.31 10908.2 9822.46C10929 9850.62 10942.7 9883.36 10948.2 9917.92L10955.6 9961.71C10813.1 10051.1 10593.7 10042.8 10593.7 10042.8L10530.6 10047.9C10517.7 10049.2 10504.7 10048 10492.3 10044.3C10479.9 10040.5 10468.3 10034.4 10458.3 10026.1C10448.3 10017.9 10440.1 10007.7 10434 9996.3C10428 9984.84 10424.3 9972.3 10423.1 9959.4L10412.1 9834.94C10410 9812.52 10414.6 9789.98 10425.4 9770.19C10436.1 9750.41 10452.5 9734.27 10472.5 9723.84Z" fill="black"/>
<path d="M9818.8 9833.55L9496.12 10241.5H9189.11L9229.21 9672.21C9461.55 9716.93 9818.8 9833.55 9818.8 9833.55Z" fill="#407BFF"/>
<path opacity="0.2" d="M9468.92 10241.5H9203.4L9368.43 9833.55C9368.43 9833.55 9462.93 9976.92 9468.92 10241.5Z" fill="black"/>
<path d="M8981.67 11732.8L7630.55 11607.4C7672.96 11463.6 7710.3 11322.5 7741.64 11186.5C7781.29 11020.1 7812.63 10860.6 7837.53 10711.7C7862.42 10562.8 7883.62 10424.5 7898.37 10299.1L7902.52 10263.6C7902.52 10243.8 7907.13 10224.5 7908.98 10206C7922.35 10084.8 7930.64 9979.22 7936.17 9892.1C7947.7 9722 7947.7 9623.81 7947.7 9623.81C8410.62 9535.16 8888.36 9563.52 9337.54 9706.32C9538.53 10272.4 8981.67 11732.8 8981.67 11732.8Z" fill="#407BFF"/>
<path d="M8977.06 9796.68C8956.54 9839.2 8925.16 9875.55 8886.1 9902.07C8847.03 9928.58 8801.66 9944.32 8754.57 9947.68C8707.47 9951.05 8660.33 9941.93 8617.89 9921.24C8575.45 9900.56 8539.22 9869.04 8512.85 9829.87L8454.31 9742.75L8382.4 9634.42C8503.17 9562.96 8550.65 9334.32 8566.79 9137.94C8571.86 9076.17 8573.7 9018.09 8573.7 8968.77L8877.03 9383.64C8855.81 9427.58 8840.32 9474.06 8830.93 9521.94C8827.09 9541.67 8825.54 9561.78 8826.32 9581.86C8826.78 9662.53 8866.89 9737.21 8977.06 9796.68Z" fill="#B97964"/>
<path opacity="0.2" d="M8876.1 9385.95C8854.89 9429.88 8839.39 9476.36 8830.01 9524.24C8750.26 9626.58 8626.26 9734.91 8455.23 9741.82L8382.4 9634.42C8503.17 9562.96 8550.65 9334.32 8566.79 9137.94C8571.86 9076.17 8573.7 9018.09 8573.7 8968.77L8876.1 9385.95Z" fill="black"/>
<path d="M8147.3 8693.1C8147.3 8693.1 7997.48 8636.86 8041.74 8533.14C8085.99 8429.42 8139.47 8430.34 8139.47 8430.34C8116.82 8387.93 8104.52 8340.78 8103.56 8292.71C8102.6 8244.65 8113 8197.04 8133.93 8153.76C8208.15 8015.46 8372.26 8071.7 8372.26 8071.7C8372.91 8028.26 8388.33 7986.33 8415.97 7952.82C8443.62 7919.31 8481.86 7896.2 8524.38 7887.31C8567.79 7880.13 8612.35 7887.32 8651.29 7907.79C8690.23 7928.26 8721.42 7960.89 8740.12 8000.71C8740.12 8000.71 8843.38 7866.57 8994.58 7903.44C9145.78 7940.32 9176.2 8150.99 9176.2 8150.99C9217.5 8137.52 9262.4 8140.5 9301.55 8159.31C9340.71 8178.11 9371.1 8211.29 9386.41 8251.94C9406.97 8294.37 9415.56 8341.61 9411.25 8388.56C9406.95 8435.52 9389.91 8480.4 9361.98 8518.39C9361.98 8518.39 9458.32 8472.29 9490.13 8627.64C9521.93 8782.99 9359.67 8919.44 9359.67 8919.44C9359.67 8919.44 9447.26 8930.04 9402.08 9044.82C9356.91 9159.61 9214.46 9161.45 9214.46 9161.45C9214.46 9161.45 9269.78 9189.57 9165.14 9284.07C9060.5 9378.57 8723.52 9243.5 8723.52 9243.5L8147.3 8693.1Z" fill="#263238"/>
<path d="M8559.41 8446.94C8236.73 8463.53 8144.53 8641.47 8136.7 8974.76C8128.86 9389.64 8236.27 9680.51 8634.09 9570.8C9173.43 9421.9 9094.15 8418.82 8559.41 8446.94Z" fill="#B97964"/>
<path d="M8343.68 8945.71C8320.44 8995.12 8291.34 9041.55 8257.01 9084C8267.18 9096.85 8280.69 9106.65 8296.06 9112.34C8311.42 9118.03 8328.05 9119.39 8344.14 9116.27L8343.68 8945.71Z" fill="#A24E3F"/>
<path d="M8539.59 8908.83C8539.59 8935.57 8555.27 8954.93 8572.78 8954.93C8590.3 8954.93 8604.13 8932.8 8603.67 8906.07C8603.21 8879.33 8587.99 8859.97 8570.02 8859.97C8552.04 8859.97 8538.67 8882.56 8539.59 8908.83Z" fill="#263238"/>
<path d="M8577.39 8861.35L8519.31 8840.15C8519.31 8840.15 8549.27 8888.09 8577.39 8861.35Z" fill="#263238"/>
<path d="M8210 8912.98C8210 8939.72 8225.67 8959.08 8243.65 8959.08C8261.62 8959.08 8274.99 8936.95 8274.07 8910.21C8273.15 8883.48 8258.4 8864.12 8240.88 8864.12C8223.36 8864.12 8209.53 8886.71 8210 8912.98Z" fill="#263238"/>
<path d="M8248.25 8865.04L8189.71 8844.3C8189.71 8844.3 8220.13 8891.78 8248.25 8865.04Z" fill="#263238"/>
<path d="M8673.27 8741.5C8671.35 8741.54 8669.44 8741.14 8667.68 8740.34C8665.93 8739.55 8664.37 8738.37 8663.13 8736.89C8645.73 8721.36 8625.03 8709.97 8602.6 8703.58C8580.16 8697.2 8556.57 8695.98 8533.6 8700.01C8531.81 8700.34 8529.98 8700.32 8528.2 8699.95C8526.42 8699.57 8524.74 8698.85 8523.24 8697.82C8521.74 8696.79 8520.46 8695.48 8519.47 8693.96C8518.48 8692.44 8517.8 8690.73 8517.46 8688.95C8516.92 8685.41 8517.77 8681.8 8519.84 8678.88C8521.9 8675.96 8525.01 8673.95 8528.53 8673.27C8556.15 8668.23 8584.58 8669.77 8611.49 8677.78C8638.4 8685.79 8663.05 8700.04 8683.42 8719.37C8685.95 8721.96 8687.37 8725.43 8687.37 8729.05C8687.37 8732.67 8685.95 8736.15 8683.42 8738.73C8680.51 8740.91 8676.88 8741.9 8673.27 8741.5Z" fill="#263238"/>
<path d="M8169.43 8731.82C8167.33 8731.81 8165.26 8731.35 8163.35 8730.48C8161.44 8729.6 8159.74 8728.33 8158.36 8726.75C8156.16 8723.81 8155.22 8720.12 8155.74 8716.49C8156.26 8712.86 8158.19 8709.59 8161.13 8707.39C8180.05 8691.49 8202.3 8680.05 8226.24 8673.91C8250.17 8667.76 8275.18 8667.07 8299.42 8671.89C8301.19 8672.41 8302.84 8673.29 8304.26 8674.46C8305.69 8675.63 8306.86 8677.07 8307.72 8678.71C8308.58 8680.34 8309.11 8682.13 8309.26 8683.96C8309.42 8685.8 8309.21 8687.65 8308.64 8689.41C8307.48 8692.79 8305.06 8695.59 8301.88 8697.22C8298.7 8698.85 8295.01 8699.19 8291.59 8698.17C8271.33 8694.52 8250.51 8695.44 8230.65 8700.86C8210.79 8706.29 8192.4 8716.07 8176.8 8729.51C8174.6 8730.94 8172.05 8731.74 8169.43 8731.82Z" fill="#263238"/>
<path d="M8939.72 8971.06C8939.72 8971.06 8775.15 8714.3 8787.6 8510.09C8787.6 8510.09 8135.78 8282.83 8138.08 8931.88C8138.08 8931.88 8045.89 8360.27 8599.06 8318.32C9152.23 8276.37 9191.88 9086.31 8918.52 9342.61C8918.06 9341.69 9041.6 9131.48 8939.72 8971.06Z" fill="#263238"/>
<path d="M8890.86 9042.05C8891.27 9023.43 8895.37 9005.07 8902.9 8988.03C8910.43 8970.99 8921.25 8955.6 8934.74 8942.75C8948.23 8929.9 8964.13 8919.84 8981.51 8913.15C8998.9 8906.46 9017.44 8903.27 9036.06 8903.76C9136.56 8909.75 9194.64 9112.12 8948.94 9174.35C8913.9 9184.03 8891.78 9150.38 8890.86 9042.05Z" fill="#B97964"/>
<path d="M8421.58 9303.89C8412.37 9304.55 8403.13 9304.55 8393.92 9303.89C8392.14 9303.56 8390.43 9302.88 8388.91 9301.89C8387.39 9300.9 8386.08 9299.62 8385.05 9298.12C8384.02 9296.62 8383.3 9294.93 8382.92 9293.16C8382.55 9291.38 8382.53 9289.54 8382.86 9287.76C8383.14 9285.99 8383.77 9284.3 8384.71 9282.78C8385.66 9281.26 8386.9 9279.94 8388.36 9278.91C8389.82 9277.88 8391.47 9277.15 8393.22 9276.77C8394.97 9276.39 8396.77 9276.36 8398.53 9276.69C8433.25 9282.8 8469.02 9277.02 8500.05 9260.29C8531.09 9243.57 8555.57 9216.86 8569.56 9184.5C8570.22 9182.8 8571.21 9181.26 8572.48 9179.95C8573.74 9178.64 8575.25 9177.59 8576.92 9176.86C8578.59 9176.13 8580.39 9175.74 8582.21 9175.71C8584.03 9175.67 8585.84 9176 8587.53 9176.66C8589.23 9177.33 8590.78 9178.32 8592.09 9179.59C8593.4 9180.85 8594.45 9182.36 8595.17 9184.03C8595.9 9185.7 8596.29 9187.5 8596.33 9189.32C8596.36 9191.14 8596.04 9192.95 8595.37 9194.64C8581.23 9228.57 8556.94 9257.29 8525.82 9276.85C8494.7 9296.42 8458.29 9305.86 8421.58 9303.89Z" fill="#263238"/>
<path d="M9058.19 8853.52C8981.21 8453.85 8390.24 8118.26 8168.51 8582.92C8205.68 8466.47 8277.58 8364.16 8374.56 8289.74C8374.56 8289.74 8973.83 8118.72 9079.4 8801.43L9058.19 8853.52Z" fill="#407BFF"/>
<path d="M8743.34 16549.1C8512.85 16549.1 8481.97 16545.4 8351.97 16540.8C8240.88 16537.1 8213.68 16550.9 8125.17 16549.1C8050.49 16549.1 8053.26 16475.8 8076.31 16393.7C8087.83 16352.2 8105.35 16265.1 8122.41 16198.7L8460.76 16173.8C8506.86 16266 8615.65 16394.6 8745.65 16412.2C8875.64 16429.7 8835.08 16549.1 8743.34 16549.1Z" fill="#263238"/>
<path d="M7652.21 11578.8C7652.21 11578.8 7191.24 12264.3 7441.08 12827.6C7690.93 13390.9 8954.47 13136.5 8954.47 13136.5L8121.95 16200.1L8520.23 16266C8520.23 16266 9932.2 13229.6 9968.16 12711.9C10004.1 12194.2 8479.67 11861.9 8479.67 11861.9L7652.21 11578.8Z" fill="#407BFF"/>
<path opacity="0.3" d="M7652.21 11578.8C7652.21 11578.8 7191.24 12264.3 7441.08 12827.6C7690.93 13390.9 8954.47 13136.5 8954.47 13136.5L8121.95 16200.1L8520.23 16266C8520.23 16266 9932.2 13229.6 9968.16 12711.9C10004.1 12194.2 8479.67 11861.9 8479.67 11861.9L7652.21 11578.8Z" fill="white"/>
<path opacity="0.2" d="M9058.19 10003.2C9058.19 10003.2 8412.82 10457.7 7902.52 10262.3C7902.52 10242.4 7907.13 10223.1 7908.98 10204.6C7922.35 10083.4 7930.64 9977.84 7936.18 9890.71C8101.55 9815.15 8273.23 9754.22 8449.24 9708.62C8630.42 9846.64 8837.51 9946.82 9058.19 10003.2Z" fill="black"/>
<path d="M8159.29 9624.73C8443.25 9763.02 8736.43 9934.97 9045.74 9998.12C9223.68 9986.6 9422.82 9914.22 9601.68 9865.36L10137.8 9703.1C10160.8 9695.87 10185.6 9697.46 10207.5 9707.55C10229.3 9717.65 10246.6 9735.52 10256 9757.69C10265.4 9779.86 10266.2 9804.74 10258.2 9827.46C10250.3 9850.18 10234.1 9869.11 10212.9 9880.57C10045.6 9972.77 9876.89 10057.6 9702.18 10135C9486.44 10223.5 9287.3 10326.8 9043.9 10348.9C8956.55 10347.9 8869.73 10335.2 8785.75 10311.1C8502.36 10228 8229.5 10112.4 7972.59 9966.77C7931.71 9940.03 7902.36 9898.91 7890.35 9851.56C7878.33 9804.21 7884.53 9754.07 7907.71 9711.07C7930.89 9668.07 7969.37 9635.34 8015.53 9619.35C8061.69 9603.36 8112.17 9605.28 8156.98 9624.73H8159.29Z" fill="#B97864"/>
<path d="M8006.7 9573.56C7758.24 9632.57 7749.94 10059 7978.12 10259L8531.3 9792.07C8531.3 9792.07 8301.27 9503.49 8006.7 9573.56Z" fill="#407BFF"/>
<path d="M10152.1 9705.4L10458.6 9698.02L10320.3 10008.3C10320.3 10008.3 10043.8 9998.58 10057.1 9857.52L10152.1 9705.4Z" fill="#B97964"/>
<path d="M10721.9 9849.69L10511.6 10076L10319.4 10008.3L10458.6 9698.02L10721.9 9849.69Z" fill="#B97964"/>
<path d="M14837.9 13437.9C15052.3 13881.4 15258.8 14324.8 15398.5 14799.7C15462.5 15122.3 15474.5 15450.6 15498.5 15770.9C15515.1 16036 15524.8 16300.6 15528.5 16566.6L15291.1 16591.5C15215.9 16217.6 15145.4 15800.4 15079.9 15423.4C15048.6 15252.8 15024.6 15085 14981.7 14920.9C14818.6 14498.2 14592.2 14063 14404.6 13647.2L14837.9 13437.9Z" fill="#DC897C"/>
<path d="M15191.9 14018.3L14816.3 14198.1L14583 14311L14441.5 13970.8L14293.5 13614.5L14418.4 12965C14802 13132.8 15191.9 14018.3 15191.9 14018.3Z" fill="#407BFF"/>
<path opacity="0.2" d="M14816.3 14198.1L14583 14311L14441.5 13970.8C14470.5 13778.1 14495 13614.5 14495 13614.5C14495 13614.5 14767.8 13859.3 14816.3 14198.1Z" fill="black"/>
<path d="M13691 11787.2C13695.2 11814.8 13713.1 11833.3 13731.1 11833.3C13749.1 11833.3 13760.2 11806.1 13756 11778.4C13751.9 11750.8 13733.4 11732.3 13715.4 11732.3C13697.5 11732.3 13684.1 11760 13691 11787.2Z" fill="#263238"/>
<path d="M13708.1 11835.1C13753.8 11914 13810.1 11986.3 13875.4 12049.9C13858.8 12066.4 13838.9 12079.1 13816.9 12087.1C13794.9 12095 13771.5 12098.1 13748.2 12096L13708.1 11835.1Z" fill="#DE5753"/>
<path d="M13564.2 11650.3C13560.1 11650.1 13556.2 11648.5 13553.2 11645.7C13550.2 11642.6 13548.5 11638.4 13548.5 11634.1C13548.5 11629.8 13550.2 11625.7 13553.2 11622.6C13571.2 11604.1 13593.5 11590.2 13618 11582.2C13642.6 11574.2 13668.8 11572.2 13694.2 11576.5C13696.3 11576.9 13698.3 11577.8 13700.1 11579C13701.9 11580.2 13703.4 11581.8 13704.5 11583.6C13705.7 11585.4 13706.5 11587.4 13706.8 11589.5C13707.2 11591.6 13707.2 11593.8 13706.7 11595.9C13706.2 11598 13705.4 11600 13704.2 11601.7C13703 11603.5 13701.4 11605 13699.6 11606.2C13697.8 11607.3 13695.8 11608.1 13693.7 11608.5C13691.6 11608.8 13689.4 11608.8 13687.3 11608.3C13667.1 11605.4 13646.4 11607.4 13627.1 11614.2C13607.7 11620.9 13590.3 11632.2 13576.2 11647C13574.5 11648.3 13572.6 11649.3 13570.6 11649.9C13568.5 11650.4 13566.4 11650.5 13564.2 11650.3Z" fill="#263238"/>
<path d="M13776.7 12203.9C13767.9 12315.2 13720.5 12419.9 13642.6 12499.8C13591.2 12552.7 13528 12592.6 13458.2 12616.5C13391.4 12639.7 13319.9 12645.8 13250.2 12634.5C13180.4 12623.2 13114.5 12594.6 13058.5 12551.5C12861.2 12404.9 12835.4 12205.3 12762.6 11871.1C12744.7 11793.6 12746.8 11712.8 12768.9 11636.4C12791 11560 12832.2 11490.5 12888.7 11434.5C12945.2 11378.6 13015.1 11338 13091.7 11316.6C13168.3 11295.2 13249.1 11293.7 13326.4 11312.4C13678.6 11395.8 13802.1 11889.5 13776.7 12203.9Z" fill="#E4897B"/>
<path d="M12889.4 12416.4C13027.7 12503.5 13550.4 12258.8 13464.2 11847.1C13464.2 11847.1 13670.3 11621.7 13660.1 11362.2C13650 11102.6 13475.7 10993.4 13285.8 11042.2C13117.1 11083.3 13117.6 11175 13117.6 11175C13117.6 11175 12326.5 11230.8 12479.6 11558.5C12143.1 11893.2 12719.3 12308.1 12889.4 12416.4Z" fill="#263238"/>
<path d="M13322.2 11911.2C13340.9 11994.2 13386.4 12068.7 13451.8 12123.2C13538 12194.2 13608 12131.5 13606.7 12031C13606.7 11938.8 13560.6 11792.7 13460.5 11760.9C13360.5 11729.1 13302.9 11811.1 13322.2 11911.2Z" fill="#E4897B"/>
<path opacity="0.2" d="M13752.8 12320.1C13729.8 12387.4 13692.1 12448.8 13642.6 12499.8C13591.2 12552.7 13528 12592.6 13458.2 12616.5C13411.3 12592.7 13366.3 12565.5 13323.6 12534.9L13393.7 12362.9C13393.7 12362.9 13608.5 12468 13752.8 12320.1Z" fill="black"/>
<path d="M13001.8 12838.2L12942.8 12433.9C12942.8 12433.9 13206.1 12249.5 13481.7 12373.5L13896.6 12873.7L13001.8 12838.2Z" fill="#E4897B"/>
<path d="M13944.5 12823.9L13848.2 12679.6C13848.2 12679.6 13149.4 12421 12844.7 12752.5C12844.7 12752.5 13526.4 13112.9 13944.5 12823.9Z" fill="#407BFF"/>
<path opacity="0.2" d="M13944.5 12823.9L13848.2 12679.6C13848.2 12679.6 13149.4 12421 12844.7 12752.5C12844.7 12752.5 13526.4 13112.9 13944.5 12823.9Z" fill="black"/>
<path d="M11261.2 16743.6L10998 16574L11098.9 16423.2L11373.2 16013.9L11636.9 16183.5L11333.6 16635.7L11261.2 16743.6Z" fill="#E4897B"/>
<path d="M11017.3 16552.3L11386.1 16548.6C11392.1 16548.7 11397.9 16550.8 11402.6 16554.6C11407.2 16558.3 11410.5 16563.5 11411.9 16569.3L11473.7 16837.2C11476 16848.7 11473.7 16860.6 11467.5 16870.6C11461.2 16880.5 11451.4 16887.7 11440.1 16890.6H11430.4C11311.4 16890.6 11225.2 16883.3 11076.3 16884.7C10984.2 16884.7 10707.6 16898 10581.3 16898.9C10455 16899.9 10436.5 16775.4 10489.1 16763.4C10719.6 16710.4 10895.6 16638.5 10969.4 16570.7C10982.6 16558.9 10999.6 16552.4 11017.3 16552.3Z" fill="#263238"/>
<path d="M11088.3 16321.3L11570.5 16451.3L14187.9 14465.4L12845.1 14171.3C12749.2 14150.8 12649.3 14160 12558.7 14197.6C12468.2 14235.3 12391.2 14299.6 12338 14382L11088.3 16321.3Z" fill="#263238"/>
<path opacity="0.2" d="M11088.3 16321.3L11570.5 16451.3L14187.9 14465.4L12845.1 14171.3C12749.2 14150.8 12649.3 14160 12558.7 14197.6C12468.2 14235.3 12391.2 14299.6 12338 14382L11088.3 16321.3Z" fill="black"/>
<path d="M9657.46 16753.3L9385.49 16597.9L9478.61 16442.1L9730.76 16018.9L10002.7 16174.3L9723.84 16641.7L9657.46 16753.3Z" fill="#E4897B"/>
<path d="M9396.09 16545.8H9764.87C9770.88 16545.9 9776.69 16548 9781.38 16551.7C9786.06 16555.5 9789.34 16560.7 9790.68 16566.6L9850.15 16835.3C9852.24 16846.9 9849.83 16858.9 9843.4 16868.7C9836.97 16878.6 9827.02 16885.6 9815.58 16888.3H9805.9C9687.43 16888.3 9600.76 16879.1 9451.87 16879.1C9359.67 16879.1 9083.09 16888.8 8956.78 16888.8C8830.47 16888.8 8813.41 16763.4 8864.58 16750.5C9095.07 16699.8 9272.55 16629.7 9347.23 16562.9C9360.94 16551.5 9378.28 16545.5 9396.09 16545.8Z" fill="#263238"/>
<path d="M14819.5 15508.2L12989.4 15512.8C12943.3 15350.5 12885.2 14785.8 12706.4 14087.5C12658 13898 12600.3 13698.8 12532.6 13494.6C12476.3 13309.9 12407.9 13129.2 12327.9 12953.4C12493.5 12853.4 12675.4 12783.3 12865.4 12746.5C13675.3 12608.2 14418.4 12965 14418.4 12965C14418.4 12965 14739.7 13859.3 14819.5 15508.2Z" fill="#407BFF"/>
<path opacity="0.2" d="M12706.4 14087.4C12658 13898 12600.3 13698.8 12532.6 13494.6L12660.3 13443C12660.3 13443 12861.3 13896.1 12706.4 14087.4Z" fill="black"/>
<path d="M11905.6 14400.9L12118.2 14501.4L12199.3 14143.7C12199.3 14143.7 12029.6 14084.2 11902.4 14170.9L11905.6 14400.9Z" fill="#E4897B"/>
<path d="M12422.9 14622.6L12432.5 14296.7L12199.3 14143.7L12118.2 14501.4L12422.9 14622.6Z" fill="#E4897B"/>
<path d="M12568.1 13513.5C12214.5 13704.8 11810.7 13882.3 11503.2 14132.6C11496.3 14138.6 11498.6 14141.4 11506.4 14114.6C11507.9 14097.6 11505.7 14080.5 11500 14064.4C11494.9 14046.9 11483.6 14031.8 11468.2 14022C11462.2 14019.7 11465.9 14025.2 11474.2 14030.7C11485.7 14037.9 11497.9 14043.9 11510.6 14048.7C11652.6 14102.7 11849.4 14120.6 12008.4 14140.9L12032.4 14378.3C11982.2 14392.6 11935.1 14402.3 11885.8 14411.5C11701.4 14443.3 11510.1 14465.9 11316.1 14401.8C11232.7 14376.8 11162.3 14320.2 11119.9 14244.1C11077.4 14168.1 11066.3 14078.5 11088.8 13994.3C11183.8 13657.4 12043 13236.9 12358.3 13080.7L12568.1 13514V13513.5Z" fill="#DC897C"/>
<path d="M12903.2 15123.3L12821.1 15333.5C12821.1 15333.5 11840.6 14122 11299.9 14052.9C10759.2 13983.7 9502.11 16285.8 9502.11 16285.8L9978.76 16430.1L11320.2 15213.2C11873.4 16178.4 12534.9 16886.5 13321.3 16886.5H14089.3C14948.1 16886.5 14957.8 15928.6 14788.1 15116.4L12903.2 15123.3Z" fill="#263238"/>
<path d="M12327.9 12953.4C12020.4 13065.9 11659 13407 11659 13407C11659 13407 11963.3 13934.4 11993.7 13914.1C12024.1 13893.8 12648.3 13715 12648.3 13715C12648.3 13715 12775.5 13549.9 12677.8 13270.6C12652.4 13191.7 12606.7 13120.9 12545.3 13065.2C12483.9 13009.6 12408.9 12971 12327.9 12953.4Z" fill="#407BFF"/>
<path d="M15415.5 16407.5L15749.7 16424.1L15573.2 16750.5C15573.2 16750.5 15275.8 16717.8 15299.4 16566.1L15415.5 16407.5Z" fill="#E4897B"/>
<path d="M16023.6 16610.4L15776.9 16839.5L15573.2 16750.5L15749.7 16424.1L16023.6 16610.4Z" fill="#E4897B"/>
<path d="M5057.84 13101.9C5281.87 13327.8 5502.68 13580.8 5770.97 13751.8C5770.97 13751.8 5787.56 13760.6 5788.95 13762C5781.73 13759.3 5774.05 13758.1 5766.36 13758.3C5759.44 13758.3 5770.51 13758.3 5782.49 13758.3C6088.58 13671.6 6373 13472 6654.66 13318.5C6676.46 13305.4 6702.33 13300.7 6727.34 13305.4C6752.36 13310.1 6774.77 13323.9 6790.31 13344C6805.85 13364.2 6813.44 13389.4 6811.64 13414.7C6809.83 13440.1 6798.75 13464 6780.51 13481.7C6561.08 13685 5969.65 14228.5 5658.95 14114.6C5469.03 14045 5310.45 13914.1 5161.09 13788.3C5015.2 13661.8 4877.7 13526 4749.44 13381.7C4573.81 13172.9 4866.99 12906.9 5057.84 13102.3V13101.9Z" fill="#E9B376"/>
<path d="M5443.21 13420.9C5404.03 13714.1 5166.62 14001.7 5166.62 14001.7L5116.84 13967.6L4874.36 13806.7C4874.36 13806.7 4869.76 13792.9 4862.84 13768.4C4855.93 13744 4847.17 13715.4 4836.56 13676.3C4780.79 13480.8 4680.29 13115.2 4667.85 12963.6C4968.87 12956.7 5104.39 13100 5443.21 13420.9Z" fill="#407BFF"/>
<path opacity="0.7" d="M5443.21 13420.9C5404.03 13714.1 5166.62 14001.7 5166.62 14001.7L5116.84 13967.6L4874.36 13806.7C4874.36 13806.7 4869.76 13792.9 4862.84 13768.4C4855.93 13744 4847.17 13715.4 4836.56 13676.3C4780.79 13480.8 4680.29 13115.2 4667.85 12963.6C4968.87 12956.7 5104.39 13100 5443.21 13420.9Z" fill="white"/>
<path opacity="0.2" d="M5116.84 13967.6L4874.36 13806.7C4874.36 13806.7 4869.75 13792.9 4862.84 13768.4C4871.83 13694.2 4885.38 13620.6 4903.41 13548.1C4967.29 13598.4 5019.47 13661.9 5056.32 13734.3C5093.18 13806.8 5113.83 13886.4 5116.84 13967.6Z" fill="black"/>
<path d="M4821.81 14866.5L5028.79 15228.8C5581.96 15099.7 7360.41 14828.7 7578.45 15438.6C7849.97 16195.9 5889.44 16800.3 4804.76 16837.2C3720.08 16874 2773.7 16615.9 3459.63 15034.3L4821.81 14866.5Z" fill="#263238"/>
<path opacity="0.2" d="M4821.81 14866.5L5028.79 15228.8C5581.96 15099.7 7360.41 14828.7 7578.45 15438.6C7849.97 16195.9 5889.44 16800.3 4804.76 16837.2C3720.08 16874 2773.7 16615.9 3459.63 15034.3L4821.81 14866.5Z" fill="black"/>
<path d="M7264.53 16509.4C7263.28 16510.2 7261.85 16510.6 7260.38 16510.6C7258.91 16510.6 7257.48 16510.2 7256.23 16509.4C7255.58 16508.4 7255.23 16507.2 7255.23 16506C7255.23 16504.7 7255.58 16503.5 7256.23 16502.5C7259.92 16490.5 7295.87 16386.3 7332.29 16375.3C7336.11 16374.3 7340.11 16374.4 7343.9 16375.4C7347.7 16376.5 7351.16 16378.5 7353.96 16381.3C7358.96 16385.5 7362.78 16390.9 7365.04 16397.1C7367.3 16403.2 7367.93 16409.8 7366.87 16416.3C7360.92 16435.9 7348.99 16453.1 7332.75 16465.6C7311.58 16482.5 7288.72 16497.2 7264.53 16509.4ZM7273.75 16489.6C7307.62 16474.9 7334.99 16448.3 7350.73 16414.9C7351.76 16410.6 7351.48 16406 7349.92 16401.8C7348.36 16397.6 7345.59 16394 7341.97 16391.4C7340.95 16390.1 7339.57 16389.2 7338.01 16388.7C7336.45 16388.2 7334.78 16388.2 7333.21 16388.6C7330.14 16389.8 7327.32 16391.5 7324.92 16393.7C7302.18 16422.3 7284.84 16454.8 7273.75 16489.6Z" fill="#263238"/>
<path d="M7262.23 16510.8C7261.32 16511.5 7260.18 16512 7259 16512C7257.82 16512 7256.68 16511.5 7255.77 16510.8C7252.08 16508 7202.3 16444.9 7209.67 16402C7210.56 16396.7 7212.53 16391.6 7215.46 16387.1C7218.4 16382.6 7222.23 16378.7 7226.73 16375.7C7230.63 16372.2 7235.56 16370 7240.79 16369.5C7246.02 16369 7251.28 16370.2 7255.77 16373C7282.05 16391.9 7278.82 16476.2 7265.91 16508.5V16511.7L7262.23 16510.8ZM7234.11 16387.3C7229.5 16391 7226.39 16396.2 7225.35 16402C7226.73 16433.9 7238.55 16464.6 7259 16489.1C7266.84 16453.2 7264.53 16393.7 7248.86 16383.1C7248.86 16383.1 7244.25 16379.4 7236.41 16383.1V16385.4L7234.11 16387.3Z" fill="#263238"/>
<path d="M5357.47 16687.3C5358.18 16686.2 5359.21 16685.3 5360.44 16684.7C5361.67 16684.1 5363.04 16683.9 5364.39 16684.1C5365.63 16684.2 5366.8 16684.7 5367.72 16685.5C5368.64 16686.4 5369.25 16687.5 5369.46 16688.7C5372.22 16701.2 5391.12 16810 5364.85 16837.2C5361.89 16839.8 5358.29 16841.6 5354.4 16842.4C5350.52 16843.2 5346.49 16843 5342.72 16841.8C5336.23 16840.7 5330.16 16837.9 5325.2 16833.5C5320.23 16829.2 5316.56 16823.6 5314.6 16817.3C5310.04 16797.6 5312.15 16776.8 5320.59 16758.3C5330.38 16733.5 5342.74 16709.7 5357.47 16687.3ZM5357.47 16709.5C5335.03 16738.7 5323.75 16775 5325.66 16811.8C5326.93 16816.2 5329.5 16820.2 5333.03 16823.2C5336.56 16826.1 5340.9 16827.9 5345.49 16828.4C5346.78 16829.3 5348.3 16829.7 5349.86 16829.7C5351.42 16829.7 5352.95 16829.3 5354.24 16828.4C5356.32 16826 5357.89 16823.2 5358.85 16820.1C5365.76 16783.6 5365.76 16746 5358.85 16709.5H5357.47Z" fill="#263238"/>
<path d="M6067.37 16138.3L5621.15 16297.4L5406.79 16373.9L5461.65 16608.5L5669.09 16564.3L6176.16 16455.9L6067.37 16138.3Z" fill="#EBB376"/>
<path d="M5520.2 16619.6L5482.4 16343C5481.89 16339.4 5480.66 16335.8 5478.78 16332.7C5476.9 16329.5 5474.4 16326.7 5471.44 16324.6C5468.47 16322.4 5465.1 16320.8 5461.52 16319.9C5457.94 16319.1 5454.23 16318.9 5450.59 16319.5L5312.29 16342.5C5312.29 16342.5 5127.9 16359.6 5089.64 16407.5C4981.77 16545.8 5049.08 17160.8 5120.99 17182.4C5147.26 17190.3 5174.92 17154.3 5186.45 17129.4C5222.87 17050.1 5286.94 16843.2 5318.29 16777.7C5354.24 16700.7 5456.58 16663.4 5498.99 16650C5505.67 16648.5 5511.53 16644.5 5515.45 16638.9C5519.36 16633.3 5521.06 16626.4 5520.2 16619.6Z" fill="#407BFF"/>
<path d="M5358.39 16687.3C5359.4 16686.6 5360.61 16686.2 5361.85 16686.3C5363.09 16686.2 5364.29 16686.6 5365.31 16687.3C5369.45 16687.3 5444.13 16719.6 5457.5 16760.6C5459.13 16765.8 5459.72 16771.2 5459.24 16776.6C5458.77 16782 5457.24 16787.2 5454.74 16792C5453.26 16797.1 5450.07 16801.5 5445.71 16804.6C5441.34 16807.6 5436.06 16809 5430.76 16808.6C5398.96 16804.9 5360.7 16729.3 5356.55 16695.2V16687.3C5357.16 16687.2 5357.78 16687.2 5358.39 16687.3ZM5443.21 16781.8C5445.04 16776.2 5445.04 16770 5443.21 16764.3C5434.45 16738.1 5392.96 16715 5371.76 16704.4C5381.9 16739.9 5412.79 16790.6 5431.69 16792.4C5431.69 16792.4 5437.22 16792.4 5441.37 16784.6V16781.8H5443.21Z" fill="#263238"/>
<path opacity="0.2" d="M6067.37 16138.3L5621.15 16297.4L5669.09 16564.3L6176.16 16455.9L6067.37 16138.3Z" fill="black"/>
<path d="M5748.38 16604.4L5876.53 16613.6L5790.79 16172L5645.12 16252.2L5748.38 16604.4Z" fill="#407BFF"/>
<path opacity="0.6" d="M5748.38 16604.4L5876.53 16613.6L5790.79 16172L5645.12 16252.2L5748.38 16604.4Z" fill="white"/>
<path opacity="0.2" d="M3886.49 14889.5L4554.91 15630.8C4554.91 15630.8 5292.47 15614.2 6191.38 16053C6191.38 16053 7154.36 15655.2 7242.86 15324.7C7359.03 14891.8 5030.18 15230.2 5030.18 15230.2L3886.49 14889.5Z" fill="black"/>
<path d="M4814.9 15186L3451.79 15027.8C3477.9 14887.1 3493.31 14744.5 3497.89 14601.4C3503.35 14397.5 3495.34 14193.5 3473.92 13990.6C3455.02 13796.6 3427.82 13573.5 3381.73 13311.6C3372.5 13264.8 3373.87 13216.5 3385.74 13170.3C3397.6 13124.1 3419.65 13081.1 3450.28 13044.5C3480.91 13007.9 3519.34 12978.6 3562.76 12958.8C3606.17 12939 3653.47 12929.1 3701.18 12929.9C3756.04 12929.9 3813.66 12932.7 3872.67 12936.4C4081.41 12945.7 4289.22 12969.9 4494.52 13008.8C4560.9 13022.1 4629.59 13038.7 4695.51 13054.9C4931.99 13116.2 5078.58 13414 5058.3 13654.1C5050.32 13840.8 5029.68 14026.7 4996.53 14210.5C4954.58 14481.6 4905.25 14746.2 4814.9 15186Z" fill="#407BFF"/>
<path opacity="0.7" d="M4814.9 15186L3451.79 15027.8C3477.9 14887.1 3493.31 14744.5 3497.89 14601.4C3503.35 14397.5 3495.34 14193.5 3473.92 13990.6C3455.02 13796.6 3427.82 13573.5 3381.73 13311.6C3372.5 13264.8 3373.87 13216.5 3385.74 13170.3C3397.6 13124.1 3419.65 13081.1 3450.28 13044.5C3480.91 13007.9 3519.34 12978.6 3562.76 12958.8C3606.17 12939 3653.47 12929.1 3701.18 12929.9C3756.04 12929.9 3813.66 12932.7 3872.67 12936.4C4081.41 12945.7 4289.22 12969.9 4494.52 13008.8C4560.9 13022.1 4629.59 13038.7 4695.51 13054.9C4931.99 13116.2 5078.58 13414 5058.3 13654.1C5050.32 13840.8 5029.68 14026.7 4996.53 14210.5C4954.58 14481.6 4905.25 14746.2 4814.9 15186Z" fill="white"/>
<path opacity="0.2" d="M3498.81 14601.9C3504.27 14398 3496.26 14194 3474.84 13991.1C3645.4 13789.7 3806.74 13622.3 3806.74 13622.3C3806.74 13622.3 4074.11 14310.6 3498.81 14601.9Z" fill="black"/>
<path d="M3714.09 13547.6C3729.76 13839.4 3726.99 14293.5 3780.01 14572.4L3766.18 14538.3C3756.96 14524.9 3762.49 14538.3 3772.17 14545.7C3784.64 14558 3797.88 14569.6 3811.81 14580.2C3996.2 14718.5 4217.47 14825 4425.37 14935.2L4687.67 15070.2C4710.41 15081.6 4728.16 15101 4737.56 15124.6C4746.95 15148.3 4747.33 15174.6 4738.62 15198.5C4729.92 15222.4 4712.73 15242.2 4690.33 15254.3C4667.93 15266.3 4641.88 15269.7 4617.14 15263.9C4517.11 15239.9 4421.22 15211.3 4323.96 15181.8C4047.37 15089.6 3763.41 15001.1 3525.55 14820.9C3479.09 14784.8 3442.99 14737.1 3420.9 14682.6C3314.42 14304.6 3306.12 13939.5 3298.29 13554.1C3307.97 13285.3 3697.03 13280.3 3713.16 13549L3714.09 13547.6Z" fill="#E9B376"/>
<path d="M5055.53 15053.7L4972.55 14993.3C4957.18 14982.1 4939.36 14974.9 4920.59 14972C4901.81 14969.2 4882.64 14971 4864.68 14977.1L4694.12 15034.3C4660.5 15045.7 4630.08 15064.9 4605.39 15090.4C4580.7 15115.9 4562.44 15146.9 4552.14 15180.9L4539.23 15223.8C4670.15 15332.5 4891.88 15354.2 4891.88 15354.2L4954.11 15367.1C4966.86 15370.2 4980.09 15370.7 4993.04 15368.6C5005.98 15366.6 5018.39 15361.9 5029.54 15355C5040.68 15348.1 5050.35 15339.1 5057.98 15328.4C5065.61 15317.8 5071.04 15305.7 5073.97 15292.9L5101.63 15169.4C5106.07 15147.7 5104.08 15125.2 5095.88 15104.6C5087.69 15084.1 5073.66 15066.3 5055.53 15053.7Z" fill="#EBB376"/>
<path d="M3589.62 12948.8C3323.18 13044.3 3246.66 13276.6 3241.12 13761.1C3379.42 13886.9 3799.37 13893.8 3799.37 13893.8C3799.37 13893.8 3872.2 13159 3589.62 12948.8Z" fill="#407BFF"/>
<path d="M6817.38 15320.6V15430.3C6817.38 15458.4 6784.19 15469.9 6756.07 15469.9H4563.67C4535.09 15469.9 4501.44 15458.4 4501.44 15430.3V15320.6H6817.38Z" fill="#263238"/>
<path opacity="0.4" d="M6817.38 15320.6V15430.3C6817.38 15458.4 6784.19 15469.9 6756.07 15469.9H4563.67C4535.09 15469.9 4501.44 15458.4 4501.44 15430.3V15320.6H6817.38Z" fill="white"/>
<path opacity="0.2" d="M6817.38 15320.6V15430.3C6817.38 15458.4 6784.19 15469.9 6756.07 15469.9H5308.61C5280.49 15469.9 5246.84 15458.4 5246.84 15430.3V15320.6H6817.38Z" fill="black"/>
<path d="M7184.78 14180.1L6923.41 15365.3C6918.57 15384.2 6907.66 15401.1 6892.34 15413.2C6877.02 15425.4 6858.14 15432.2 6838.59 15432.6H5409.56C5400.66 15432.3 5391.95 15430 5384.09 15425.9C5376.23 15421.7 5369.45 15415.8 5364.27 15408.5C5359.09 15401.3 5355.65 15393 5354.23 15384.2C5352.81 15375.4 5353.45 15366.4 5356.08 15357.9L5617 14181.9C5622.33 14164 5633.67 14148.4 5649.11 14137.9C5664.55 14127.3 5683.16 14122.3 5701.82 14123.9H7130.84C7169.11 14123.9 7191.23 14141.4 7184.78 14180.1Z" fill="#263238"/>
<path opacity="0.4" d="M7184.78 14180.1L6923.41 15365.3C6918.57 15384.2 6907.66 15401.1 6892.34 15413.2C6877.02 15425.4 6858.14 15432.2 6838.59 15432.6H5459.34C5450.44 15432.3 5441.72 15430 5433.86 15425.8C5425.99 15421.7 5419.19 15415.7 5413.98 15408.5C5408.76 15401.3 5405.28 15393 5403.79 15384.2C5402.31 15375.4 5402.86 15366.4 5405.41 15357.9L5666.78 14181.9C5672.11 14164 5683.45 14148.4 5698.9 14137.9C5714.34 14127.3 5732.95 14122.3 5751.6 14123.9H7130.84C7169.11 14123.9 7191.23 14141.4 7184.78 14180.1Z" fill="white"/>
<path opacity="0.2" d="M6480.87 14782.1C6476.31 14830.2 6454.87 14875.1 6420.35 14908.8C6385.84 14942.6 6340.48 14963 6292.33 14966.5C6212.58 14966.5 6165.1 14884 6188.15 14782.1C6211.2 14680.3 6290.02 14601.4 6367.93 14597.7C6345.34 14699.2 6394.2 14782.1 6473.49 14782.1H6480.87Z" fill="black"/>
<path d="M6707.21 13519.5L7014.22 13527.4L6875.92 13216.7C6875.92 13216.7 6602.1 13226.3 6612.71 13367.4L6707.21 13519.5Z" fill="#EBB376"/>
<path d="M7277.44 13376.2L7067.23 13149.4L6875 13216.7L7014.22 13527.4L7277.44 13376.2Z" fill="#EBB376"/>
<path d="M3805.36 12933.2C3774.01 12930.9 3869.9 13315.8 4335.48 13410.7C4801.07 13505.7 4765.11 13077.4 4728.7 12970C4728.7 12970 4116.52 12953.4 3805.36 12933.2Z" fill="#EBB376"/>
<path d="M3933.05 11428.1C3933.05 11428.1 4199.96 11132.1 4688.13 11284.7C5176.31 11437.3 5155.56 12308.5 4907.56 12624.8C4519.15 12611.1 4130.61 12647.4 3751.43 12732.6C3751.43 12732.6 3516.33 12100.6 3632.96 11729.1C3749.58 11357.5 3933.05 11428.1 3933.05 11428.1Z" fill="#263238"/>
<path d="M4031.24 12297C4062.12 12502.6 4086.09 12875.1 3939.04 12993.1C3939.04 12993.1 4130.81 12986.6 4502.82 13280.7C4637.88 13127.7 4558.13 13064.5 4558.13 13064.5C4338.25 12985.7 4350.7 12819.8 4395.41 12668.1L4031.24 12297Z" fill="#EBB376"/>
<path opacity="0.2" d="M4180.6 12448.7L4397.72 12668.1C4386.76 12703.6 4378.9 12740 4374.21 12776.9C4289.85 12754.8 4176.91 12647.4 4171.84 12556.5C4168.26 12520.4 4171.23 12483.8 4180.6 12448.7Z" fill="black"/>
<path d="M3907.24 11877.5C3930.29 12206.2 3933.51 12345.4 4099 12522.9C4348.39 12786.6 4744.37 12707.3 4815.82 12384.6C4882.66 12093.3 4833.34 11604.6 4514.34 11460.3C4447.06 11427 4372.1 11412.3 4297.21 11417.6C4222.32 11423 4150.21 11448.2 4088.33 11490.7C4026.45 11533.2 3977.04 11591.5 3945.21 11659.5C3913.37 11727.5 3900.26 11802.8 3907.24 11877.5Z" fill="#EBB376"/>
<path d="M4311.97 11978.5C4311.97 12006.6 4327.19 12029.2 4345.16 12030.1C4363.14 12031 4376.05 12008.9 4375.59 11981.2C4375.13 11953.6 4359.91 11930.5 4342.4 11930.1C4324.88 11929.6 4311.05 11950.8 4311.97 11978.5Z" fill="#263238"/>
<path d="M4655.86 11982.2C4655.86 12009.8 4671.54 12032.9 4689.05 12033.8C4706.57 12034.7 4719.94 12012.6 4719.48 11984.9C4719.02 11957.3 4703.81 11934.2 4686.29 11933.8C4668.77 11933.3 4655.86 11954.5 4655.86 11982.2Z" fill="#263238"/>
<path d="M4677.07 11934.7L4741.14 11918.1C4741.14 11918.1 4709.33 11968.8 4677.07 11934.7Z" fill="#263238"/>
<path d="M4551.68 12038.9C4577.46 12103.1 4611.23 12163.8 4652.18 12219.6C4638.37 12229 4622.62 12235.1 4606.1 12237.6C4589.58 12240.1 4572.71 12238.8 4556.75 12233.9L4551.68 12038.9Z" fill="#D58745"/>
<path d="M4256.66 11803.3C4258.73 11803.6 4260.86 11803.5 4262.86 11802.8C4264.86 11802.2 4266.68 11801.1 4268.18 11799.6C4282.57 11786.3 4300.06 11776.8 4319.06 11772C4338.06 11767.1 4357.97 11767.1 4376.97 11772C4378.91 11772.6 4380.95 11772.8 4382.98 11772.6C4385 11772.4 4386.97 11771.8 4388.74 11770.8C4390.52 11769.8 4392.07 11768.4 4393.29 11766.8C4394.52 11765.2 4395.4 11763.3 4395.87 11761.4C4397.02 11757.1 4396.46 11752.5 4394.31 11748.7C4392.16 11744.8 4388.58 11741.9 4384.35 11740.6C4360.29 11734.2 4334.99 11733.9 4310.81 11739.9C4286.63 11745.8 4264.35 11757.8 4246.05 11774.7C4243.1 11777.7 4241.44 11781.8 4241.44 11786C4241.44 11790.2 4243.1 11794.3 4246.05 11797.3C4248.7 11800.6 4252.49 11802.7 4256.66 11803.3Z" fill="#263238"/>
<path d="M4789.55 11806.1C4793.26 11807.5 4797.36 11807.5 4801.07 11806.1C4802.86 11804.9 4804.4 11803.5 4805.61 11801.7C4806.81 11800 4807.66 11798.1 4808.09 11796C4808.52 11793.9 4808.53 11791.8 4808.11 11789.7C4807.7 11787.6 4806.87 11785.7 4805.68 11783.9C4793.01 11761.2 4775.28 11741.7 4753.86 11726.9C4732.43 11712.1 4707.89 11702.4 4682.14 11698.7C4680.09 11698.5 4678.03 11698.8 4676.1 11699.5C4674.17 11700.3 4672.41 11701.4 4670.93 11702.8C4669.46 11704.2 4668.3 11706 4667.53 11707.9C4666.76 11709.8 4666.4 11711.8 4666.47 11713.9C4666.54 11718.2 4668.16 11722.3 4671.04 11725.5C4673.92 11728.8 4677.86 11730.8 4682.14 11731.4C4702.51 11734.5 4721.89 11742.3 4738.77 11754.1C4755.64 11765.9 4769.55 11781.5 4779.4 11799.6C4780.59 11801.3 4782.09 11802.7 4783.83 11803.9C4785.57 11805 4787.51 11805.7 4789.55 11806.1Z" fill="#263238"/>
<path d="M4333.18 11931L4397.26 11914.9C4397.26 11914.9 4366.83 11965.1 4333.18 11931Z" fill="#263238"/>
<path d="M3975.46 12074.8C3975.46 12074.8 4229 11875.7 4171.37 11564.1C4171.37 11564.1 4624.98 11384.7 4803.83 11840.6C4803.83 11840.6 4841.63 11449.7 4415.23 11373.2C3988.83 11296.7 3484.06 11874.8 3967.16 12313.1L3975.46 12074.8Z" fill="#263238"/>
<path d="M3802.59 12143C3819.04 12173.5 3841.36 12200.5 3868.26 12222.3C3895.15 12244.1 3926.1 12260.4 3959.33 12270.3C4045.53 12293.8 4084.25 12209 4056.59 12121.4C4031.24 12042.6 3956.1 11937 3872.2 11950.4C3788.3 11963.7 3759.72 12065.1 3802.59 12143Z" fill="#EBB376"/>
<path d="M4853.62 12034.3C4851.55 12034.2 4849.53 12033.6 4847.87 12032.3C4846.21 12031.1 4845 12029.3 4844.4 12027.3C4681.68 11454.3 4144.64 11572.4 4139.11 11573.3C4137.93 11573.5 4136.71 11573.6 4135.51 11573.4C4134.32 11573.2 4133.17 11572.8 4132.14 11572.1C4131.12 11571.5 4130.23 11570.6 4129.52 11569.6C4128.82 11568.7 4128.32 11567.5 4128.04 11566.4C4127.77 11565.2 4127.74 11564 4127.94 11562.8C4128.14 11561.6 4128.57 11560.4 4129.21 11559.4C4129.85 11558.4 4130.69 11557.5 4131.68 11556.8C4132.66 11556.1 4133.78 11555.6 4134.96 11555.3C4140.49 11555.3 4695.05 11432.2 4862.38 12022.3C4862.73 12023.4 4862.84 12024.7 4862.7 12025.9C4862.57 12027.1 4862.19 12028.3 4861.58 12029.4C4860.98 12030.5 4860.17 12031.4 4859.2 12032.2C4858.23 12032.9 4857.12 12033.5 4855.93 12033.8L4853.62 12034.3Z" fill="#263238"/>
<path d="M4572.89 12329.3C4556.8 12367 4543.54 12405.8 4533.24 12445.4H4511.58C4414.31 12434.8 4373.28 12399.3 4355.77 12360.2C4347.91 12341.5 4344.6 12321.3 4346.09 12301.2C4346.79 12289.7 4348.96 12278.4 4352.54 12267.5C4409.89 12300.7 4473.73 12321.1 4539.7 12327.4C4559.98 12328.4 4572.89 12329.3 4572.89 12329.3Z" fill="#263238"/>
<path d="M4539.7 12325.6L4527.25 12359.2C4435.05 12349.6 4371.9 12330.2 4346.09 12299.3C4346.79 12287.9 4348.96 12276.6 4352.54 12265.7C4409.89 12298.9 4473.73 12319.3 4539.7 12325.6Z" fill="white"/>
<path d="M4511.58 12443.6C4414.31 12433 4373.28 12397.5 4355.77 12358.3C4392.71 12363.1 4428.57 12374.2 4461.79 12391C4483.42 12403 4500.82 12421.4 4511.58 12443.6Z" fill="#DE5753"/>
<path d="M4495.91 13865.3C4494.44 13865.3 4492.97 13865.1 4491.62 13864.5C4490.26 13864 4489.05 13863.1 4488.07 13862C4243.13 13599.4 4058.44 13286.5 3946.88 12945.1C3946.18 12942.3 3946.6 12939.4 3948.07 12936.9C3949.54 12934.4 3951.92 12932.5 3954.72 12931.8C3956.08 12931.4 3957.5 12931.4 3958.89 12931.6C3960.28 12931.8 3961.61 12932.3 3962.81 12933C3964.01 12933.7 3965.06 12934.7 3965.88 12935.8C3966.71 12937 3967.3 12938.2 3967.63 12939.6C4076.21 13271.6 4254.78 13576.4 4491.3 13833.4C4518.95 13741.2 4633.74 13303.3 4460.87 12967.7C4460.03 12965.2 4460.1 12962.5 4461.08 12960.1C4462.06 12957.6 4463.88 12955.6 4466.22 12954.4C4468.55 12953.2 4471.25 12952.8 4473.82 12953.4C4476.39 12954 4478.66 12955.5 4480.23 12957.6C4677.99 13341.6 4507.89 13852.8 4506.05 13857.9C4505.44 13859.7 4504.41 13861.2 4503.04 13862.5C4501.68 13863.8 4500.02 13864.8 4498.21 13865.3H4495.91Z" fill="#263238"/>
<path d="M4510.2 13845.9L4545.23 13892C4548.37 13895.9 4550.08 13900.8 4550.08 13905.8C4550.08 13910.8 4548.37 13915.7 4545.23 13919.6L4509.74 13965.7C4507.61 13968.3 4504.97 13970.3 4501.98 13971.7C4499 13973.1 4495.74 13973.8 4492.45 13973.8C4489.15 13973.8 4485.9 13973.1 4482.91 13971.7C4479.93 13970.3 4477.28 13968.3 4475.16 13965.7L4441.97 13927.9C4439.06 13924.1 4437.48 13919.4 4437.48 13914.6C4437.48 13909.7 4439.06 13905.1 4441.97 13901.2L4471.47 13847.7C4473.4 13844.4 4476.14 13841.6 4479.44 13839.6C4482.73 13837.6 4486.48 13836.4 4490.33 13836.2C4494.19 13836.1 4498.02 13836.8 4501.49 13838.5C4504.96 13840.2 4507.96 13842.7 4510.2 13845.9Z" fill="white"/>
<path opacity="0.7" d="M3589.62 12948.8C3323.18 13044.3 3246.66 13276.6 3241.12 13761.1C3379.42 13886.9 3799.37 13893.8 3799.37 13893.8C3799.37 13893.8 3872.2 13159 3589.62 12948.8Z" fill="white"/>
<path d="M6377.15 16646.3L6844.58 16723.3L7069.07 16760.2L7134.53 16528.3L6931.7 16466.5L6435.69 16315.8L6377.15 16646.3Z" fill="#EBB376"/>
<path d="M7088.9 16490.5L6987.94 16750.5C6986.62 16754 6985.99 16757.7 6986.11 16761.4C6986.23 16765.1 6987.09 16768.8 6988.63 16772.2C6990.17 16775.6 6992.37 16778.6 6995.11 16781.2C6997.84 16783.7 7001.04 16785.6 7004.54 16786.9L7134.99 16833C7134.99 16833 7306.02 16907.7 7361.33 16883.7C7523.14 16814.1 7761.46 16243.9 7708.91 16192.3C7689.55 16172.4 7648.06 16192.3 7625.93 16207C7555.87 16258.6 7399.59 16408.5 7340.59 16450.9C7271.44 16500.7 7165.88 16485 7120.24 16475.3C7114.06 16473.7 7107.5 16474.3 7101.75 16477.1C7096 16479.9 7091.44 16484.7 7088.9 16490.5Z" fill="#407BFF"/>
<path opacity="0.2" d="M6377.15 16646.3L6844.58 16723.3L6931.7 16466.5L6435.69 16315.8L6377.15 16646.3Z" fill="black"/>
<path d="M6851.03 16418.1C6851.03 16418.1 4945.36 15346.8 4287.08 15377.3C3628.81 15407.7 3534.77 15987.6 3805.82 16350.4C4076.88 16713.2 4578.42 16801.7 4578.42 16801.7C4578.42 16801.7 4237.76 16318.6 4287.08 16184C4336.41 16049.4 4529.1 16237.4 4529.1 16237.4C4529.1 16237.4 5727.63 16624.7 6777.28 16713.6L6851.03 16418.1Z" fill="#263238"/>
<path d="M6881.92 16388.6L6774.05 16316.3L6635.3 16741.7H6801.71L6881.92 16388.6Z" fill="#407BFF"/>
<path opacity="0.6" d="M6881.92 16388.6L6774.05 16316.3L6635.3 16741.7H6801.71L6881.92 16388.6Z" fill="white"/>
</svg>
