<svg width="100" height="100" viewBox="0 0 100 100" fill="none" xmlns="http://www.w3.org/2000/svg">
<rect width="100" height="100" rx="50" fill="#0066FF"/>
<path d="M47.2749 25.1645C49.0413 24.5597 50.9586 24.5597 52.7249 25.1645C55.2024 26.0108 59.7849 27.6683 66.4712 30.4533C71.2837 32.4595 74.6974 34.012 76.9962 35.1133C78.4949 35.8308 79.3549 37.2445 79.3549 38.747C79.3549 40.2495 78.4949 41.6633 76.9949 42.3808C74.6974 43.4808 71.2837 45.0345 66.4712 47.0408C59.7849 49.8258 55.2024 51.4833 52.7249 52.3283C50.9586 52.933 49.0413 52.933 47.2749 52.3283C44.7974 51.4833 40.2149 49.8258 33.5287 47.0408C31.7195 46.2881 29.9182 45.5168 28.1249 44.727V64.692C29.3742 65.1361 30.4266 66.0069 31.0965 67.1511C31.7665 68.2953 32.0109 69.6392 31.7867 70.946C31.5625 72.2528 30.8842 73.4384 29.8712 74.2939C28.8583 75.1494 27.5758 75.6197 26.2499 75.622C24.9222 75.6231 23.6368 75.1546 22.6213 74.2992C21.6058 73.4438 20.9256 72.2567 20.7011 70.9481C20.4766 69.6394 20.7223 68.2935 21.3947 67.1486C22.067 66.0037 23.1227 65.1335 24.3749 64.692V43.0295C23.8799 42.7987 23.4233 42.5824 23.0049 42.3808C21.5049 41.6633 20.6449 40.2495 20.6449 38.747C20.6449 37.2445 21.5049 35.8308 23.0049 35.1133C25.3024 34.012 28.7162 32.4595 33.5299 30.4533C40.2149 27.6683 44.7974 26.0108 47.2762 25.1658" fill="white" fill-opacity="0.9"/>
<path d="M46.065 55.245C41.2746 53.6079 36.5418 51.8068 31.875 49.845V50.2062C31.875 54.1337 32.0763 56.6487 32.2863 58.2062C32.535 60.0512 33.61 61.6725 35.3075 62.5612C37.7663 63.8475 42.5213 65.6225 50 65.6225C57.4787 65.6225 62.2338 63.8475 64.6925 62.56C66.39 61.6725 67.4663 60.0512 67.7138 58.2062C67.9238 56.6487 68.125 54.1337 68.125 50.2062V49.8438C63.4582 51.8056 58.7254 53.6066 53.935 55.2437C51.3842 56.1159 48.6158 56.1172 46.065 55.245Z" fill="white" fill-opacity="0.9"/>
</svg>
