<svg width="100" height="100" viewBox="0 0 100 100" fill="none" xmlns="http://www.w3.org/2000/svg">
<rect width="100" height="100" rx="50" fill="#0066FF"/>
<g clip-path="url(#clip0_1111_388)">
<path d="M56.4748 32.6069C56.1022 31.6848 56.1112 30.6524 56.4998 29.7369C56.8884 28.8214 57.6248 28.0978 58.5469 27.7252C59.4691 27.3526 60.5015 27.3616 61.417 27.7502C62.3325 28.1388 63.0561 28.8752 63.4287 29.7974L73.7303 55.2949C74.1029 56.2171 74.0939 57.2494 73.7053 58.1649C73.3167 59.0804 72.5803 59.8041 71.6582 60.1766C70.736 60.5492 69.7037 60.5402 68.7882 60.1516C67.8727 59.763 67.149 59.0266 66.7765 58.1045L56.4748 32.6069ZM54.8349 35.2216C50.9333 39.3595 45.7006 42.9054 40.16 45.6158L46.0011 60.0729C46.8622 59.78 47.7295 59.506 48.6026 59.251C53.5524 57.8012 58.5881 57.0177 63.7673 57.3303L54.8349 35.2216ZM43.6344 60.8889L37.8926 46.6775C36.3417 47.3769 34.6901 48.0873 33.2878 48.6809C32.0669 49.1939 31.0965 50.166 30.5854 51.3877C30.0744 52.6094 30.0637 53.9829 30.5556 55.2124L32.4287 59.8484C33.4644 62.412 36.3748 63.6359 38.9321 62.6377L40.0893 62.1918C41.2659 61.7435 42.4476 61.3092 43.6344 60.8889ZM47.8687 62.0928C48.5501 61.8751 49.2312 61.67 49.9121 61.4776L52.0812 65.158C52.2805 65.4675 52.4089 65.8171 52.4575 66.1819C52.506 66.5468 52.4733 66.9179 52.3619 67.2686C52.2504 67.6194 52.0628 67.9412 51.8126 68.2111C51.5624 68.481 51.2556 68.6924 50.9143 68.83L49.6441 69.3432C49.1935 69.5252 48.6996 69.572 48.2229 69.4778C47.7462 69.3835 47.3073 69.1524 46.9598 68.8126L41.5915 64.2947C42.9126 63.7989 44.24 63.3201 45.5734 62.8584C46.3484 62.5921 47.1135 62.3369 47.8687 62.0928Z" fill="white" fill-opacity="0.9"/>
</g>
<defs>
<clipPath id="clip0_1111_388">
<rect width="40" height="40" fill="white" transform="translate(24 38.9844) rotate(-22)"/>
</clipPath>
</defs>
</svg>
