<svg width="100" height="100" viewBox="0 0 100 100" fill="none" xmlns="http://www.w3.org/2000/svg">
<rect width="100" height="100" rx="50" fill="#0066FF"/>
<path d="M40.6957 44.3607L57.471 61.136C59.3546 63.0185 61.3132 62.7175 63.0703 60.9592L75.5257 48.5542C77.2828 46.7971 77.5603 44.8385 75.6757 42.955L73.1396 40.4435C70.1525 43.105 61.7643 49.0825 60.4593 47.7764C60.0318 47.3489 60.3843 46.9728 60.635 46.721C63.3971 43.8839 67.0882 39.3635 67.566 34.8185L54.3318 21.5842C52.775 20.4271 50.4639 20.8557 49.2093 21.8607C46.6732 25.4521 46.7235 31.4532 40.6957 38.636C39.0393 40.645 38.7628 42.4278 40.6957 44.3607ZM25.88 76.6042C29.195 79.8689 33.3639 79.9685 36.3264 77.006C38.6621 74.696 41.0975 68.4935 42.7807 65.606L49.8114 72.611C51.8203 74.621 54.0553 74.6703 55.9389 72.7878L57.5214 71.1807C59.4039 69.2971 59.3535 67.0621 57.3703 65.0521L37.4568 45.1407C35.4478 43.106 33.2385 43.0567 31.3293 44.9907L29.7478 46.57C27.8139 48.4782 27.8643 50.6628 29.8978 52.6975L36.8793 59.7035C34.0164 61.3857 27.7893 63.8468 25.4793 66.1568C22.4396 69.1707 22.5907 73.3653 25.88 76.6042ZM29.2957 73.0621C28.4664 72.2082 28.4418 70.8528 29.2957 69.9989C30.1743 69.145 31.5307 69.145 32.3846 69.9989C33.2385 70.8775 33.2385 72.1835 32.3846 73.0632C31.5307 73.9428 30.1743 73.9653 29.2957 73.0621Z" fill="white" fill-opacity="0.9"/>
</svg>
