<svg width="80" height="36" viewBox="0 0 80 36" fill="none" xmlns="http://www.w3.org/2000/svg">
<path d="M60.0459 1.24112C60.5679 0.845368 61.0252 0.512129 61.7279 0C61.8009 0.766266 61.8755 1.2076 61.8794 1.64956C61.8955 3.47587 61.9057 5.30254 61.8863 7.12874C61.8767 8.03643 62.2704 8.40018 63.1827 8.44679C66.2086 8.6014 66.257 8.68023 66.2204 11.7854C66.2013 13.4053 66.124 13.4794 64.4772 13.5445C64.0965 13.5596 63.7176 13.615 63.3371 13.6415C62.2282 13.7188 61.8588 14.3093 61.8691 15.4076C61.9128 20.0795 61.8814 24.752 61.8904 29.4243C61.8934 30.9885 62.0249 31.1066 63.5462 31.1346C63.9708 31.1424 64.3965 31.1282 64.8201 31.1525C66.4342 31.245 65.9829 32.5126 65.9236 33.3595C65.8581 34.2959 66.6648 35.8473 64.8297 35.9395C62.4572 36.0588 60.0741 35.9632 57.6957 35.973C56.5839 35.9776 56.5293 35.2349 56.5302 34.4122C56.535 30.1646 56.5635 25.9167 56.5223 21.6696C56.4726 16.5354 56.3831 11.4012 56.2602 6.2683C56.2321 5.095 56.614 4.2537 57.5407 3.5376C58.4104 2.86562 59.1721 2.05388 60.0459 1.24112Z" fill="#0C5400"/>
<path d="M32.6281 20.4928C32.8633 21.0493 32.9964 21.5631 33.1417 22.124C35.1921 19.5676 39.8789 18.7025 42.041 22.6315C43.3143 21.0555 44.7946 19.8904 46.9375 19.9087C49.5104 19.9306 51.7485 21.8874 51.9219 24.4714C52.0888 26.9575 52.1121 29.4532 52.1928 31.9449C52.2076 32.3993 52.1949 32.8545 52.1949 33.3699C52.9993 33.4116 53.6626 33.4459 54.4063 33.4845C54.4063 34.1904 54.4063 34.8525 54.4063 35.6252C52.732 35.6252 51.0199 35.6252 49.1349 35.6252C49.1349 33.315 49.1483 30.9938 49.1292 28.6729C49.1198 27.5331 49.1917 26.3663 48.9762 25.2605C48.6043 23.3522 47.3227 22.317 45.8289 22.4686C44.3421 22.6195 42.8372 24.1809 42.7827 25.8532C42.7027 28.3112 42.7621 30.7737 42.7621 33.3925C43.6111 33.3925 44.3888 33.3925 45.1365 33.3925C45.5283 35.6237 45.4374 35.7368 43.405 35.7328C42.5549 35.7312 41.7022 35.6844 40.8556 35.7372C39.9506 35.7937 39.6735 35.4112 39.6848 34.5406C39.7217 31.6934 39.7246 28.845 39.6871 25.9978C39.6685 24.5804 39.158 23.3964 37.7887 22.7139C36.1215 21.8828 33.5215 23.5232 33.3603 26.0291C33.2057 28.4334 33.3269 30.8554 33.3269 33.3833C34.174 33.3833 34.9218 33.3833 35.7704 33.3833C35.7704 34.1861 35.7704 34.8762 35.7704 35.6511C33.3142 35.6511 30.8703 35.6511 28.3241 35.6511C28.3241 34.9516 28.3241 34.2626 28.3241 33.4882C28.9232 33.4538 29.503 33.4205 30.2621 33.3769C30.2621 31.5458 30.2621 29.7337 30.2621 27.9217C30.2621 26.1474 30.2621 24.3731 30.2621 22.5307C29.5565 22.4885 28.9777 22.4538 28.3121 22.4139C28.3121 21.7743 28.3121 21.1688 28.3121 20.4503C29.7433 20.4503 31.1347 20.4503 32.6281 20.4928Z" fill="#18A800"/>
<path d="M75.403 23.9956C75.4026 20.897 75.4109 17.926 75.3981 14.955C75.3915 13.4252 75.2585 13.3113 73.7029 13.2866C73.6605 13.286 73.618 13.2865 73.5756 13.2861C70.764 13.2581 70.2898 12.6964 70.8789 9.88447C70.9539 9.52652 71.5103 9.02 71.8572 9.00893C74.1036 8.93723 76.3541 8.96226 78.6025 9.00174C79.5779 9.01886 80.001 9.56606 79.9985 10.5711C79.9789 18.4655 79.9767 26.36 80.0022 34.2543C80.0058 35.364 79.5542 35.7621 78.479 35.7381C76.4851 35.6935 74.4891 35.6982 72.495 35.7349C71.4601 35.754 70.9912 35.3245 71.0702 34.295C71.0766 34.2107 71.0687 34.1254 71.0685 34.0405C71.0602 30.8866 70.9267 31.1019 73.8255 31.1494C74.959 31.168 75.4517 30.7699 75.4156 29.5978C75.3594 27.7745 75.4022 25.9482 75.403 23.9956Z" fill="#0C5400"/>
<path d="M5.3138 25.1586C5.18698 25.9984 5.04 26.7416 5.02612 27.4872C4.99058 29.396 5.01426 31.3059 5.01426 33.3758C5.84683 33.3758 6.6238 33.3758 7.48144 33.3758C7.48144 34.195 7.48144 34.8579 7.48144 35.6274C5.04114 35.6274 2.56422 35.6274 0 35.6274C0 34.9465 0 34.2557 0 33.4878C0.62124 33.4521 1.20178 33.4187 1.86615 33.3806C1.86615 27.468 1.86615 21.5905 1.86615 15.6391C1.24577 15.602 0.667148 15.5675 0.00258394 15.5278C0.00258394 14.8023 0.00258394 14.1115 0.00258394 13.3517C1.6445 13.3517 3.23976 13.3517 4.97146 13.3517C4.97146 16.2401 4.97146 19.1025 4.97146 21.8029C6.31722 21.189 7.54992 20.3679 8.89875 20.0666C11.5217 19.4808 13.9398 20.8282 14.6547 23.4551C15.0776 25.0092 15.1115 26.6841 15.1964 28.3112C15.2823 29.957 15.2154 31.6108 15.2154 33.3495C15.7439 33.4039 16.1849 33.4494 16.6814 33.5005C16.6814 34.2278 16.6814 34.8898 16.6814 35.6423C15.2267 35.6423 13.8007 35.6423 12.1555 35.6423C12.1555 35.2258 12.1556 34.7815 12.1555 34.3372C12.1554 31.7455 12.1754 29.1535 12.146 26.5621C12.1331 25.4154 11.8964 24.3494 11.0115 23.4695C9.42287 21.8896 6.88627 22.4729 5.81826 24.1764C5.64162 24.4582 5.50785 24.7668 5.3138 25.1586Z" fill="#18A800"/>
<path d="M21.0809 25.531C21.0809 24.4791 21.0809 23.5536 21.0809 22.527C20.2325 22.4879 19.4871 22.4535 18.6406 22.4144C18.6406 21.7834 18.6406 21.1808 18.6406 20.4993C20.4227 20.4993 22.1868 20.4993 24.1077 20.4993C24.1077 24.7669 24.1077 29.0263 24.1077 33.361C24.8347 33.4066 25.4126 33.4428 26.0855 33.4849C26.0855 34.1908 26.0855 34.8806 26.0855 35.7226C23.7749 35.7226 21.4836 35.8668 19.2227 35.6666C17.9414 35.5532 18.7743 34.3189 18.5231 33.4784C19.3877 33.4784 20.1347 33.4784 21.0809 33.4784C21.0809 30.7987 21.0809 28.2281 21.0809 25.531Z" fill="#18A800"/>
<path d="M23.3816 17.8926C22.1635 18.2363 21.2068 17.8129 20.9157 16.761C20.631 15.7324 21.0224 14.9535 22.0129 14.5019C22.904 14.0956 23.9657 14.4585 24.3662 15.3111C24.8614 16.3652 24.5528 17.2612 23.3816 17.8926Z" fill="#18A800"/>
<path d="M79.0159 3.85741C77.8403 4.0259 76.6259 4.22079 75.4271 4.15012C75.2156 4.13765 74.9884 3.02513 74.9165 2.40348C74.8476 1.80826 74.9714 1.19075 75.038 0.156555C76.5483 1.54911 77.7653 2.67126 79.0159 3.85741Z" fill="#0C5400"/>
</svg>
