<svg width="140" height="140" viewBox="0 0 140 140" fill="none" xmlns="http://www.w3.org/2000/svg">
<rect x="48.5986" width="103.518" height="103.518" rx="51.7591" transform="rotate(28 48.5986 0)" fill="#0066FF"/>
<path d="M60.3398 49.4669C60.3398 48.506 60.7216 47.5844 61.401 46.9049C62.0805 46.2255 63.0021 45.8438 63.963 45.8438H76.0401C77.001 45.8438 77.9226 46.2255 78.602 46.9049C79.2815 47.5844 79.6632 48.506 79.6632 49.4669V51.8823C79.6632 52.8432 79.2815 53.7648 78.602 54.4443C77.9226 55.1237 77.001 55.5054 76.0401 55.5054H63.963C63.0021 55.5054 62.0805 55.1237 61.401 54.4443C60.7216 53.7648 60.3398 52.8432 60.3398 51.8823V49.4669Z" fill="white" fill-opacity="0.9"/>
<path fill-rule="evenodd" clip-rule="evenodd" d="M56.7167 50.7656C53.6781 50.9347 51.7602 51.4178 50.3859 52.7946C48.2627 54.9177 48.2627 58.3332 48.2627 65.164V79.6565C48.2627 86.4898 48.2627 89.9052 50.3859 92.0283C52.5066 94.1491 55.9244 94.1491 62.7552 94.1491H77.2478C84.0786 94.1491 87.4964 94.1491 89.6172 92.0283C91.7403 89.9028 91.7403 86.4898 91.7403 79.6565V65.164C91.7403 58.3332 91.7403 54.9177 89.6172 52.7946C88.2428 51.4178 86.325 50.9347 83.2864 50.7656V51.884C83.2864 53.8058 82.5229 55.6489 81.164 57.0079C79.805 58.3668 77.9619 59.1302 76.0401 59.1302L63.963 59.1302C62.0411 59.1302 60.198 58.3668 58.8391 57.0079C57.4801 55.6489 56.7167 53.8058 56.7167 51.884V50.7656ZM56.1128 66.3765C56.1128 65.8961 56.3037 65.4353 56.6434 65.0955C56.9832 64.7558 57.4439 64.5649 57.9244 64.5649H82.0786C82.5591 64.5649 83.0199 64.7558 83.3596 65.0955C83.6994 65.4353 83.8902 65.8961 83.8902 66.3765C83.8902 66.857 83.6994 67.3178 83.3596 67.6575C83.0199 67.9972 82.5591 68.1881 82.0786 68.1881H57.9244C57.4439 68.1881 56.9832 67.9972 56.6434 67.6575C56.3037 67.3178 56.1128 66.857 56.1128 66.3765ZM58.5283 74.8305C58.5283 74.35 58.7191 73.8893 59.0588 73.5495C59.3986 73.2098 59.8594 73.0189 60.3398 73.0189H79.6632C80.1437 73.0189 80.6045 73.2098 80.9442 73.5495C81.2839 73.8893 81.4748 74.35 81.4748 74.8305C81.4748 75.311 81.2839 75.7717 80.9442 76.1115C80.6045 76.4512 80.1437 76.6421 79.6632 76.6421H60.3398C59.8594 76.6421 59.3986 76.4512 59.0588 76.1115C58.7191 75.7717 58.5283 75.311 58.5283 74.8305ZM60.9437 83.2845C60.9437 82.804 61.1345 82.3432 61.4743 82.0035C61.814 81.6638 62.2748 81.4729 62.7552 81.4729H77.2478C77.7283 81.4729 78.189 81.6638 78.5288 82.0035C78.8685 82.3432 79.0594 82.804 79.0594 83.2845C79.0594 83.7649 78.8685 84.2257 78.5288 84.5655C78.189 84.9052 77.7283 85.0961 77.2478 85.0961H62.7552C62.2748 85.0961 61.814 84.9052 61.4743 84.5655C61.1345 84.2257 60.9437 83.7649 60.9437 83.2845Z" fill="white" fill-opacity="0.9"/>
</svg>
