<svg width="5555" height="4096" viewBox="0 0 5555 4096" fill="none" xmlns="http://www.w3.org/2000/svg">
<path d="M4997.94 3815.83H4630.01V3818.61H4997.94V3815.83Z" fill="#407BFF"/>
<path d="M3679.52 3846.05H3582.98V3848.82H3679.52V3846.05Z" fill="#407BFF"/>
<path d="M4618.9 3712.74H4405.72V3715.52H4618.9V3712.74Z" fill="#407BFF"/>
<path d="M1062.58 3731.4H582.777V3734.18H1062.58V3731.4Z" fill="#407BFF"/>
<path d="M1231.88 3731.4H1161.56V3734.18H1231.88V3731.4Z" fill="#407BFF"/>
<path d="M2501.19 3778.28H1460.5V3781.06H2501.19V3778.28Z" fill="#407BFF"/>
<path d="M2648.39 3141.63H503.237C486.414 3141.63 470.279 3134.94 458.384 3123.05C446.488 3111.15 439.805 3095.02 439.805 3078.19V62.877C439.951 46.1501 446.699 30.1581 458.579 18.3821C470.459 6.60611 486.51 -0.000641278 503.237 4.66861e-08H2648.39C2656.72 4.66862e-08 2664.96 1.64071 2672.66 4.82849C2680.36 8.01627 2687.35 12.6887 2693.24 18.5789C2699.13 24.4692 2703.8 31.4619 2706.99 39.1579C2710.18 46.8539 2711.82 55.1023 2711.82 63.4324V3078.19C2711.82 3086.52 2710.18 3094.77 2706.99 3102.47C2703.8 3110.16 2699.13 3117.16 2693.24 3123.05C2687.35 3128.94 2680.36 3133.61 2672.66 3136.8C2664.96 3139.99 2656.72 3141.63 2648.39 3141.63ZM503.237 2.22181C487.159 2.25117 471.749 8.65103 460.38 20.0197C449.011 31.3884 442.611 46.7992 442.582 62.877V3078.19C442.611 3094.27 449.011 3109.68 460.38 3121.05C471.749 3132.42 487.159 3138.82 503.237 3138.85H2648.39C2664.46 3138.82 2679.87 3132.42 2691.24 3121.05C2702.61 3109.68 2709.01 3094.27 2709.04 3078.19V62.877C2709.01 46.7992 2702.61 31.3884 2691.24 20.0197C2679.87 8.65103 2664.46 2.25117 2648.39 2.22181H503.237Z" fill="#407BFF"/>
<path d="M5051.26 3141.63H2906.11C2889.29 3141.63 2873.16 3134.94 2861.26 3123.05C2849.36 3111.15 2842.68 3095.02 2842.68 3078.19V62.877C2842.83 46.1501 2849.58 30.1581 2861.46 18.3821C2873.34 6.60611 2889.39 -0.000641278 2906.11 4.66861e-08H5051.26C5068.09 4.66863e-08 5084.22 6.68304 5096.12 18.5789C5108.01 30.4748 5114.69 46.6091 5114.69 63.4324V3078.19C5114.69 3095.02 5108.01 3111.15 5096.12 3123.05C5084.22 3134.94 5068.09 3141.63 5051.26 3141.63ZM2906.11 2.22181C2890.04 2.25117 2874.63 8.65103 2863.26 20.0197C2851.89 31.3884 2845.49 46.7992 2845.46 62.877V3078.19C2845.49 3094.27 2851.89 3109.68 2863.26 3121.05C2874.63 3132.42 2890.04 3138.82 2906.11 3138.85H5051.26C5067.34 3138.82 5082.75 3132.42 5094.12 3121.05C5105.49 3109.68 5111.89 3094.27 5111.92 3078.19V62.877C5111.89 46.7992 5105.49 31.3884 5094.12 20.0197C5082.75 8.65103 5067.34 2.25117 5051.26 2.22181H2906.11Z" fill="#407BFF"/>
<path d="M5554.5 3637.09H0V3639.87H5554.5V3637.09Z" fill="#407BFF"/>
<path d="M4492.59 403.59H4193.87C4099.14 403.59 4022.35 480.383 4022.35 575.113V873.834C4022.35 968.563 4099.14 1045.36 4193.87 1045.36H4492.59C4587.32 1045.36 4664.11 968.563 4664.11 873.834V575.113C4664.11 480.383 4587.32 403.59 4492.59 403.59Z" fill="#407BFF"/>
<path d="M4423.05 633.768C4423.05 688.425 4395.28 732.638 4340.62 732.638C4285.96 732.638 4258.19 688.202 4258.19 633.768C4258.19 579.334 4285.96 534.787 4340.62 534.787C4395.28 534.787 4423.05 579.112 4423.05 633.768Z" fill="#FAFAFA"/>
<path d="M4340.62 914.048H4493.15V823.399C4493.15 773.297 4424.83 732.638 4340.62 732.638C4256.41 732.638 4188.09 773.297 4188.09 823.399V914.048H4340.62Z" fill="#FAFAFA"/>
<path d="M1682.9 618.772H1474.28C1408.14 618.772 1354.52 672.388 1354.52 738.527V947.154C1354.52 1013.29 1408.14 1066.91 1474.28 1066.91H1682.9C1749.04 1066.91 1802.66 1013.29 1802.66 947.154V738.527C1802.66 672.388 1749.04 618.772 1682.9 618.772Z" fill="#407BFF"/>
<path d="M1569.48 867.057C1576.21 857.709 1584 849.172 1592.7 841.618C1598.63 836.371 1604.13 830.649 1609.14 824.51C1612.56 819.968 1614.4 814.424 1614.36 808.735C1614.48 804.85 1613.63 800.996 1611.88 797.523C1610.14 794.051 1607.55 791.069 1604.36 788.85C1596.5 783.695 1587.2 781.167 1577.81 781.629C1567.97 781.397 1558.22 783.651 1549.48 788.183C1541.2 792.647 1534.05 798.956 1528.6 806.624L1487.61 782.629C1497.14 768.228 1510.43 756.704 1526.04 749.302C1544.05 740.95 1563.75 736.881 1583.59 737.415C1605.64 736.375 1627.48 742.154 1646.13 753.968C1653.61 759.007 1659.69 765.856 1663.81 773.879C1667.93 781.901 1669.95 790.835 1669.68 799.848C1669.87 808.232 1668.28 816.561 1665.02 824.288C1662.32 830.785 1658.57 836.791 1653.91 842.062C1649.46 846.95 1643.8 852.505 1636.8 858.837C1630.1 864.532 1623.96 870.856 1618.47 877.722C1614.52 883.044 1612.49 889.541 1612.69 896.163H1561.48C1561.07 885.867 1563.86 875.697 1569.48 867.057ZM1564.04 972.26C1560.98 969.437 1558.57 965.994 1556.96 962.162C1555.35 958.329 1554.58 954.197 1554.7 950.042C1554.62 946.016 1555.39 942.018 1556.98 938.319C1558.57 934.62 1560.94 931.306 1563.92 928.601C1570.43 923.009 1578.73 919.935 1587.31 919.935C1595.89 919.935 1604.19 923.009 1610.69 928.601C1613.66 931.316 1616 934.635 1617.57 938.333C1619.15 942.032 1619.91 946.024 1619.8 950.042C1619.92 954.197 1619.15 958.329 1617.54 962.162C1615.93 965.994 1613.52 969.437 1610.47 972.26C1604.13 978.052 1595.84 981.263 1587.25 981.263C1578.66 981.263 1570.38 978.052 1564.04 972.26Z" fill="#FAFAFA"/>
<path d="M4461.82 2152.81H4623.23C4647.83 2152.81 4671.43 2162.59 4688.82 2179.98C4706.22 2197.38 4715.99 2220.97 4715.99 2245.57V2406.99C4715.99 2431.56 4706.23 2455.12 4688.85 2472.5C4671.48 2489.87 4647.91 2499.64 4623.34 2499.64H4461.82C4437.25 2499.64 4413.68 2489.87 4396.3 2472.5C4378.93 2455.12 4369.17 2431.56 4369.17 2406.99V2245.57C4369.17 2221 4378.93 2197.44 4396.3 2180.06C4413.68 2162.68 4437.25 2152.92 4461.82 2152.92V2152.81Z" fill="#407BFF"/>
<path d="M4535.36 2345C4540.58 2337.77 4546.62 2331.18 4553.36 2325.34C4557.98 2321.26 4562.25 2316.8 4566.13 2312.01C4568.78 2308.53 4570.19 2304.27 4570.13 2299.9C4570.25 2296.89 4569.6 2293.9 4568.23 2291.22C4566.87 2288.54 4564.85 2286.25 4562.36 2284.57C4556.29 2280.52 4549.09 2278.53 4541.8 2278.9C4534.36 2278.68 4526.98 2280.33 4520.34 2283.71C4513.7 2287.09 4508.02 2292.08 4503.81 2298.23L4472.04 2279.68C4479.38 2268.44 4489.68 2259.44 4501.81 2253.68C4515.72 2247.24 4530.92 2244.09 4546.25 2244.46C4563.34 2243.63 4580.26 2248.14 4594.68 2257.35C4600.49 2261.26 4605.21 2266.59 4608.4 2272.83C4611.59 2279.06 4613.14 2286.01 4612.9 2293.01C4613.03 2299.48 4611.82 2305.91 4609.35 2311.89C4607.25 2316.94 4604.32 2321.6 4600.68 2325.67C4596.52 2330.25 4592.11 2334.59 4587.46 2338.67C4582.31 2343.1 4577.56 2347.97 4573.24 2353.22C4570.26 2357.4 4568.7 2362.42 4568.8 2367.55H4529.25C4528.91 2359.58 4531.04 2351.7 4535.36 2345ZM4531.14 2426.43C4528.82 2424.28 4526.99 2421.66 4525.76 2418.75C4524.54 2415.84 4523.95 2412.7 4524.03 2409.54C4523.96 2406.43 4524.55 2403.34 4525.76 2400.47C4526.96 2397.6 4528.76 2395.01 4531.03 2392.88C4536.08 2388.57 4542.5 2386.2 4549.14 2386.2C4555.77 2386.2 4562.2 2388.57 4567.24 2392.88C4569.53 2395 4571.35 2397.58 4572.57 2400.45C4573.8 2403.32 4574.4 2406.42 4574.35 2409.54C4574.42 2412.71 4573.81 2415.85 4572.57 2418.77C4571.32 2421.68 4569.47 2424.29 4567.13 2426.43C4564.76 2428.75 4561.94 2430.56 4558.85 2431.76C4555.75 2432.96 4552.45 2433.53 4549.14 2433.43C4545.82 2433.51 4542.53 2432.93 4539.44 2431.73C4536.35 2430.53 4533.53 2428.73 4531.14 2426.43Z" fill="#FAFAFA"/>
<path d="M1300.98 1290.87H1092.35C1026.21 1290.87 972.594 1344.48 972.594 1410.62V1619.25C972.594 1685.39 1026.21 1739 1092.35 1739H1300.98C1367.11 1739 1420.73 1685.39 1420.73 1619.25V1410.62C1420.73 1344.48 1367.11 1290.87 1300.98 1290.87Z" fill="#407BFF"/>
<path d="M1196.66 1388.63C1183.35 1388.63 1170.16 1391.25 1157.86 1396.35C1145.57 1401.45 1134.39 1408.92 1124.98 1418.34C1115.57 1427.76 1108.11 1438.94 1103.03 1451.25C1097.94 1463.55 1095.33 1476.74 1095.35 1490.05C1095.35 1545.6 1140.67 1680.24 1196.66 1680.24C1252.65 1680.24 1297.98 1545.93 1297.98 1490.05C1297.99 1476.74 1295.38 1463.55 1290.3 1451.25C1285.21 1438.94 1277.75 1427.76 1268.34 1418.34C1258.93 1408.92 1247.76 1401.45 1235.46 1396.35C1223.16 1391.25 1209.98 1388.63 1196.66 1388.63ZM1196.66 1520.6C1190.62 1520.6 1184.71 1518.81 1179.69 1515.45C1174.67 1512.1 1170.75 1507.32 1168.44 1501.74C1166.13 1496.16 1165.52 1490.02 1166.7 1484.09C1167.88 1478.17 1170.79 1472.72 1175.06 1468.45C1179.33 1464.18 1184.78 1461.27 1190.7 1460.09C1196.63 1458.91 1202.77 1459.51 1208.35 1461.83C1213.93 1464.14 1218.71 1468.05 1222.06 1473.08C1225.42 1478.1 1227.21 1484.01 1227.21 1490.05C1227.09 1498.08 1223.82 1505.73 1218.11 1511.37C1212.39 1517 1204.69 1520.16 1196.66 1520.16V1520.6Z" fill="#FAFAFA"/>
<path d="M1241.43 2126.71C1244.69 2106.14 1244.69 2085.18 1241.43 2064.61L1210.22 2060.5C1207.7 2049.03 1203.97 2037.86 1199.11 2027.17L1221.99 2005.51C1212.48 1986.98 1200.15 1970.04 1185.44 1955.3L1157.67 1970.4C1149.09 1962.62 1139.7 1955.77 1129.68 1949.96L1135.45 1918.97C1117 1909.48 1097.17 1902.95 1076.69 1899.64L1063.24 1927.97C1057.58 1927.41 1052.14 1927.08 1045.91 1927.08C1039.69 1927.08 1034.14 1927.08 1028.47 1927.97L1015.03 1899.64C994.44 1902.88 974.492 1909.37 955.931 1918.86L961.708 1949.85C951.682 1955.66 942.299 1962.51 933.713 1970.29L905.941 1955.18C891.237 1969.93 878.907 1986.87 869.392 2005.4L892.277 2027.06C887.41 2037.75 883.686 2048.92 881.168 2060.39L850.063 2064.5C846.656 2085.06 846.656 2106.04 850.063 2126.6L881.168 2130.71C883.686 2142.18 887.41 2153.35 892.277 2164.03L869.392 2185.7C878.886 2204.24 891.217 2221.18 905.941 2235.91L933.713 2220.8C942.299 2228.58 951.682 2235.43 961.708 2241.24L955.931 2272.24C974.492 2281.72 994.44 2288.21 1015.03 2291.45L1028.47 2263.13C1034.14 2263.68 1039.58 2264.01 1045.91 2264.01C1052.25 2264.01 1057.02 2264.01 1063.24 2263.13L1076.69 2291.45C1097.28 2288.21 1117.23 2281.72 1135.79 2272.24L1130.01 2241.24C1140.04 2235.43 1149.42 2228.58 1158 2220.8L1185.78 2235.91C1200.48 2221.16 1212.81 2204.22 1222.33 2185.7L1199.77 2163.81C1204.63 2153.12 1208.35 2141.95 1210.88 2130.48L1241.43 2126.71ZM1045.91 2164.81C1032.22 2164.83 1018.82 2160.79 1007.42 2153.19C996.024 2145.6 987.136 2134.79 981.884 2122.14C976.632 2109.49 975.252 2095.56 977.919 2082.13C980.586 2068.69 987.179 2056.35 996.865 2046.66C1006.55 2036.98 1018.89 2030.38 1032.33 2027.72C1045.76 2025.05 1059.69 2026.43 1072.34 2031.68C1084.99 2036.93 1095.8 2045.82 1103.39 2057.22C1110.99 2068.62 1115.03 2082.02 1115.01 2095.71C1114.98 2114.03 1107.69 2131.59 1094.74 2144.54C1081.79 2157.49 1064.23 2164.78 1045.91 2164.81Z" fill="#407BFF"/>
<path d="M1341.63 2350.22C1342.43 2345.07 1342.84 2339.88 1342.86 2334.67C1342.85 2329.46 1342.44 2324.26 1341.63 2319.12L1325.97 2317.12C1324.78 2311.43 1322.99 2305.88 1320.64 2300.56L1331.75 2289.45C1326.99 2280.14 1320.81 2271.63 1313.42 2264.24L1299.53 2271.79C1295.22 2267.93 1290.53 2264.5 1285.53 2261.57L1288.42 2246.13C1279.15 2241.36 1269.17 2238.1 1258.87 2236.46L1252.21 2250.68C1249.32 2250.68 1246.43 2250.68 1243.54 2250.68C1240.65 2250.68 1237.65 2250.68 1234.77 2250.68L1228.1 2236.46C1217.8 2238.1 1207.82 2241.36 1198.55 2246.13L1201.44 2261.57C1196.44 2264.5 1191.76 2267.93 1187.44 2271.79L1173.55 2264.24C1166.16 2271.63 1159.98 2280.14 1155.22 2289.45L1166.33 2300.56C1163.98 2305.88 1162.19 2311.43 1161 2317.12L1145.45 2319.12C1144.59 2324.25 1144.18 2329.46 1144.23 2334.67C1144.19 2339.88 1144.6 2345.08 1145.45 2350.22L1161 2352.22C1162.19 2357.87 1163.98 2363.39 1166.33 2368.66L1155.22 2379.77C1159.99 2389.04 1166.17 2397.52 1173.55 2404.88L1187.44 2397.32C1191.7 2401.26 1196.4 2404.69 1201.44 2407.54L1198.55 2422.98C1207.82 2427.76 1217.8 2431.02 1228.1 2432.65L1234.77 2418.43C1240.56 2419.02 1246.41 2419.02 1252.21 2418.43L1258.87 2432.65C1269.17 2431.02 1279.15 2427.76 1288.42 2422.98L1285.53 2407.54C1290.58 2404.69 1295.27 2401.26 1299.53 2397.32L1313.42 2404.88C1320.8 2397.52 1326.98 2389.04 1331.75 2379.77L1320.64 2368.66C1322.99 2363.39 1324.78 2357.87 1325.97 2352.22L1341.63 2350.22ZM1243.87 2369.22C1237.04 2369.22 1230.36 2367.19 1224.68 2363.39C1219 2359.6 1214.57 2354.2 1211.96 2347.89C1209.34 2341.58 1208.66 2334.63 1209.99 2327.93C1211.32 2321.23 1214.61 2315.07 1219.44 2310.24C1224.28 2305.41 1230.43 2302.12 1237.13 2300.78C1243.84 2299.45 1250.78 2300.13 1257.1 2302.75C1263.41 2305.36 1268.8 2309.79 1272.6 2315.47C1276.4 2321.16 1278.42 2327.84 1278.42 2334.67C1278.39 2343.77 1274.79 2352.49 1268.39 2358.95C1261.99 2365.41 1253.3 2369.1 1244.21 2369.22H1243.87Z" fill="#407BFF"/>
<path d="M4773.98 2126.04C4778.17 2122.95 4782.15 2119.57 4785.87 2115.93C4789.54 2112.24 4792.92 2108.26 4795.98 2104.04L4786.42 2091.6C4789.58 2086.76 4792.19 2081.58 4794.2 2076.16H4809.98C4813.21 2066.26 4814.86 2055.91 4814.86 2045.5L4799.64 2041.06C4799.42 2035.27 4798.52 2029.53 4796.98 2023.95L4809.98 2015.06C4806.83 2005.13 4802.06 1995.78 4795.87 1987.4L4781.09 1992.62C4779.28 1990.37 4777.36 1988.22 4775.31 1986.18C4773.2 1984.07 4771.09 1982.18 4768.87 1980.29L4774.09 1965.51C4765.65 1959.42 4756.32 1954.67 4746.43 1951.41L4737.54 1964.4C4731.9 1962.97 4726.14 1962.07 4720.33 1961.74L4715.88 1946.63C4705.47 1946.6 4695.11 1948.25 4685.22 1951.52V1967.18C4679.82 1969.27 4674.64 1971.92 4669.78 1975.07L4657.23 1965.51C4648.72 1971.73 4641.22 1979.23 4635.01 1987.73L4644.56 2000.17C4641.43 2005.09 4638.79 2010.3 4636.67 2015.73H4621.01C4617.8 2025.63 4616.15 2035.98 4616.12 2046.39L4631.23 2050.83C4631.56 2056.61 4632.45 2062.34 4633.9 2067.94L4620.9 2076.94C4624.16 2086.83 4628.92 2096.15 4635.01 2104.6L4649.78 2099.27C4651.67 2101.49 4653.56 2103.71 4655.67 2105.82C4657.78 2107.93 4659.89 2109.82 4662.11 2111.6L4656.89 2126.37C4665.27 2132.57 4674.62 2137.34 4684.55 2140.48L4693.44 2127.48C4699.02 2129.03 4704.76 2129.92 4710.55 2130.15L4714.99 2145.37C4725.44 2145.36 4735.83 2143.71 4745.77 2140.48V2124.71C4751.17 2122.65 4756.34 2120.05 4761.21 2116.93L4773.98 2126.04ZM4691.44 2070.49C4686.61 2065.66 4683.33 2059.51 4681.99 2052.8C4680.66 2046.1 4681.35 2039.16 4683.97 2032.85C4686.58 2026.54 4691.01 2021.14 4696.69 2017.35C4702.37 2013.55 4709.05 2011.53 4715.88 2011.53C4722.71 2011.53 4729.39 2013.55 4735.07 2017.35C4740.75 2021.14 4745.18 2026.54 4747.8 2032.85C4750.41 2039.16 4751.1 2046.1 4749.77 2052.8C4748.44 2059.51 4745.15 2065.66 4740.32 2070.49C4737.11 2073.71 4733.3 2076.26 4729.1 2078C4724.9 2079.74 4720.4 2080.63 4715.86 2080.61C4711.32 2080.6 4706.82 2079.7 4702.63 2077.94C4698.44 2076.18 4694.64 2073.62 4691.44 2070.38V2070.49Z" fill="#407BFF"/>
<path d="M2777.25 4096C3966.83 4096 4931.18 4039.7 4931.18 3970.24C4931.18 3900.79 3966.83 3844.49 2777.25 3844.49C1587.67 3844.49 623.328 3900.79 623.328 3970.24C623.328 4039.7 1587.67 4096 2777.25 4096Z" fill="#F5F5F5"/>
<path d="M3172.29 652.765V479.687L3257.38 467.689V640.767L3172.29 652.765Z" fill="#263238"/>
<path d="M2889.34 749.192L2825.58 647.655L2879.9 608.774L2943.55 710.199L2889.34 749.192Z" fill="#263238"/>
<path d="M3486.01 633.88L3549.77 514.569L3603.98 538.231L3540.33 657.653L3486.01 633.88Z" fill="#263238"/>
<g opacity="0.5">
<path d="M3172.29 652.765V479.687L3257.38 467.689V640.767L3172.29 652.765Z" fill="white"/>
<path d="M2889.34 749.191L2825.58 647.654L2879.9 608.773L2943.55 710.198L2889.34 749.191Z" fill="white"/>
<path d="M3486.01 633.88L3549.77 514.569L3603.98 538.231L3540.33 657.653L3486.01 633.88Z" fill="white"/>
</g>
<path d="M3269.49 495.573L3160.18 511.015C3156.21 511.748 3152.13 511.581 3148.23 510.528C3144.34 509.475 3140.73 507.562 3137.67 504.929C3134.61 502.297 3132.18 499.012 3130.56 495.316C3128.94 491.621 3128.16 487.609 3128.3 483.575C3128.55 474.755 3131.87 466.299 3137.69 459.667C3143.51 453.035 3151.47 448.643 3160.18 447.249L3269.49 431.919C3273.45 431.188 3277.52 431.352 3281.41 432.399C3285.3 433.446 3288.9 435.349 3291.96 437.969C3295.02 440.589 3297.45 443.86 3299.08 447.541C3300.71 451.223 3301.49 455.222 3301.38 459.247C3301.1 468.061 3297.77 476.506 3291.96 483.134C3286.14 489.761 3278.2 494.159 3269.49 495.573Z" fill="#263238"/>
<path d="M2897.56 605.996L2816.58 664.207C2814.89 665.615 2812.94 666.661 2810.83 667.281C2808.73 667.901 2806.52 668.081 2804.34 667.81C2802.16 667.539 2800.07 666.823 2798.18 665.706C2796.29 664.59 2794.65 663.096 2793.36 661.319C2791.22 657.245 2790.68 652.522 2791.83 648.067C2792.98 643.613 2795.74 639.744 2799.58 637.212L2880.68 579.112C2882.34 577.691 2884.29 576.633 2886.39 576.005C2888.49 575.377 2890.69 575.193 2892.87 575.465C2895.04 575.736 2897.13 576.458 2899.01 577.583C2900.89 578.708 2902.52 580.213 2903.78 582.001C2905.91 586.058 2906.46 590.764 2905.31 595.2C2904.16 599.636 2901.4 603.485 2897.56 605.996Z" fill="#263238"/>
<path d="M3613.09 552.229L3532 516.902C3530.06 515.92 3528.35 514.547 3526.98 512.87C3525.6 511.193 3524.59 509.248 3524.01 507.16C3523.42 505.071 3523.28 502.884 3523.58 500.736C3523.89 498.589 3524.63 496.528 3525.78 494.684C3527.8 490.526 3531.29 487.264 3535.58 485.521C3539.86 483.778 3544.64 483.679 3548.99 485.242L3629.98 520.679C3631.94 521.635 3633.67 522.995 3635.07 524.669C3636.46 526.343 3637.49 528.294 3638.07 530.392C3638.66 532.491 3638.8 534.69 3638.48 536.845C3638.15 539.001 3637.38 541.063 3636.2 542.897C3634.17 547.026 3630.7 550.262 3626.43 551.985C3622.17 553.707 3617.42 553.794 3613.09 552.229Z" fill="#263238"/>
<path opacity="0.7" d="M3269.49 495.573L3160.18 511.015C3156.21 511.748 3152.13 511.581 3148.23 510.528C3144.34 509.475 3140.73 507.562 3137.67 504.929C3134.61 502.297 3132.18 499.012 3130.56 495.316C3128.94 491.621 3128.16 487.609 3128.3 483.575C3128.55 474.755 3131.87 466.299 3137.69 459.667C3143.51 453.035 3151.47 448.643 3160.18 447.249L3269.49 431.919C3273.45 431.188 3277.52 431.352 3281.41 432.399C3285.3 433.446 3288.9 435.349 3291.96 437.969C3295.02 440.589 3297.45 443.86 3299.08 447.541C3300.71 451.223 3301.49 455.222 3301.38 459.247C3301.1 468.061 3297.77 476.506 3291.96 483.134C3286.14 489.761 3278.2 494.159 3269.49 495.573Z" fill="white"/>
<path opacity="0.7" d="M2897.56 605.996L2816.58 664.207C2814.89 665.615 2812.94 666.661 2810.83 667.281C2808.73 667.901 2806.52 668.081 2804.34 667.81C2802.16 667.539 2800.07 666.823 2798.18 665.706C2796.29 664.59 2794.65 663.096 2793.36 661.319C2791.22 657.245 2790.68 652.522 2791.83 648.067C2792.98 643.613 2795.74 639.744 2799.58 637.212L2880.68 579.112C2882.34 577.691 2884.29 576.633 2886.39 576.005C2888.49 575.377 2890.69 575.193 2892.87 575.465C2895.04 575.736 2897.13 576.458 2899.01 577.583C2900.89 578.708 2902.52 580.213 2903.78 582.001C2905.91 586.058 2906.46 590.764 2905.31 595.2C2904.16 599.636 2901.4 603.485 2897.56 605.996Z" fill="white"/>
<path opacity="0.7" d="M3613.09 552.229L3532 516.902C3530.06 515.92 3528.35 514.547 3526.98 512.87C3525.6 511.193 3524.59 509.248 3524.01 507.16C3523.42 505.071 3523.28 502.884 3523.58 500.736C3523.89 498.589 3524.63 496.528 3525.78 494.684C3527.8 490.526 3531.29 487.264 3535.58 485.521C3539.86 483.778 3544.64 483.679 3548.99 485.242L3629.98 520.679C3631.94 521.635 3633.67 522.995 3635.07 524.669C3636.46 526.343 3637.49 528.294 3638.07 530.392C3638.66 532.491 3638.8 534.69 3638.48 536.845C3638.15 539.001 3637.38 541.063 3636.2 542.897C3634.17 547.026 3630.7 550.262 3626.43 551.985C3622.17 553.707 3617.42 553.794 3613.09 552.229Z" fill="white"/>
<path d="M3214.84 1736.34C2919 1777.89 2679.16 1571.81 2679.16 1275.98C2679.16 980.148 2919 706.533 3214.84 664.985C3510.67 623.438 3750.51 829.51 3750.51 1125.34L3823.61 1115.12C3823.61 778.853 3550.99 544.675 3214.84 591.888C2878.68 639.101 2606.06 950.042 2606.06 1286.2C2606.06 1622.36 2878.57 1856.65 3214.84 1809.43V1736.34Z" fill="#407BFF"/>
<path d="M3001.99 1580.11L2962.01 1654.97L2977.69 1663.35L3017.67 1588.48L3001.99 1580.11Z" fill="#263238"/>
<path d="M3451.77 737.88L3411.79 812.749L3427.47 821.121L3467.44 746.252L3451.77 737.88Z" fill="#263238"/>
<path d="M2794.1 1007.05L2786.98 1023.34L2856.21 1053.57L2863.33 1037.28L2794.1 1007.05Z" fill="#263238"/>
<path d="M2984.36 816.954L2969.25 826.374L3009.11 890.301L3024.22 880.88L2984.36 816.954Z" fill="#263238"/>
<path d="M2854.78 1448.45L2785.46 1498.18L2795.83 1512.63L2865.15 1462.89L2854.78 1448.45Z" fill="#263238"/>
<path d="M3633.8 889.009L3564.48 938.747L3574.85 953.189L3644.17 903.451L3633.8 889.009Z" fill="#263238"/>
<path d="M2829.25 1236.91L2722.65 1251.89L2727.6 1287.09L2834.2 1272.11L2829.25 1236.91Z" fill="#263238"/>
<path d="M3232.61 710.977H3197.06V817.623H3232.61V710.977Z" fill="#263238"/>
<path d="M3232.61 1583.7H3197.06V1690.35H3232.61V1583.7Z" fill="#263238"/>
<path d="M3077.2 1085.13C3073.06 1089.29 3070.74 1094.92 3070.74 1100.79C3070.74 1106.66 3073.06 1112.29 3077.2 1116.45L3196.51 1218.88L3227.72 1183.22L3108.52 1080.68C3106.18 1078.9 3103.51 1077.6 3100.66 1076.85C3097.81 1076.11 3094.85 1075.94 3091.93 1076.35C3089.02 1076.77 3086.21 1077.76 3083.68 1079.26C3081.15 1080.77 3078.95 1082.76 3077.2 1085.13Z" fill="#407BFF"/>
<path opacity="0.4" d="M3077.2 1085.13C3073.06 1089.29 3070.74 1094.92 3070.74 1100.79C3070.74 1106.66 3073.06 1112.29 3077.2 1116.45L3196.51 1218.88L3227.72 1183.22L3108.52 1080.68C3106.18 1078.9 3103.51 1077.6 3100.66 1076.85C3097.81 1076.11 3094.85 1075.94 3091.93 1076.35C3089.02 1076.77 3086.21 1077.76 3083.68 1079.26C3081.15 1080.77 3078.95 1082.76 3077.2 1085.13Z" fill="white"/>
<path d="M3875.71 1098.9L3786.73 1218.1L3697.86 1123.9L3875.71 1098.9Z" fill="#407BFF"/>
<path d="M3417.8 965.818C3415.46 964.033 3412.78 962.73 3409.94 961.987C3407.09 961.243 3404.12 961.073 3401.2 961.487C3398.29 961.9 3395.49 962.889 3392.96 964.395C3390.43 965.902 3388.22 967.895 3386.47 970.261L3224.95 1154.45C3216.29 1153.36 3207.51 1154.44 3199.38 1157.6C3191.25 1160.77 3184.04 1165.91 3178.4 1172.56C3160.18 1193.44 3160.18 1223.1 3178.4 1239.21C3196.62 1255.32 3226.39 1250.32 3245.05 1229.88C3250.81 1223.47 3254.84 1215.71 3256.79 1207.31C3258.73 1198.92 3258.51 1190.17 3256.16 1181.89L3417.69 997.59C3419.81 995.528 3421.5 993.062 3422.66 990.338C3423.81 987.614 3424.42 984.687 3424.43 981.727C3424.44 978.767 3423.86 975.835 3422.72 973.103C3421.58 970.371 3419.91 967.894 3417.8 965.818Z" fill="#407BFF"/>
<path d="M3447.01 1635.91L3585.87 1616.36L3573.54 1680.46L3323.26 1715.67L3333.26 1664.68L3483.89 1525.49C3498.06 1512.68 3510.8 1498.38 3521.89 1482.83C3528.78 1473.05 3532.65 1461.46 3533 1449.5C3533.29 1444.66 3532.29 1439.82 3530.1 1435.49C3527.92 1431.16 3524.62 1427.48 3520.55 1424.84C3509.48 1418.99 3496.67 1417.29 3484.45 1420.06C3470.79 1422.01 3457.71 1426.9 3446.12 1434.39C3433.63 1442.28 3422.74 1452.46 3414.02 1464.39L3362.58 1434.28C3376.97 1413.01 3395.95 1395.24 3418.13 1382.29C3441.93 1368.05 3468.39 1358.82 3495.89 1355.19C3516.08 1351.8 3536.75 1352.75 3556.55 1357.96C3572.46 1362.09 3586.65 1371.15 3597.09 1383.85C3606.85 1396.36 3611.95 1411.87 3611.54 1427.73C3611.34 1448.89 3605.47 1469.6 3594.54 1487.72C3578.23 1513.02 3558.37 1535.84 3535.55 1555.48L3447.01 1635.91Z" fill="white"/>
<path d="M3916.81 1562.81L3862.6 1570.48L3848.82 1641.8L3774.28 1652.24L3788.17 1580.81L3610.43 1605.92L3620.31 1553.04L3814.83 1315.97L3898.48 1304.31L3717.07 1528.6L3804.06 1516.38L3816.28 1452.72L3887.6 1442.73L3875.26 1506.27L3929.59 1498.72L3916.81 1562.81Z" fill="white"/>
<path d="M4134.99 1203.99L4203.98 1194.22L3961.25 1673.24L3892.82 1682.79L4134.99 1203.99Z" fill="white"/>
<path d="M4449.93 1226.77L4440.05 1277.76L4263.41 1583.48L4178.43 1595.48L4347.95 1303.42L4240.75 1318.53L4229.64 1374.07L4161.65 1383.63L4184.76 1264.21L4449.93 1226.77Z" fill="white"/>
<path d="M2182.58 993.923C2063.83 993.923 1967.62 1064.02 1967.62 1150.45C1967.62 1213.21 2018.62 1267.32 2092.05 1292.2C2084.18 1328.25 2070.64 1362.82 2051.94 1394.62C2078.59 1390.66 2103.99 1380.69 2126.22 1365.47C2148.45 1350.24 2166.92 1330.17 2180.25 1306.75H2182.58C2301.34 1306.75 2397.54 1236.77 2397.54 1150.34C2397.54 1063.91 2301.34 993.923 2182.58 993.923Z" fill="#407BFF"/>
<path opacity="0.7" d="M2182.58 993.923C2063.83 993.923 1967.62 1064.02 1967.62 1150.45C1967.62 1213.21 2018.62 1267.32 2092.05 1292.2C2084.18 1328.25 2070.64 1362.82 2051.94 1394.62C2078.59 1390.66 2103.99 1380.69 2126.22 1365.47C2148.45 1350.24 2166.92 1330.17 2180.25 1306.75H2182.58C2301.34 1306.75 2397.54 1236.77 2397.54 1150.34C2397.54 1063.91 2301.34 993.923 2182.58 993.923Z" fill="white"/>
<path d="M2087.83 1180.55C2099.91 1180.55 2109.71 1170.76 2109.71 1158.67C2109.71 1146.58 2099.91 1136.78 2087.83 1136.78C2075.74 1136.78 2065.94 1146.58 2065.94 1158.67C2065.94 1170.76 2075.74 1180.55 2087.83 1180.55Z" fill="#263238"/>
<path d="M2203.03 1158.67C2203.03 1163.06 2201.72 1167.36 2199.28 1171.01C2196.84 1174.67 2193.37 1177.51 2189.31 1179.19C2185.25 1180.88 2180.78 1181.32 2176.47 1180.46C2172.16 1179.6 2168.2 1177.49 2165.1 1174.38C2161.99 1171.27 2159.87 1167.31 2159.02 1163C2158.16 1158.69 2158.6 1154.23 2160.28 1150.17C2161.96 1146.11 2164.81 1142.64 2168.46 1140.19C2172.12 1137.75 2176.41 1136.45 2180.81 1136.45C2186.7 1136.45 2192.35 1138.79 2196.52 1142.96C2200.69 1147.12 2203.03 1152.78 2203.03 1158.67Z" fill="#263238"/>
<path d="M2274.46 1180.55C2286.54 1180.55 2296.34 1170.76 2296.34 1158.67C2296.34 1146.58 2286.54 1136.78 2274.46 1136.78C2262.37 1136.78 2252.57 1146.58 2252.57 1158.67C2252.57 1170.76 2262.37 1180.55 2274.46 1180.55Z" fill="#263238"/>
<path d="M4132.55 3388.8C4132.55 3388.8 4133.99 3240.5 4080 3260.05C4026.01 3279.6 4132.55 3388.8 4132.55 3388.8Z" fill="#407BFF"/>
<path d="M4190.54 3251.49C4190.54 3251.49 4262.08 3132.85 4197.43 3115.85C4132.77 3098.86 4190.54 3251.49 4190.54 3251.49Z" fill="#407BFF"/>
<path d="M4473.26 3167.73C4473.26 3167.73 4621.79 3160.07 4588.24 3104.41C4554.69 3048.76 4473.26 3167.73 4473.26 3167.73Z" fill="#407BFF"/>
<path d="M4238.31 3207.17C4238.31 3207.17 4393.83 3172.06 4364.73 3259.38C4335.62 3346.7 4238.31 3207.17 4238.31 3207.17Z" fill="#407BFF"/>
<path d="M4125.33 3522.89C4125.33 3522.89 4065.9 3388.25 4032.57 3436.13C3999.24 3484.01 4125.33 3522.89 4125.33 3522.89Z" fill="#407BFF"/>
<path d="M4294.85 3179.17C4294.85 3179.17 4453.27 3137.63 4403.94 3079.19C4354.62 3020.76 4294.85 3179.17 4294.85 3179.17Z" fill="#407BFF"/>
<path d="M4414.61 3162.84C4414.61 3162.84 4539.92 3224.39 4482.15 3264.6C4424.38 3304.82 4414.61 3162.84 4414.61 3162.84Z" fill="#407BFF"/>
<path d="M4148.21 3329.15C4148.21 3329.15 4234.98 3224.72 4261.75 3300.6C4288.52 3376.47 4148.21 3329.15 4148.21 3329.15Z" fill="#407BFF"/>
<g opacity="0.4">
<path d="M4125.33 3522.89C4125.33 3522.89 4065.9 3388.25 4032.57 3436.13C3999.24 3484.01 4125.33 3522.89 4125.33 3522.89Z" fill="white"/>
<path d="M4294.86 3179.17C4294.86 3179.17 4453.27 3137.63 4403.95 3079.19C4354.62 3020.76 4294.86 3179.17 4294.86 3179.17Z" fill="white"/>
<path d="M4414.61 3162.84C4414.61 3162.84 4539.92 3224.39 4482.15 3264.6C4424.38 3304.82 4414.61 3162.84 4414.61 3162.84Z" fill="white"/>
<path d="M4148.21 3329.15C4148.21 3329.15 4234.98 3224.72 4261.75 3300.6C4288.52 3376.47 4148.21 3329.15 4148.21 3329.15Z" fill="white"/>
</g>
<path d="M4124.44 3464.68C4124.44 3464.68 4186.65 3331.37 4236.75 3398.58C4286.85 3465.79 4124.44 3464.68 4124.44 3464.68Z" fill="#407BFF"/>
<path d="M4125.44 3604.87C4106.59 3518 4109.29 3427.84 4133.33 3342.25C4184.21 3175.62 4340.29 3136.4 4498.03 3161.62C4510.59 3163.62 4505.03 3182.51 4492.59 3180.51C4408.83 3167.18 4314.85 3165.84 4241.86 3216.5C4189.65 3253.05 4160.1 3311.15 4145.88 3372.03C4129.2 3447.09 4128.79 3524.86 4144.66 3600.09C4147.21 3612.54 4128.1 3617.42 4125.44 3604.98V3604.87Z" fill="#407BFF"/>
<g opacity="0.3">
<path d="M4125.44 3604.87C4106.59 3518 4109.29 3427.84 4133.33 3342.25C4184.21 3175.62 4340.29 3136.4 4498.03 3161.62C4510.59 3163.62 4505.03 3182.51 4492.59 3180.51C4408.83 3167.18 4314.85 3165.84 4241.86 3216.5C4189.65 3253.05 4160.1 3311.15 4145.88 3372.03C4129.2 3447.09 4128.79 3524.86 4144.66 3600.09C4147.21 3612.54 4128.1 3617.42 4125.44 3604.98V3604.87Z" fill="black"/>
</g>
<path d="M4001.8 3343.81C4001.8 3343.81 3924.03 3162.51 3873.6 3209.84C3823.16 3257.16 4001.8 3343.81 4001.8 3343.81Z" fill="#407BFF"/>
<path d="M3995.13 3150.96C3995.13 3150.96 4013.57 2975.32 3930.92 2982.88C3848.27 2990.43 3995.13 3150.96 3995.13 3150.96Z" fill="#407BFF"/>
<path d="M4272.74 2925.67C4272.74 2925.67 4437.71 2851.57 4369.95 2798.47C4302.18 2745.37 4272.74 2925.67 4272.74 2925.67Z" fill="#407BFF"/>
<path d="M4026.02 3076.19C4026.02 3076.19 4184.76 2965.1 4197.76 3084.64C4210.76 3204.17 4026.02 3076.19 4026.02 3076.19Z" fill="#407BFF"/>
<path d="M4065.12 3509.78C4065.12 3509.78 3925.25 3372.25 3912.7 3444.9C3900.15 3517.55 4065.12 3509.78 4065.12 3509.78Z" fill="#407BFF"/>
<path d="M4075.45 3017.43C4075.45 3017.43 4233.86 2897.67 4146.55 2848.01C4059.23 2798.36 4075.45 3017.43 4075.45 3017.43Z" fill="#407BFF"/>
<path d="M4203.31 2945.33C4203.31 2945.33 4378.72 2965.66 4334.18 3039.76C4289.63 3113.85 4203.31 2945.33 4203.31 2945.33Z" fill="#407BFF"/>
<path d="M3988.13 3263.94C3988.13 3263.94 4031.46 3098.97 4102.33 3179.73C4173.21 3260.49 3988.13 3263.94 3988.13 3263.94Z" fill="#407BFF"/>
<g opacity="0.4">
<path d="M4065.12 3509.78C4065.12 3509.78 3925.25 3372.25 3912.7 3444.9C3900.15 3517.55 4065.12 3509.78 4065.12 3509.78Z" fill="white"/>
<path d="M4075.45 3017.43C4075.45 3017.43 4233.86 2897.67 4146.55 2848.01C4059.23 2798.36 4075.45 3017.43 4075.45 3017.43Z" fill="white"/>
<path d="M4203.31 2945.33C4203.31 2945.33 4378.72 2965.66 4334.18 3039.76C4289.63 3113.85 4203.31 2945.33 4203.31 2945.33Z" fill="white"/>
<path d="M3988.13 3263.94C3988.13 3263.94 4031.46 3098.97 4102.33 3179.73C4173.21 3260.49 3988.13 3263.94 3988.13 3263.94Z" fill="white"/>
</g>
<path d="M4033.24 3439.35C4033.24 3439.35 4033.24 3249.72 4125.89 3309.82C4218.53 3369.92 4033.24 3439.35 4033.24 3439.35Z" fill="#407BFF"/>
<path d="M4108.67 3609.54C4043.57 3514.33 3993.36 3398.47 3978.25 3286.49C3947.81 3061.64 4104.45 2945.55 4297.63 2907.34C4312.96 2904.34 4316.63 2929.56 4301.52 2932.89C4198.98 2953.11 4090.45 2992.77 4034.9 3086.08C3994.8 3153.29 3991.91 3236.94 4008.02 3317.15C4029.45 3416.65 4070.13 3510.99 4127.77 3594.87C4128.71 3596.14 4129.38 3597.58 4129.76 3599.11C4130.14 3600.64 4130.21 3602.23 4129.97 3603.79C4129.73 3605.35 4129.19 3606.84 4128.38 3608.19C4127.56 3609.54 4126.49 3610.72 4125.22 3611.65C4123.95 3612.58 4122.51 3613.26 4120.98 3613.63C4119.45 3614.01 4117.86 3614.08 4116.3 3613.85C4114.75 3613.61 4113.25 3613.07 4111.9 3612.25C4110.55 3611.44 4109.38 3610.36 4108.44 3609.09L4108.67 3609.54Z" fill="#407BFF"/>
<g opacity="0.3">
<path d="M4108.67 3609.54C4043.57 3514.33 3993.36 3398.47 3978.25 3286.49C3947.81 3061.64 4104.45 2945.55 4297.63 2907.34C4312.96 2904.34 4316.63 2929.56 4301.52 2932.89C4198.98 2953.11 4090.45 2992.77 4034.9 3086.08C3994.8 3153.29 3991.91 3236.94 4008.02 3317.15C4029.45 3416.65 4070.13 3510.99 4127.77 3594.87C4128.71 3596.14 4129.38 3597.58 4129.76 3599.11C4130.14 3600.64 4130.21 3602.23 4129.97 3603.79C4129.73 3605.35 4129.19 3606.84 4128.38 3608.19C4127.56 3609.54 4126.49 3610.72 4125.22 3611.65C4123.95 3612.58 4122.51 3613.26 4120.98 3613.63C4119.45 3614.01 4117.86 3614.08 4116.3 3613.85C4114.75 3613.61 4113.25 3613.07 4111.9 3612.25C4110.55 3611.44 4109.38 3610.36 4108.44 3609.09L4108.67 3609.54Z" fill="black"/>
</g>
<path d="M3983.36 3391.47C3983.36 3391.47 4020.24 3268.49 4059.79 3298.48C4099.34 3328.48 3983.36 3391.47 3983.36 3391.47Z" fill="#407BFF"/>
<path d="M3970.47 3263.05C3970.47 3263.05 3941.92 3146.51 3999.69 3149.18C4057.45 3151.85 3970.47 3263.05 3970.47 3263.05Z" fill="#407BFF"/>
<path d="M3758.4 3121.63C3758.4 3121.63 3637.64 3077.19 3679.75 3039.76C3721.85 3002.32 3758.4 3121.63 3758.4 3121.63Z" fill="#407BFF"/>
<path d="M3942.48 3214.06C3942.48 3214.06 3822.72 3145.07 3824.61 3225.16C3826.5 3305.26 3942.48 3214.06 3942.48 3214.06Z" fill="#407BFF"/>
<path d="M3954.81 3504C3954.81 3504 4039.01 3408.35 4054.23 3456.34C4069.45 3504.33 3954.81 3504 3954.81 3504Z" fill="#407BFF"/>
<path d="M3902.93 3176.4C3902.93 3176.4 3782.73 3101.3 3838.49 3065.31C3894.26 3029.31 3902.93 3176.4 3902.93 3176.4Z" fill="#407BFF"/>
<path d="M3808.05 3132.74C3808.05 3132.74 3688.74 3151.4 3726.18 3199.39C3763.62 3247.38 3808.05 3132.74 3808.05 3132.74Z" fill="#407BFF"/>
<path d="M3985.58 3338.03C3985.58 3338.03 3941.14 3229.39 3899.04 3285.27C3856.93 3341.14 3985.58 3338.03 3985.58 3338.03Z" fill="#407BFF"/>
<g opacity="0.4">
<path d="M3954.8 3504C3954.8 3504 4039.01 3408.35 4054.23 3456.34C4069.45 3504.33 3954.8 3504 3954.8 3504Z" fill="white"/>
<path d="M3902.93 3176.4C3902.93 3176.4 3782.73 3101.3 3838.49 3065.31C3894.26 3029.31 3902.93 3176.4 3902.93 3176.4Z" fill="white"/>
<path d="M3808.05 3132.74C3808.05 3132.74 3688.74 3151.4 3726.18 3199.39C3763.62 3247.38 3808.05 3132.74 3808.05 3132.74Z" fill="white"/>
<path d="M3985.58 3338.03C3985.58 3338.03 3941.14 3229.39 3899.04 3285.27C3856.93 3341.14 3985.58 3338.03 3985.58 3338.03Z" fill="white"/>
</g>
<path d="M3970.25 3456.12C3970.25 3456.12 3953.25 3329.81 3894.48 3372.58C3835.72 3415.35 3970.25 3456.12 3970.25 3456.12Z" fill="#407BFF"/>
<path d="M3933.48 3571.66C3971.4 3504.76 3992.3 3429.57 3994.35 3352.7C3995.13 3202.06 3876.38 3129.41 3739.51 3109.63C3728.4 3108.08 3728.4 3125.18 3739.51 3126.74C3812.17 3137.18 3890.48 3160.07 3937.36 3220.94C3970.69 3264.49 3980.69 3320.15 3976.8 3374.03C3971.28 3440.37 3951.62 3504.76 3919.15 3562.88C3913.81 3572.43 3928.37 3581.43 3933.81 3571.77L3933.48 3571.66Z" fill="#407BFF"/>
<g opacity="0.3">
<path d="M3933.48 3571.66C3971.4 3504.76 3992.3 3429.57 3994.35 3352.7C3995.13 3202.06 3876.38 3129.41 3739.51 3109.63C3728.4 3108.08 3728.4 3125.18 3739.51 3126.74C3812.17 3137.18 3890.48 3160.07 3937.36 3220.94C3970.69 3264.49 3980.69 3320.15 3976.8 3374.03C3971.28 3440.37 3951.62 3504.76 3919.15 3562.88C3913.81 3572.43 3928.37 3581.43 3933.81 3571.77L3933.48 3571.66Z" fill="black"/>
</g>
<path d="M4279.19 3540.44L4236.2 3864.71C4233.51 3884.88 4223.59 3903.38 4208.29 3916.78C4192.98 3930.18 4173.34 3937.58 4152.99 3937.59H3885.6C3865.26 3937.58 3845.61 3930.18 3830.3 3916.78C3815 3903.38 3805.08 3884.88 3802.39 3864.71L3759.4 3540.44H4279.19Z" fill="#407BFF"/>
<path opacity="0.3" d="M4279.19 3540.44L4236.2 3864.71C4233.51 3884.88 4223.59 3903.38 4208.29 3916.78C4192.98 3930.18 4173.34 3937.58 4152.99 3937.59H3885.6C3865.26 3937.58 3845.61 3930.18 3830.3 3916.78C3815 3903.38 3805.08 3884.88 3802.39 3864.71L3759.4 3540.44H4279.19Z" fill="white"/>
<path d="M1864.87 2917.56H1791.88V3397.24H1864.87V2917.56Z" fill="#263238"/>
<path opacity="0.5" d="M1864.87 2917.56H1791.88V3397.24H1864.87V2917.56Z" fill="white"/>
<path d="M2050.17 3756.51L1879.2 3725.63V3382.36C1879.22 3379.83 1878.73 3377.32 1877.77 3374.99C1876.81 3372.65 1875.39 3370.52 1873.61 3368.74C1871.82 3366.95 1869.69 3365.53 1867.36 3364.57C1865.02 3363.61 1862.51 3363.12 1859.98 3363.14H1796.77C1794.24 3363.12 1791.73 3363.61 1789.39 3364.57C1787.04 3365.53 1784.91 3366.94 1783.11 3368.73C1781.32 3370.51 1779.89 3372.64 1778.92 3374.98C1777.95 3377.32 1777.44 3379.82 1777.44 3382.36V3725.63L1606.59 3756.51C1594.59 3758.65 1583.73 3764.94 1575.91 3774.28C1568.09 3783.63 1563.81 3795.43 1563.82 3807.61L1828.32 3783.73L2092.94 3807.61C2092.92 3795.43 2088.64 3783.65 2080.82 3774.31C2073 3764.97 2062.16 3758.67 2050.17 3756.51Z" fill="#263238"/>
<path d="M1619.36 3859.49C1619.36 3870.48 1616.1 3881.21 1610 3890.35C1603.9 3899.48 1595.22 3906.6 1585.07 3910.81C1574.92 3915.01 1563.75 3916.11 1552.98 3913.97C1542.2 3911.82 1532.31 3906.53 1524.54 3898.77C1516.77 3891 1511.48 3881.1 1509.34 3870.33C1507.19 3859.55 1508.29 3848.38 1512.5 3838.23C1516.7 3828.08 1523.82 3819.41 1532.96 3813.31C1542.09 3807.2 1552.83 3803.94 1563.81 3803.94C1578.55 3803.94 1592.67 3809.8 1603.09 3820.21C1613.51 3830.63 1619.36 3844.76 1619.36 3859.49Z" fill="#407BFF"/>
<path d="M2148.48 3859.49C2148.48 3870.48 2145.22 3881.21 2139.12 3890.35C2133.02 3899.48 2124.34 3906.6 2114.19 3910.81C2104.04 3915.01 2092.88 3916.11 2082.1 3913.97C2071.33 3911.82 2061.43 3906.53 2053.66 3898.77C2045.89 3891 2040.6 3881.1 2038.46 3870.33C2036.32 3859.55 2037.42 3848.38 2041.62 3838.23C2045.82 3828.08 2052.94 3819.41 2062.08 3813.31C2071.21 3807.2 2081.95 3803.94 2092.94 3803.94C2100.23 3803.94 2107.45 3805.38 2114.19 3808.17C2120.93 3810.96 2127.06 3815.06 2132.21 3820.21C2137.37 3825.37 2141.46 3831.49 2144.25 3838.23C2147.05 3844.97 2148.48 3852.2 2148.48 3859.49Z" fill="#407BFF"/>
<path d="M1871.76 3859.49C1871.76 3890.15 1859.09 3915.03 1828.32 3915.03C1797.55 3915.03 1784.99 3890.15 1784.99 3859.49C1784.99 3828.83 1797.66 3803.94 1828.32 3803.94C1858.98 3803.94 1871.76 3828.83 1871.76 3859.49Z" fill="#407BFF"/>
<g opacity="0.5">
<path d="M1880.87 3725.85V3788.5L1901.53 3790.39V3729.63L1880.87 3725.85Z" fill="black"/>
<path d="M1755.67 3729.52V3790.28L1776.33 3788.5V3725.85L1755.67 3729.52Z" fill="black"/>
</g>
<path d="M1351.86 2480.64C1347.25 2480.65 1342.7 2481.66 1338.54 2483.62C1334.37 2485.58 1330.68 2488.43 1327.73 2491.97C1324.79 2495.51 1322.66 2499.65 1321.49 2504.1C1320.32 2508.56 1320.14 2513.22 1320.97 2517.74L1388.74 2882.9C1391.8 2899.49 1400.58 2914.49 1413.55 2925.28C1426.51 2936.08 1442.85 2941.99 1459.73 2942H2527.63C2533.93 2942 2540.17 2940.76 2545.98 2938.34C2551.8 2935.93 2557.08 2932.39 2561.53 2927.93C2565.98 2923.48 2569.5 2918.19 2571.9 2912.36C2574.3 2906.54 2575.53 2900.3 2575.51 2894.01C2575.51 2875.95 2568.34 2858.63 2555.57 2845.85C2542.8 2833.08 2525.48 2825.91 2507.42 2825.91H1898.09C1881.94 2825.91 1866.25 2820.51 1853.53 2810.57C1840.8 2800.62 1831.77 2786.7 1827.88 2771.03L1773.33 2550.85C1768.37 2530.82 1756.85 2513.02 1740.6 2500.3C1724.36 2487.58 1704.32 2480.66 1683.68 2480.64H1351.86Z" fill="#263238"/>
<path d="M1496.05 2771.03L1441.51 2550.85C1436.55 2530.82 1425.02 2513.02 1408.78 2500.3C1392.53 2487.58 1372.49 2480.66 1351.86 2480.64C1347.25 2480.65 1342.7 2481.66 1338.54 2483.62C1334.37 2485.58 1330.68 2488.43 1327.73 2491.97C1324.79 2495.51 1322.66 2499.65 1321.49 2504.1C1320.32 2508.56 1320.14 2513.22 1320.97 2517.74L1388.74 2882.9C1391.8 2899.49 1400.58 2914.49 1413.55 2925.28C1426.51 2936.08 1442.85 2941.99 1459.73 2942H2195.7C2202 2942.01 2208.25 2940.78 2214.08 2938.37C2219.91 2935.97 2225.2 2932.43 2229.66 2927.97C2234.12 2923.51 2237.66 2918.22 2240.06 2912.39C2242.47 2906.56 2243.7 2900.31 2243.69 2894.01C2243.66 2875.96 2236.47 2858.65 2223.71 2845.89C2210.94 2833.12 2193.64 2825.94 2175.59 2825.91H1566.37C1550.2 2825.96 1534.48 2820.58 1521.72 2810.63C1508.97 2800.67 1499.93 2786.73 1496.05 2771.03Z" fill="#263238"/>
<path opacity="0.2" d="M1496.05 2771.03L1441.51 2550.85C1436.55 2530.82 1425.02 2513.02 1408.78 2500.3C1392.53 2487.58 1372.49 2480.66 1351.86 2480.64C1347.25 2480.65 1342.7 2481.66 1338.54 2483.62C1334.37 2485.58 1330.68 2488.43 1327.73 2491.97C1324.79 2495.51 1322.66 2499.65 1321.49 2504.1C1320.32 2508.56 1320.14 2513.22 1320.97 2517.74L1388.74 2882.9C1391.8 2899.49 1400.58 2914.49 1413.55 2925.28C1426.51 2936.08 1442.85 2941.99 1459.73 2942H2195.7C2202 2942.01 2208.25 2940.78 2214.08 2938.37C2219.91 2935.97 2225.2 2932.43 2229.66 2927.97C2234.12 2923.51 2237.66 2918.22 2240.06 2912.39C2242.47 2906.56 2243.7 2900.31 2243.69 2894.01C2243.66 2875.96 2236.47 2858.65 2223.71 2845.89C2210.94 2833.12 2193.64 2825.94 2175.59 2825.91H1566.37C1550.2 2825.96 1534.48 2820.58 1521.72 2810.63C1508.97 2800.67 1499.93 2786.73 1496.05 2771.03Z" fill="white"/>
<path d="M1947.19 1435.84C1947.19 1435.84 2068.72 1472.05 2011.95 1561.93L1959.19 1485.05L1947.19 1435.84Z" fill="#263238"/>
<path d="M2384.99 1899.08L2437.98 1821.32L2490.42 1837.98L2499.97 1859.09L2434.65 1952.52L2384.99 1899.08Z" fill="#DBB178"/>
<path d="M2463.53 1919.41C2410.43 2002.73 2326.67 2124.26 2294.67 2117.04C2200.69 2096.05 2071.5 2007.06 2005.17 1909.3C1995.16 1894.56 1991.06 1876.58 1993.67 1858.95C1996.28 1841.32 2005.42 1825.31 2019.28 1814.1V1813.43C2026.51 1807.53 2034.84 1803.11 2043.78 1800.43C2052.72 1797.75 2062.11 1796.86 2071.39 1797.8C2080.68 1798.75 2089.69 1801.53 2097.9 1805.96C2106.12 1810.4 2113.38 1816.41 2119.26 1823.65C2120.49 1825.1 2121.6 1826.65 2122.71 1828.21C2181.47 1912.53 2256.02 1992.51 2268.24 1999.29C2282.57 2007.51 2319.78 1972.29 2398.54 1872.76L2463.53 1919.41Z" fill="#407BFF"/>
<path opacity="0.6" d="M2463.53 1919.41C2410.43 2002.73 2326.67 2124.26 2294.67 2117.04C2200.69 2096.05 2071.5 2007.06 2005.17 1909.3C1995.16 1894.56 1991.06 1876.58 1993.67 1858.95C1996.28 1841.32 2005.42 1825.31 2019.28 1814.1V1813.43C2026.51 1807.53 2034.84 1803.11 2043.78 1800.43C2052.72 1797.75 2062.11 1796.86 2071.39 1797.8C2080.68 1798.75 2089.69 1801.53 2097.9 1805.96C2106.12 1810.4 2113.38 1816.41 2119.26 1823.65C2120.49 1825.1 2121.6 1826.65 2122.71 1828.21C2181.47 1912.53 2256.02 1992.51 2268.24 1999.29C2282.57 2007.51 2319.78 1972.29 2398.54 1872.76L2463.53 1919.41Z" fill="white"/>
<path d="M2464.76 1852.2L2569.74 1872.76L2520.86 1784.77C2520.86 1784.77 2457.31 1784.77 2437.98 1821.32L2464.76 1852.2Z" fill="#DBB178"/>
<path opacity="0.2" d="M2160.7 2056.28C2084.61 2004.29 2074.5 1882.31 2074.5 1882.31L2031.39 1862.65L2010.73 1917.52C2052.02 1972.37 2102.81 2019.37 2160.7 2056.28Z" fill="black"/>
<path d="M2643.94 1835.1L2599.06 1763.55L2520.97 1784.77L2569.74 1872.76L2643.94 1835.1Z" fill="#DBB178"/>
<path d="M2060.94 2323.34L1688.57 2347.78C1688.57 2347.78 1685.9 2247.8 1672.9 2155.7C1668.87 2123.65 1662.49 2091.94 1653.8 2060.83C1644.13 2029.06 1631.58 1993.4 1617.14 1951.96C1615.25 1946.85 1613.36 1941.74 1611.25 1936.41C1606.36 1923.52 1601.36 1910.08 1595.7 1896.08V1895.42C1590.66 1881.74 1591.21 1866.63 1597.22 1853.35C1603.22 1840.07 1614.21 1829.69 1627.8 1824.43C1630.36 1823.44 1633 1822.66 1635.69 1822.1C1659.35 1817.1 1683.24 1812.54 1707.45 1808.77L1728.34 1805.66C1784.1 1797.35 1840.29 1792.3 1896.64 1790.55C1925.86 1790.55 1957.07 1791.44 1983.73 1792.66L2005.95 1793.77C2034.17 1795.44 2053.72 1797.21 2053.72 1797.21C2053.72 1797.21 2065.94 1799.66 2073.16 1865.09C2073.32 1868.81 2073.7 1872.52 2074.27 1876.2C2075.16 1889.75 2075.94 1906.86 2076.27 1927.41C2077.38 2011.4 2072.38 2152.37 2060.94 2323.34Z" fill="#407BFF"/>
<path opacity="0.6" d="M2060.94 2323.34L1688.57 2347.78C1688.57 2347.78 1685.9 2247.8 1672.9 2155.7C1668.87 2123.65 1662.49 2091.94 1653.8 2060.83C1644.13 2029.06 1631.58 1993.4 1617.14 1951.96C1615.25 1946.85 1613.36 1941.74 1611.25 1936.41C1606.36 1923.52 1601.36 1910.08 1595.7 1896.08V1895.42C1590.66 1881.74 1591.21 1866.63 1597.22 1853.35C1603.22 1840.07 1614.21 1829.69 1627.8 1824.43C1630.36 1823.44 1633 1822.66 1635.69 1822.1C1659.35 1817.1 1683.24 1812.54 1707.45 1808.77L1728.34 1805.66C1784.1 1797.35 1840.29 1792.3 1896.64 1790.55C1925.86 1790.55 1957.07 1791.44 1983.73 1792.66L2005.95 1793.77C2034.17 1795.44 2053.72 1797.21 2053.72 1797.21C2053.72 1797.21 2065.94 1799.66 2073.16 1865.09C2073.32 1868.81 2073.7 1872.52 2074.27 1876.2C2075.16 1889.75 2075.94 1906.86 2076.27 1927.41C2077.38 2011.4 2072.38 2152.37 2060.94 2323.34Z" fill="white"/>
<path d="M1741.34 1803.88L1834.21 1927.63L1900.86 1870.53L1987.51 1912.3L1940.63 1791.1C1926.19 1791.1 1911.31 1791.1 1896.97 1791.1C1844.9 1792.51 1792.94 1796.78 1741.34 1803.88Z" fill="#407BFF"/>
<path opacity="0.9" d="M1741.34 1803.88L1834.21 1927.63L1900.86 1870.53L1987.51 1912.3L1940.63 1791.1C1926.19 1791.1 1911.31 1791.1 1896.97 1791.1C1844.9 1792.51 1792.94 1796.78 1741.34 1803.88Z" fill="white"/>
<path d="M2563.29 3816.72H2484.09L2520.19 3218.83H2668.38L2563.29 3816.72Z" fill="#DBB178"/>
<path d="M2475.31 3809.17C2474.42 3801.61 2568.96 3794.5 2568.96 3794.5C2568.96 3794.5 2634.72 3845.16 2692.49 3850.05C2750.26 3854.93 2723.71 3893.26 2661.16 3901.93L2506.41 3924.14C2461.98 3930.7 2484.42 3888.15 2475.31 3809.17Z" fill="#263238"/>
<path d="M2616.4 3812.39C2604.34 3811.68 2592.42 3809.4 2580.96 3805.61C2580.5 3805.5 2580.08 3805.27 2579.74 3804.95C2579.51 3804.18 2579.51 3803.37 2579.74 3802.61C2579.74 3801.61 2584.96 3778.17 2597.07 3771.29C2598.88 3770.18 2600.91 3769.48 2603.02 3769.23C2605.13 3768.98 2607.26 3769.19 2609.29 3769.84C2615.17 3771.62 2616.73 3774.95 2616.84 3777.28C2616.84 3782.06 2612.28 3787.39 2605.73 3792.28C2612.05 3790.5 2618.74 3790.5 2625.06 3792.28C2626.44 3792.8 2627.69 3793.59 2628.76 3794.6C2629.83 3795.61 2630.69 3796.83 2631.28 3798.17C2632.21 3799.92 2632.61 3801.9 2632.43 3803.87C2632.25 3805.84 2631.51 3807.72 2630.28 3809.28C2626.24 3812.1 2621.25 3813.21 2616.4 3812.39ZM2590.96 3802.39C2605.17 3806.06 2621.84 3808.5 2625.5 3804.5C2626.39 3803.72 2626.17 3802.06 2625.5 3800.06C2625.23 3799.41 2624.83 3798.82 2624.31 3798.34C2623.79 3797.86 2623.18 3797.5 2622.51 3797.28C2611.72 3796 2600.79 3797.77 2590.96 3802.39ZM2603.84 3774.62C2602.19 3774.62 2600.58 3775.08 2599.18 3775.95C2592.85 3781.46 2588.38 3788.8 2586.4 3796.95C2598.62 3789.95 2610.84 3781.17 2610.84 3777.4C2610.84 3776.73 2609.51 3775.84 2607.4 3775.06C2606.24 3774.74 2605.04 3774.59 2603.84 3774.62Z" fill="#407BFF"/>
<path opacity="0.2" d="M2513.86 3323.37L2649.28 3327.48L2668.38 3218.83H2520.19L2513.86 3323.37Z" fill="black"/>
<path d="M2183.14 3826.83L2107.27 3816.72L2227.36 3154.74L2377.11 3197.5L2183.14 3826.83Z" fill="#DBB178"/>
<path d="M2097.38 3806.17C2097.38 3798.39 2192.03 3806.17 2192.03 3806.17C2192.03 3806.17 2249.46 3866.04 2305.79 3879.49C2362.11 3892.93 2330.23 3927.03 2267.13 3926.14L2110.71 3924.26C2065.5 3923.81 2094.38 3885.93 2097.38 3806.17Z" fill="#263238"/>
<path d="M2241.8 3830.83C2227.96 3829.12 2214.54 3824.98 2202.14 3818.61L2201.36 3817.94C2201.31 3817.82 2201.28 3817.69 2201.28 3817.55C2201.28 3817.42 2201.31 3817.29 2201.36 3817.16C2201.2 3816.82 2201.11 3816.44 2201.11 3816.05C2201.11 3815.67 2201.2 3815.29 2201.36 3814.94C2201.36 3814.05 2210.03 3791.84 2223.58 3786.61C2225.5 3785.74 2227.58 3785.28 2229.69 3785.28C2231.8 3785.28 2233.88 3785.74 2235.8 3786.61C2241.36 3789.39 2242.36 3792.72 2242.13 3795.06C2242.13 3799.83 2236.13 3804.39 2229.14 3808.17C2235.66 3807.37 2242.28 3808.41 2248.24 3811.17C2249.52 3811.85 2250.64 3812.79 2251.52 3813.94C2252.41 3815.09 2253.03 3816.42 2253.35 3817.83C2254.07 3819.64 2254.2 3821.62 2253.74 3823.51C2253.29 3825.4 2252.26 3827.1 2250.8 3828.38C2248.19 3830.26 2245 3831.12 2241.8 3830.83ZM2212.14 3816.61C2225.69 3822.39 2241.8 3827.72 2245.47 3823.94C2246.35 3823.27 2246.58 3821.72 2245.47 3819.5C2245.3 3818.84 2244.99 3818.22 2244.57 3817.68C2244.15 3817.15 2243.62 3816.71 2243.02 3816.39C2232.89 3813.76 2222.24 3813.84 2212.14 3816.61ZM2227.69 3791.06C2226.47 3791.1 2225.27 3791.37 2224.14 3791.84C2217.14 3796.27 2211.67 3802.75 2208.47 3810.39C2222.03 3805.39 2234.8 3798.17 2235.02 3794.61C2235.02 3793.95 2233.91 3792.84 2232.02 3791.95C2230.84 3791.35 2229.56 3790.98 2228.25 3790.84L2227.69 3791.06Z" fill="#407BFF"/>
<path opacity="0.2" d="M2377.11 3197.5L2227.36 3154.74L2203.7 3285.27L2342.34 3310.26L2377.11 3197.5Z" fill="black"/>
<path d="M2480.98 3270.16L2671.49 3280.16C2720.26 3055.53 2768.92 2807.91 2759.26 2753.59C2740.93 2649.5 2599.51 2543.52 2050.5 2453.65L1794.99 2837.57C1794.99 2837.57 2168.7 2820.13 2509.3 2820.13C2509.19 2820.35 2490.2 3034.09 2480.98 3270.16Z" fill="#407BFF"/>
<path opacity="0.1" d="M2480.98 3270.16L2671.49 3280.16C2720.26 3055.53 2768.92 2807.91 2759.26 2753.59C2740.93 2649.5 2599.51 2543.52 2050.5 2453.65L1794.99 2837.57C1794.99 2837.57 2168.7 2820.13 2509.3 2820.13C2509.19 2820.35 2490.2 3034.09 2480.98 3270.16Z" fill="black"/>
<path d="M2468.2 3240.27L2473.86 3290.15L2682.6 3297.26L2692.82 3251.38L2468.2 3240.27Z" fill="#407BFF"/>
<path d="M1928.86 1790.88H1896.64C1850.43 1792.33 1804.33 1796.1 1758.45 1801.99C1778.44 1825.88 1840.77 1863.09 1882.53 1863.09C1940.86 1862.65 1927.86 1819.32 1928.86 1790.88Z" fill="#DBB178"/>
<path d="M2184.81 3231.5L2379.55 3263.16C2458.65 3041.76 2537.74 2806.13 2536.41 2753.03C2533.74 2647.27 2510.52 2592.4 2128.04 2507.08C2128.04 2507.08 2107.71 2477.42 2061.39 2323.78L1688.57 2348.22C1688.57 2348.22 1518.49 2661.49 1650.13 2795.25C1679.24 2825.02 1736.45 2838.35 1794.55 2837.79C1794.55 2837.79 1928.97 2838.46 2261.13 2822.91C2261.24 2822.91 2221.8 3012.43 2184.81 3231.5Z" fill="#407BFF"/>
<path d="M2177.03 3197.5L2402.65 3235.61L2381.21 3283.04L2176.03 3249.38L2177.03 3197.5Z" fill="#407BFF"/>
<path opacity="0.1" d="M2468.2 3240.27L2473.86 3290.15L2682.6 3297.26L2692.82 3251.38L2468.2 3240.27Z" fill="black"/>
<path d="M1900.64 1758.78C1896.35 1786.21 1897.49 1814.21 1903.97 1841.21L1801.88 1826.21C1799.68 1825.88 1797.59 1825.06 1795.76 1823.79C1793.93 1822.52 1792.42 1820.85 1791.35 1818.91C1790.27 1816.96 1789.66 1814.79 1789.56 1812.57C1789.46 1810.35 1789.88 1808.14 1790.77 1806.1C1804.77 1774.33 1810.33 1710.34 1813.77 1680.9C1815.66 1663.13 1816.44 1646.91 1816.55 1635.58C1816.66 1624.25 1816.55 1620.03 1816.55 1620.03L1862.2 1640.91L1936.75 1675.02C1919.56 1700.42 1907.31 1728.84 1900.64 1758.78Z" fill="#DBB178"/>
<path opacity="0.2" d="M1936.97 1675.02C1919.62 1700.4 1907.18 1728.81 1900.31 1758.78C1863.06 1744 1832.3 1716.43 1813.55 1681.01C1815.55 1663.24 1816.33 1647.02 1816.44 1635.69C1832.66 1637.36 1847.76 1639.02 1862.21 1641.02L1936.97 1675.02Z" fill="black"/>
<path d="M1942.41 1602.14C1939.41 1636.25 1956.85 1663.8 1981.29 1663.8C2005.73 1663.8 2028.06 1636.25 2031.06 1602.14C2034.06 1568.04 2016.62 1540.38 1992.18 1540.38C1967.74 1540.38 1945.41 1568.04 1942.41 1602.14Z" fill="#407BFF"/>
<path opacity="0.5" d="M1938.08 1602.14C1935.08 1636.25 1952.52 1663.8 1976.96 1663.8C2001.4 1663.8 2023.62 1636.25 2026.62 1602.14C2029.62 1568.04 2012.17 1540.38 1987.73 1540.38C1963.3 1540.38 1940.97 1568.04 1938.08 1602.14Z" fill="black"/>
<path d="M1767.11 1542.15C1785.33 1625.69 1791.66 1675.46 1840.98 1713.56C1856.89 1726.19 1875.94 1734.22 1896.09 1736.78C1916.23 1739.34 1936.69 1736.32 1955.24 1728.06C1973.8 1719.81 1989.73 1706.62 2001.31 1689.95C2012.9 1673.27 2019.69 1653.74 2020.95 1633.47C2027.5 1555.71 1996.62 1432.06 1908.64 1408.4C1889.73 1402.75 1869.66 1402.19 1850.46 1406.75C1831.26 1411.32 1813.6 1420.86 1799.26 1434.42C1784.92 1447.97 1774.39 1465.07 1768.75 1483.98C1763.11 1502.89 1762.54 1522.95 1767.11 1542.15Z" fill="#DBB178"/>
<path d="M1747.78 1629.36C1761.31 1645.69 1780.07 1656.83 1800.88 1660.91C1827.21 1665.35 1833.21 1641.02 1819.77 1617.36C1807.77 1596.14 1779.44 1568.26 1755.89 1574.48C1732.34 1580.7 1730.78 1608.81 1747.78 1629.36Z" fill="#DBB178"/>
<path d="M1898.98 1550.37C1900.09 1557.26 1904.53 1562.37 1909.09 1561.48C1913.64 1560.59 1916.31 1554.93 1915.31 1548.15C1914.31 1541.37 1909.75 1536.15 1905.2 1537.04C1900.64 1537.93 1897.98 1543.49 1898.98 1550.37Z" fill="#263238"/>
<path d="M1977.4 1541.15C1978.4 1548.04 1982.96 1553.15 1987.4 1552.26C1991.85 1551.37 1994.73 1545.71 1993.73 1538.82C1992.73 1531.93 1988.07 1526.93 1983.62 1527.71C1979.18 1528.49 1975.74 1534.26 1977.4 1541.15Z" fill="#263238"/>
<path d="M1952.63 1547.48C1964.13 1567.5 1978.21 1585.91 1994.51 1602.25C1990.26 1606.16 1985.2 1609.09 1979.69 1610.82C1974.18 1612.54 1968.35 1613.03 1962.63 1612.25L1952.63 1547.48Z" fill="#C0854B"/>
<path d="M1871.09 1528.27C1870.43 1528.41 1869.75 1528.41 1869.09 1528.27C1868.62 1528.01 1868.2 1527.66 1867.86 1527.24C1867.52 1526.82 1867.28 1526.34 1867.13 1525.82C1866.99 1525.3 1866.95 1524.76 1867.02 1524.22C1867.09 1523.69 1867.26 1523.17 1867.54 1522.71C1870.52 1517.04 1874.87 1512.2 1880.18 1508.61C1885.49 1505.03 1891.6 1502.81 1897.97 1502.16C1898.5 1502.11 1899.04 1502.18 1899.54 1502.34C1900.04 1502.51 1900.51 1502.78 1900.9 1503.13C1901.3 1503.49 1901.62 1503.92 1901.84 1504.4C1902.06 1504.88 1902.18 1505.41 1902.2 1505.94C1902.24 1506.47 1902.18 1507.01 1902.01 1507.52C1901.85 1508.03 1901.58 1508.5 1901.23 1508.9C1900.87 1509.31 1900.44 1509.64 1899.96 1509.87C1899.48 1510.11 1898.95 1510.24 1898.42 1510.27C1893.41 1510.83 1888.61 1512.63 1884.47 1515.5C1880.32 1518.37 1876.94 1522.22 1874.65 1526.71C1874.23 1527.24 1873.68 1527.66 1873.06 1527.93C1872.44 1528.2 1871.77 1528.32 1871.09 1528.27Z" fill="#263238"/>
<path d="M2006.18 1510.82C2005.51 1510.85 2004.86 1510.69 2004.27 1510.38C2003.69 1510.07 2003.2 1509.61 2002.84 1509.05C2000.02 1504.66 1996.23 1500.97 1991.77 1498.27C1987.3 1495.58 1982.27 1493.94 1977.07 1493.49C1976.11 1493.33 1975.24 1492.84 1974.61 1492.1C1973.98 1491.35 1973.63 1490.41 1973.63 1489.44C1973.63 1488.47 1973.98 1487.52 1974.61 1486.78C1975.24 1486.04 1976.11 1485.54 1977.07 1485.38C1983.59 1485.82 1989.93 1487.77 1995.56 1491.09C2001.19 1494.41 2005.97 1499 2009.51 1504.49C2010.12 1505.38 2010.35 1506.47 2010.17 1507.53C2009.98 1508.59 2009.38 1509.53 2008.51 1510.16C2007.8 1510.58 2007 1510.81 2006.18 1510.82Z" fill="#263238"/>
<path d="M1783.44 1652.02C1783.44 1652.02 1836.54 1597.7 1810.55 1464.39C1810.55 1464.39 1853.32 1500.72 1952.63 1473.83C1952.63 1473.83 1893.86 1479.61 1866.98 1451.61C1866.98 1451.61 1921.75 1477.05 2010.29 1451.61C2010.29 1451.61 1994.51 1361.96 1899.2 1357.41C1899.2 1357.41 1929.97 1331.53 1959.63 1336.52C1959.63 1336.52 1929.3 1310.42 1852.32 1361.19L1821.88 1373.63C1821.88 1373.63 1736.12 1342.75 1688.57 1415.4C1650.69 1472.83 1669.68 1653.69 1783.44 1652.02Z" fill="#263238"/>
<path d="M1978.18 1627.47C1978.18 1627.47 1951.3 1620.69 1875.54 1619.03C1883.98 1642.02 1900.09 1661.02 1938.97 1661.46C1943.81 1662 1948.72 1661.53 1953.37 1660.08C1958.03 1658.64 1962.33 1656.24 1966.01 1653.05C1969.7 1649.85 1972.68 1645.93 1974.77 1641.53C1976.87 1637.13 1978.03 1632.34 1978.18 1627.47Z" fill="#263238"/>
<path d="M1921.86 1643.13C1936.79 1642.59 1951.52 1646.74 1963.96 1655.02C1956.69 1659.67 1948.14 1661.89 1939.52 1661.35C1924.65 1661.97 1909.97 1657.81 1897.64 1649.46C1904.85 1644.86 1913.32 1642.64 1921.86 1643.13Z" fill="#A02724"/>
<path d="M1974.74 1626.8C1973.95 1629.59 1972.4 1632.11 1970.26 1634.07C1968.12 1636.03 1965.48 1637.36 1962.63 1637.91C1940.25 1637.39 1917.96 1635.02 1895.98 1630.8C1892.46 1630.49 1889.08 1629.31 1886.13 1627.37C1883.19 1625.44 1880.77 1622.8 1879.09 1619.69C1911.11 1619.59 1943.09 1621.97 1974.74 1626.8Z" fill="white"/>
<path d="M1742.23 1570.92V1481.27C1742.22 1454.74 1750.78 1428.91 1766.63 1407.64C1782.49 1386.36 1804.78 1370.77 1830.21 1363.19L1860.2 1357.85C1834.13 1365.63 1811.27 1381.62 1795.02 1403.43C1778.76 1425.25 1769.99 1451.74 1770 1478.94V1570.92H1742.23Z" fill="#407BFF"/>
<path d="M1811.88 1614.36C1814.88 1648.47 1797.44 1676.02 1773 1676.02C1748.56 1676.02 1726.23 1648.47 1723.34 1614.36C1720.45 1580.26 1737.78 1552.59 1762.22 1552.59C1786.66 1552.59 1808.88 1580.26 1811.88 1614.36Z" fill="#407BFF"/>
<path opacity="0.5" d="M1811.88 1614.36C1814.88 1648.47 1797.44 1676.02 1773 1676.02C1748.56 1676.02 1726.23 1648.47 1723.34 1614.36C1720.45 1580.26 1737.78 1552.59 1762.22 1552.59C1786.66 1552.59 1808.88 1580.26 1811.88 1614.36Z" fill="black"/>
<path d="M1797.1 1614.36C1799.99 1648.47 1782.66 1676.02 1758.11 1676.02C1733.56 1676.02 1711.45 1648.47 1708.45 1614.36C1705.46 1580.26 1722.9 1552.59 1747.34 1552.59C1771.78 1552.59 1794.11 1580.26 1797.1 1614.36Z" fill="#407BFF"/>
<path opacity="0.3" d="M1766.33 1623.36L1764.33 1605.36H1767.78C1763.33 1587.7 1750.89 1574.48 1737.23 1574.48C1723.56 1574.48 1713.57 1587.7 1712.12 1605.36H1714.45L1716.45 1623.36H1713.79C1718.23 1641.02 1730.67 1654.13 1744.23 1654.13C1757.78 1654.13 1768 1641.02 1769.33 1623.36H1766.33Z" fill="white"/>
<path d="M1606.7 1621.91L1655.24 1526.38L1694.46 1619.03C1694.46 1619.03 1655.13 1669.02 1614.58 1661.8L1606.7 1621.91Z" fill="#DBB178"/>
<path d="M1730.67 1491.16L1759.22 1570.59L1694.35 1619.03L1655.24 1526.38L1730.67 1491.16Z" fill="#DBB178"/>
<path d="M1619.47 1724.78L1666.13 1646.24L1661.24 1614.25L1620.14 1599.7L1561.6 1690.79L1619.47 1724.78Z" fill="#DBB178"/>
<path d="M1653.13 1675.9L1567.93 1863.42C1567.93 1863.42 1609.36 1826.21 1632.25 1820.88C1668.69 1812.32 1778.67 1845.54 1667.24 1966.52C1667.24 1966.52 1446.62 2104.38 1401.63 2050.94C1366.63 2009.4 1515.27 1756.89 1583.37 1646.24L1653.13 1675.9Z" fill="#407BFF"/>
<path opacity="0.6" d="M1653.13 1675.9L1567.93 1863.42C1567.93 1863.42 1609.36 1826.21 1632.25 1820.88C1668.69 1812.32 1778.67 1845.54 1667.24 1966.52C1667.24 1966.52 1446.62 2104.38 1401.63 2050.94C1366.63 2009.4 1515.27 1756.89 1583.37 1646.24L1653.13 1675.9Z" fill="white"/>
<path opacity="0.2" d="M1567.92 1863.42L1544.15 1936.63L1613.91 1829.32C1597.64 1839.36 1582.26 1850.77 1567.92 1863.42Z" fill="black"/>
<path d="M1887.09 1697.12C1877.76 1697.36 1868.43 1696.76 1859.2 1695.34C1835.43 1686.8 1812.43 1676.24 1790.44 1663.8L1794.88 1655.8C1816.23 1667.78 1838.53 1677.99 1861.54 1686.35C1885.2 1688.31 1908.98 1688.31 1932.63 1686.35L1933.3 1695.57C1931.52 1695.57 1908.19 1697.12 1887.09 1697.12Z" fill="#407BFF"/>
<path d="M1897.08 1699.01L1941.52 1695.68C1941.52 1695.68 1940.3 1681.9 1919.3 1682.46C1898.31 1683.02 1897.08 1699.01 1897.08 1699.01Z" fill="#407BFF"/>
<g opacity="0.5">
<path d="M1887.09 1697.12C1877.76 1697.36 1868.43 1696.76 1859.2 1695.34C1835.43 1686.8 1812.43 1676.24 1790.44 1663.8L1794.88 1655.8C1816.23 1667.78 1838.53 1677.99 1861.54 1686.35C1885.2 1688.31 1908.98 1688.31 1932.63 1686.35L1933.3 1695.57C1931.52 1695.57 1908.19 1697.12 1887.09 1697.12Z" fill="black"/>
<path d="M1897.08 1699.01L1941.52 1695.68C1941.52 1695.68 1940.3 1681.9 1919.3 1682.46C1898.31 1683.01 1897.08 1699.01 1897.08 1699.01Z" fill="black"/>
</g>
<path d="M3666.64 3927.48C3664.3 3927.57 3661.97 3927.19 3659.78 3926.38C3657.59 3925.57 3655.58 3924.33 3653.87 3922.75C3652.16 3921.16 3650.77 3919.25 3649.8 3917.12C3648.83 3915 3648.28 3912.7 3648.19 3910.37L3537.1 2624.17C3536.91 2613.07 3532.58 2602.45 3524.95 2594.4C3517.32 2586.34 3506.96 2581.42 3495.89 2580.62H2971.1C2960.03 2581.42 2949.67 2586.34 2942.04 2594.4C2934.42 2602.45 2930.08 2613.07 2929.89 2624.17L2818.8 3910.37C2818.78 3912.75 2818.29 3915.11 2817.35 3917.29C2816.41 3919.48 2815.04 3921.46 2813.32 3923.11C2811.6 3924.75 2809.56 3926.04 2807.34 3926.88C2805.11 3927.73 2802.74 3928.12 2800.36 3928.03C2795.55 3927.06 2791.31 3924.28 2788.5 3920.27C2785.69 3916.26 2784.52 3911.32 2785.25 3906.48L2896.34 2620.17C2900.23 2575.18 2932.33 2541.29 2971.1 2541.29H3495.89C3534.66 2541.29 3566.77 2575.18 3570.65 2620.17L3681.74 3906.48C3682.47 3911.32 3681.3 3916.26 3678.49 3920.27C3675.68 3924.28 3671.44 3927.06 3666.64 3928.03V3927.48Z" fill="#407BFF"/>
<g opacity="0.4">
<path d="M3666.64 3927.48C3664.3 3927.57 3661.97 3927.19 3659.78 3926.38C3657.59 3925.57 3655.58 3924.33 3653.87 3922.75C3652.16 3921.16 3650.77 3919.25 3649.8 3917.12C3648.83 3915 3648.28 3912.7 3648.19 3910.37L3537.1 2624.17C3536.91 2613.07 3532.58 2602.45 3524.95 2594.4C3517.32 2586.34 3506.96 2581.42 3495.89 2580.62H2971.1C2960.03 2581.42 2949.67 2586.34 2942.04 2594.4C2934.42 2602.45 2930.08 2613.07 2929.89 2624.17L2818.8 3910.37C2818.78 3912.75 2818.29 3915.11 2817.35 3917.29C2816.41 3919.48 2815.04 3921.46 2813.32 3923.11C2811.6 3924.75 2809.56 3926.04 2807.34 3926.88C2805.11 3927.73 2802.74 3928.12 2800.36 3928.03C2795.55 3927.06 2791.31 3924.28 2788.5 3920.27C2785.69 3916.26 2784.52 3911.32 2785.25 3906.48L2896.34 2620.17C2900.23 2575.18 2932.33 2541.29 2971.1 2541.29H3495.89C3534.66 2541.29 3566.77 2575.18 3570.65 2620.17L3681.74 3906.48C3682.47 3911.32 3681.3 3916.26 3678.49 3920.27C3675.68 3924.28 3671.44 3927.06 3666.64 3928.03V3927.48Z" fill="black"/>
</g>
<path d="M3659.3 2485.64H2232.8C2220.34 2485.64 2210.25 2495.74 2210.25 2508.19V2581.29C2210.25 2593.74 2220.34 2603.84 2232.8 2603.84H3659.3C3671.76 2603.84 3681.86 2593.74 3681.86 2581.29V2508.19C3681.86 2495.74 3671.76 2485.64 3659.3 2485.64Z" fill="#263238"/>
<path opacity="0.2" d="M3036.09 2485.64H3659.3C3665.2 2485.64 3670.85 2487.98 3675.02 2492.15C3679.18 2496.31 3681.52 2501.96 3681.52 2507.86V2580.95C3681.52 2586.85 3679.18 2592.5 3675.02 2596.66C3670.85 2600.83 3665.2 2603.17 3659.3 2603.17H3036.09V2485.64Z" fill="white"/>
<path d="M3091.86 3927.48C3089.47 3927.58 3087.08 3927.2 3084.84 3926.36C3082.6 3925.52 3080.55 3924.24 3078.82 3922.59C3077.09 3920.94 3075.71 3918.96 3074.76 3916.77C3073.81 3914.57 3073.32 3912.21 3073.3 3909.81L2962.21 2623.61C2962.02 2612.52 2957.69 2601.9 2950.06 2593.84C2942.43 2585.78 2932.07 2580.87 2921 2580.07H2396.21C2385.16 2580.9 2374.83 2585.82 2367.22 2593.88C2359.62 2601.93 2355.3 2612.54 2355.11 2623.61L2244.02 3910.37C2244 3912.75 2243.51 3915.11 2242.57 3917.29C2241.63 3919.48 2240.26 3921.46 2238.54 3923.11C2236.82 3924.75 2234.78 3926.04 2232.56 3926.89C2230.33 3927.73 2227.96 3928.12 2225.58 3928.03C2220.7 3927.01 2216.42 3924.13 2213.64 3920C2210.86 3915.87 2209.8 3910.82 2210.69 3905.93L2321.78 2619.61C2325.67 2574.62 2357.88 2540.74 2396.54 2540.74H2921.33C2960.1 2540.74 2992.21 2574.62 2996.1 2619.61L3107.19 3905.93C3107.91 3910.75 3106.77 3915.68 3103.98 3919.69C3101.19 3923.69 3096.97 3926.48 3092.19 3927.48H3091.86Z" fill="#407BFF"/>
<g opacity="0.4">
<path d="M3091.86 3927.48C3089.47 3927.58 3087.08 3927.2 3084.84 3926.36C3082.6 3925.52 3080.55 3924.24 3078.82 3922.59C3077.09 3920.94 3075.71 3918.96 3074.76 3916.77C3073.81 3914.57 3073.32 3912.21 3073.3 3909.81L2962.21 2623.61C2962.02 2612.52 2957.69 2601.9 2950.06 2593.84C2942.43 2585.78 2932.07 2580.87 2921 2580.07H2396.21C2385.16 2580.9 2374.83 2585.82 2367.22 2593.88C2359.62 2601.93 2355.3 2612.54 2355.11 2623.61L2244.02 3910.37C2244 3912.75 2243.51 3915.11 2242.57 3917.29C2241.63 3919.48 2240.26 3921.46 2238.54 3923.11C2236.82 3924.75 2234.78 3926.04 2232.56 3926.89C2230.33 3927.73 2227.96 3928.12 2225.58 3928.03C2220.7 3927.01 2216.42 3924.13 2213.64 3920C2210.86 3915.87 2209.8 3910.82 2210.69 3905.93L2321.78 2619.61C2325.67 2574.62 2357.88 2540.74 2396.54 2540.74H2921.33C2960.1 2540.74 2992.21 2574.62 2996.1 2619.61L3107.19 3905.93C3107.91 3910.75 3106.77 3915.68 3103.98 3919.69C3101.19 3923.69 3096.97 3926.48 3092.19 3927.48H3091.86Z" fill="black"/>
</g>
<path d="M2680.93 2427.43H3092.63V2466.2C3092.63 2471.35 3090.58 2476.3 3086.94 2479.94C3083.29 2483.59 3078.35 2485.64 3073.19 2485.64H2700.37C2695.22 2485.64 2690.27 2483.59 2686.63 2479.94C2682.98 2476.3 2680.93 2471.35 2680.93 2466.2V2427.65V2427.43Z" fill="#263238"/>
<path opacity="0.2" d="M2680.93 2427.43H3092.63V2466.2C3092.63 2471.35 3090.58 2476.3 3086.94 2479.94C3083.29 2483.59 3078.35 2485.64 3073.19 2485.64H2700.37C2695.22 2485.64 2690.27 2483.59 2686.63 2479.94C2682.98 2476.3 2680.93 2471.35 2680.93 2466.2V2427.65V2427.43Z" fill="white"/>
<path d="M2389.77 2427.43H2801.47V2466.2C2801.47 2471.35 2799.42 2476.3 2795.77 2479.94C2792.13 2483.59 2787.18 2485.64 2782.03 2485.64H2409.21C2404.05 2485.64 2399.11 2483.59 2395.46 2479.94C2391.82 2476.3 2389.77 2471.35 2389.77 2466.2V2427.65V2427.43Z" fill="#263238"/>
<path opacity="0.6" d="M2389.77 2427.43H2801.47V2466.2C2801.47 2471.35 2799.42 2476.3 2795.77 2479.94C2792.13 2483.59 2787.18 2485.64 2782.03 2485.64H2409.21C2404.05 2485.64 2399.11 2483.59 2395.46 2479.94C2391.82 2476.3 2389.77 2471.35 2389.77 2466.2V2427.65V2427.43Z" fill="white"/>
<path d="M2753.81 2449.54H2715.6V2463.31H2753.81V2449.54Z" fill="#263238"/>
<path d="M2692.6 2449.54H2654.38V2463.31H2692.6V2449.54Z" fill="#263238"/>
<path d="M3121.63 2485.64H3141.29C3146.67 2485.53 3151.84 2483.53 3155.9 2480C3159.96 2476.47 3162.65 2471.62 3163.51 2466.31L3230.16 2056.5C3230.69 2053.24 3230.51 2049.92 3229.64 2046.74C3228.77 2043.56 3227.24 2040.6 3225.13 2038.07C3223.03 2035.53 3220.41 2033.48 3217.44 2032.04C3214.48 2030.6 3211.24 2029.81 3207.95 2029.73L2888.34 2029.17L2801.91 2484.64H2821.58L3121.63 2485.64Z" fill="#263238"/>
<path opacity="0.6" d="M3121.63 2485.64H3141.29C3146.67 2485.53 3151.84 2483.53 3155.9 2480C3159.96 2476.47 3162.65 2471.62 3163.51 2466.31L3230.16 2056.5C3230.69 2053.24 3230.51 2049.92 3229.64 2046.74C3228.77 2043.56 3227.24 2040.6 3225.13 2038.07C3223.03 2035.53 3220.41 2033.48 3217.44 2032.04C3214.48 2030.6 3211.24 2029.81 3207.95 2029.73L2888.34 2029.17L2801.91 2484.64H2821.58L3121.63 2485.64Z" fill="white"/>
<path opacity="0.2" d="M2806.91 2455.98L2801.36 2485.08H2821.02L3120.96 2485.64H3140.63C3146.01 2485.53 3151.18 2483.53 3155.24 2480C3159.3 2476.47 3161.99 2471.62 3162.84 2466.31L3164.4 2456.64L2806.91 2455.98Z" fill="black"/>
<path d="M2801.8 2485.42H2821.69C2827.07 2485.3 2832.24 2483.31 2836.3 2479.77C2840.35 2476.24 2843.05 2471.4 2843.9 2466.09L2910.56 2056.05C2911.08 2052.81 2910.91 2049.48 2910.04 2046.31C2909.17 2043.14 2907.63 2040.19 2905.52 2037.66C2903.42 2035.13 2900.79 2033.09 2897.83 2031.66C2894.86 2030.23 2891.63 2029.46 2888.34 2029.39L2801.8 2485.42Z" fill="#263238"/>
<path opacity="0.3" d="M2801.8 2485.42H2821.69C2827.07 2485.3 2832.24 2483.31 2836.3 2479.77C2840.35 2476.24 2843.05 2471.4 2843.9 2466.09L2910.56 2056.05C2911.08 2052.81 2910.91 2049.48 2910.04 2046.31C2909.17 2043.14 2907.63 2040.19 2905.52 2037.66C2903.42 2035.13 2900.79 2033.09 2897.83 2031.66C2894.86 2030.23 2891.63 2029.46 2888.34 2029.39L2801.8 2485.42Z" fill="white"/>
<path d="M3271.78 2053.09L3289.4 1758.73L3350.57 1752.3L3336.12 1995.34L3460.15 1982.3L3456.98 2033.63L3271.78 2053.09ZM3558.1 2027.14C3544.35 2028.59 3532.18 2027.44 3521.6 2023.69C3511.1 2019.85 3502.99 2013.37 3497.28 2004.26C3491.56 1995.14 3489.13 1983.35 3489.99 1968.89C3490.79 1956.61 3493.64 1946.13 3498.54 1937.42C3503.51 1928.61 3509.93 1921.28 3517.79 1915.4C3525.65 1909.53 3534.52 1904.74 3544.42 1901.04C3554.4 1897.32 3564.81 1894.42 3575.64 1892.33C3588.12 1889.68 3598.25 1887.33 3606.03 1885.28C3613.91 1883.21 3619.71 1880.84 3623.42 1878.16C3627.13 1875.39 3629.17 1871.66 3629.53 1866.95L3629.44 1866.1C3629.92 1857.1 3627.55 1850.4 3622.33 1846C3617.19 1841.49 3609.53 1839.77 3599.36 1840.84C3588.63 1841.97 3579.74 1845.29 3572.7 1850.79C3565.75 1856.28 3561.06 1862.82 3558.62 1870.41L3503.33 1871.65C3506.85 1857.95 3513.04 1845.77 3521.92 1835.13C3530.88 1824.38 3542.11 1815.68 3555.6 1809.02C3569.08 1802.27 3584.53 1797.98 3601.95 1796.15C3614 1794.88 3625.41 1795.11 3636.16 1796.84C3647 1798.56 3656.55 1801.98 3664.8 1807.11C3673.15 1812.23 3679.51 1819.28 3683.88 1828.25C3688.33 1837.11 3690.2 1848.1 3689.49 1861.22L3680.43 2010.14L3623.36 2016.14L3625.28 1985.52L3623.58 1985.69C3619.68 1992.96 3614.66 1999.54 3608.52 2005.42C3602.37 2011.21 3595.11 2016.02 3586.75 2019.85C3578.39 2023.58 3568.83 2026.01 3558.1 2027.14ZM3577.89 1983.07C3586.65 1982.15 3594.52 1979.56 3601.5 1975.3C3608.56 1970.94 3614.18 1965.5 3618.35 1958.97C3622.61 1952.42 3625 1945.27 3625.52 1937.5L3626.77 1914.09C3625.02 1915.51 3622.4 1916.88 3618.92 1918.2C3615.53 1919.51 3611.81 1920.8 3607.76 1922.09C3603.79 1923.27 3599.76 1924.4 3595.69 1925.5C3591.61 1926.5 3587.95 1927.45 3584.71 1928.36C3577.57 1930.16 3571.24 1932.49 3565.73 1935.36C3560.23 1938.22 3555.89 1941.77 3552.71 1946.01C3549.53 1950.15 3547.81 1955.1 3547.56 1960.84C3547.1 1969.17 3549.69 1975.23 3555.32 1979.01C3561.04 1982.7 3568.57 1984.05 3577.89 1983.07ZM3751.77 2084.91C3744.05 2085.72 3736.92 2085.85 3730.39 2085.3C3723.87 2084.85 3718.44 2083.94 3714.11 2082.59L3730.58 2035.44C3737.49 2036.9 3743.69 2037.39 3749.16 2036.91C3754.72 2036.42 3759.66 2034.48 3763.97 2031.07C3768.28 2027.67 3772.01 2022.42 3775.17 2015.32L3779.57 2005.58L3715.47 1787.08L3776.5 1780.66L3811.64 1938.36L3813.9 1938.13L3869.03 1770.94L3935 1764L3836.1 2017.49C3831.21 2029.91 3825.04 2040.89 3817.56 2050.43C3810.19 2059.97 3801.05 2067.69 3790.15 2073.6C3779.35 2079.59 3766.56 2083.36 3751.77 2084.91ZM4008.35 1979.82C3994.6 1981.26 3982.44 1980.11 3971.85 1976.37C3961.36 1972.52 3953.25 1966.04 3947.53 1956.93C3941.81 1947.82 3939.38 1936.03 3940.24 1921.56C3941.05 1909.29 3943.9 1898.8 3948.79 1890.1C3953.77 1881.29 3960.19 1873.95 3968.04 1868.08C3975.9 1862.21 3984.78 1857.42 3994.67 1853.71C4004.66 1850 4015.06 1847.09 4025.89 1845C4038.37 1842.36 4048.5 1840.01 4056.29 1837.95C4064.16 1835.89 4069.96 1833.51 4073.68 1830.84C4077.39 1828.07 4079.42 1824.33 4079.78 1819.63L4079.69 1818.78C4080.18 1809.78 4077.81 1803.08 4072.58 1798.67C4067.44 1794.17 4059.79 1792.45 4049.62 1793.52C4038.88 1794.65 4029.99 1797.96 4022.95 1803.46C4016.01 1808.95 4011.31 1815.49 4008.87 1823.08L3953.59 1824.32C3957.1 1810.62 3963.29 1798.45 3972.17 1787.8C3981.14 1777.05 3992.36 1768.35 4005.85 1761.7C4019.33 1754.95 4034.78 1750.66 4052.2 1748.83C4064.26 1747.56 4075.66 1747.79 4086.41 1749.52C4097.26 1751.23 4106.8 1754.66 4115.06 1759.79C4123.4 1764.91 4129.76 1771.96 4134.13 1780.92C4138.59 1789.79 4140.46 1800.78 4139.74 1813.9L4130.68 1962.82L4073.61 1968.82L4075.53 1938.19L4073.84 1938.37C4069.94 1945.64 4064.91 1952.21 4058.77 1958.09C4052.62 1963.88 4045.37 1968.69 4037.01 1972.52C4028.64 1976.26 4019.09 1978.69 4008.35 1979.82ZM4028.14 1935.75C4036.9 1934.83 4044.77 1932.24 4051.75 1927.98C4058.81 1923.62 4064.43 1918.17 4068.6 1911.64C4072.87 1905.1 4075.26 1897.94 4075.77 1890.18L4077.02 1866.77C4075.27 1868.19 4072.65 1869.56 4069.17 1870.88C4065.79 1872.18 4062.07 1873.48 4058.01 1874.76C4054.04 1875.94 4050.02 1877.08 4045.94 1878.17C4041.86 1879.17 4038.2 1880.13 4034.96 1881.04C4027.82 1882.84 4021.49 1885.17 4015.99 1888.03C4010.48 1890.9 4006.14 1894.45 4002.97 1898.69C3999.78 1902.83 3998.07 1907.77 3997.81 1913.51C3997.36 1921.84 3999.94 1927.9 4005.58 1931.69C4011.3 1935.38 4018.82 1936.73 4028.14 1935.75ZM4245.56 1823.91L4237.83 1951.56L4177.8 1957.87L4191.15 1737.08L4248.37 1731.07L4246.18 1770L4248.58 1769.75C4254.12 1756.31 4262.76 1745.26 4274.52 1736.6C4286.36 1727.93 4300.34 1722.75 4316.44 1721.05C4331.51 1719.47 4344.43 1721.45 4355.2 1726.98C4366.07 1732.5 4374.21 1741.12 4379.63 1752.83C4385.14 1764.54 4387.38 1779.01 4386.34 1796.26L4377.69 1936.86L4317.51 1943.18L4325.45 1813.52C4326.22 1800.01 4323.43 1789.83 4317.1 1782.97C4310.84 1776.01 4301.64 1773.17 4289.49 1774.45C4281.39 1775.3 4274.13 1777.82 4267.72 1782.02C4261.31 1786.22 4256.14 1791.9 4252.23 1799.07C4248.4 1806.14 4246.18 1814.42 4245.56 1823.91ZM4486.58 1929.56C4472.83 1931 4460.66 1929.85 4450.08 1926.11C4439.58 1922.26 4431.47 1915.78 4425.76 1906.67C4420.04 1897.56 4417.61 1885.77 4418.47 1871.3C4419.27 1859.03 4422.12 1848.54 4427.01 1839.83C4431.99 1831.03 4438.41 1823.69 4446.27 1817.82C4454.12 1811.94 4463 1807.15 4472.89 1803.45C4482.88 1799.73 4493.29 1796.83 4504.12 1794.74C4516.6 1792.09 4526.73 1789.74 4534.51 1787.69C4542.39 1785.62 4548.18 1783.25 4551.9 1780.58C4555.61 1777.81 4557.65 1774.07 4558.01 1769.36L4557.92 1768.52C4558.4 1759.52 4556.03 1752.81 4550.81 1748.41C4545.67 1743.9 4538.01 1742.19 4527.84 1743.26C4517.1 1744.38 4508.22 1747.7 4501.18 1753.2C4494.23 1758.69 4489.54 1765.23 4487.1 1772.82L4431.81 1774.06C4435.32 1760.36 4441.52 1748.19 4450.4 1737.54C4459.36 1726.79 4470.59 1718.09 4484.08 1711.43C4497.55 1704.69 4513.01 1700.4 4530.43 1698.56C4542.48 1697.3 4553.89 1697.53 4564.64 1699.25C4575.48 1700.97 4585.03 1704.39 4593.28 1709.53C4601.63 1714.65 4607.99 1721.69 4612.36 1730.66C4616.81 1739.52 4618.68 1750.51 4617.97 1763.63L4608.91 1912.56L4551.84 1918.55L4553.76 1887.93L4552.06 1888.11C4548.16 1895.37 4543.14 1901.95 4537 1907.83C4530.85 1913.62 4523.59 1918.43 4515.23 1922.26C4506.87 1925.99 4497.31 1928.43 4486.58 1929.56ZM4506.37 1885.48C4515.13 1884.56 4523 1881.97 4529.98 1877.72C4537.04 1873.36 4542.66 1867.91 4546.83 1861.38C4551.09 1854.84 4553.48 1847.68 4554 1839.91L4555.25 1816.5C4553.5 1817.92 4550.88 1819.29 4547.4 1820.61C4544.01 1821.92 4540.29 1823.22 4536.24 1824.5C4532.27 1825.68 4528.24 1826.81 4524.17 1827.91C4520.09 1828.91 4516.42 1829.87 4513.19 1830.78C4506.05 1832.58 4499.72 1834.91 4494.21 1837.77C4488.71 1840.64 4484.37 1844.19 4481.19 1848.42C4478.01 1852.57 4476.29 1857.51 4476.04 1863.25C4475.58 1871.58 4478.17 1877.64 4483.8 1881.43C4489.52 1885.11 4497.05 1886.46 4506.37 1885.48ZM4723.78 1773.65L4716.06 1901.29L4656.02 1907.6L4669.38 1686.82L4726.59 1680.8L4724.4 1719.74L4726.8 1719.49C4732.34 1706.05 4740.99 1695 4752.74 1686.34C4764.59 1677.67 4778.56 1672.48 4794.67 1670.79C4809.74 1669.21 4822.66 1671.18 4833.43 1676.72C4844.29 1682.24 4852.43 1690.86 4857.85 1702.57C4863.37 1714.27 4865.6 1728.75 4864.56 1746L4855.91 1886.59L4795.73 1892.92L4803.67 1763.25C4804.44 1749.75 4801.66 1739.57 4795.32 1732.71C4789.07 1725.75 4779.86 1722.91 4767.72 1724.19C4759.62 1725.04 4752.36 1727.56 4745.94 1731.76C4739.53 1735.96 4734.37 1741.64 4730.46 1748.81C4726.63 1755.88 4724.4 1764.16 4723.78 1773.65Z" fill="white"/>
</svg>
