<svg width="108" height="108" viewBox="0 0 108 108" fill="none" xmlns="http://www.w3.org/2000/svg">
<rect width="107.544" height="107.544" rx="53.7721" fill="#0066FF"/>
<path d="M66.5996 43.2891L43.2891 43.2891L43.2891 66.5973L66.5973 66.5973L66.5996 43.2891Z" fill="white" fill-opacity="0.9"/>
<path d="M75.9208 38.6252L75.9208 33.9649L71.2605 33.9649L71.2605 29.3047L66.598 29.3047L66.598 33.9649L61.9377 33.9649L61.9377 29.3047L57.2751 29.3047L57.2751 33.9649L52.6149 33.9649L52.6149 29.3047L47.95 29.3047L47.95 33.9649L43.2897 33.9649L43.2897 29.3047L38.6271 29.3047L38.6271 33.9649L33.9669 33.9649L33.9669 38.6252L29.3066 38.6252L29.3066 43.2878L33.9669 43.2878L33.9669 47.948L29.3066 47.948L29.3066 52.6106L33.9669 52.6106L33.9669 57.2708L29.3066 57.2708L29.3066 61.9334L33.9669 61.9334L33.9669 66.5937L29.3066 66.5937L29.3066 71.2562L33.9669 71.2562L33.9669 75.9165L38.6271 75.9165L38.6271 80.5791L43.2897 80.5791L43.2897 75.9188L47.95 75.9188L47.95 80.5791L52.6125 80.5791L52.6125 75.9188L57.2728 75.9188L57.2728 80.5791L61.9354 80.5791L61.9354 75.9188L66.5956 75.9188L66.5956 80.5791L71.2582 80.5791L71.2582 75.9188L75.9184 75.9188L75.9184 71.2586L80.581 71.2586L80.581 66.596L75.9208 66.596L75.9208 61.9357L80.581 61.9357L80.581 57.2732L75.9208 57.2732L75.9208 52.6129L80.581 52.6129L80.581 47.948L75.9208 47.948L75.9208 43.2878L80.581 43.2878L80.581 38.6252L75.9208 38.6252ZM71.2605 71.2562L38.6271 71.2562L38.6271 38.6275L71.2559 38.6275L71.2605 71.2562Z" fill="white" fill-opacity="0.9"/>
</svg>
